<svg width="2148" height="538" viewBox="0 0 2148 538" fill="none" xmlns="http://www.w3.org/2000/svg">
<path d="M923.64 359.072L904.093 315.324H779.867L759.962 359.072H718.076L819.82 132.172H864.283L966.027 359.072H923.64ZM794.76 279.524H888.341L841.515 172.124L794.76 279.524Z" fill="#454545"/>
<path d="M979.416 427.236V200.765H1012.5L1015.65 227.543L1019.37 222.173C1025.28 214.277 1032.97 207.89 1041.82 203.534C1050.66 199.179 1060.42 196.979 1070.28 197.113C1081.23 196.796 1092.13 198.758 1102.29 202.875C1112.44 206.992 1121.63 213.173 1129.28 221.028C1144.03 237.088 1152.03 258.219 1151.61 280.026C1151.61 329.717 1119.47 363.011 1071.64 363.011C1053.31 363.011 1029.97 357.211 1019.37 340.958L1014.86 333.798V426.878L979.416 427.236ZM1067.34 231.267C1060.85 230.961 1054.37 232.013 1048.32 234.354C1042.26 236.695 1036.75 240.275 1032.16 244.864C1027.56 249.453 1023.98 254.951 1021.62 261.005C1019.27 267.06 1018.21 273.538 1018.51 280.026C1018.51 292.977 1023.65 305.398 1032.81 314.555C1041.97 323.713 1054.39 328.857 1067.34 328.857C1080.29 328.857 1092.71 323.713 1101.87 314.555C1111.03 305.398 1116.17 292.977 1116.17 280.026C1116.47 273.538 1115.41 267.06 1113.06 261.005C1110.71 254.951 1107.12 249.453 1102.52 244.864C1097.93 240.275 1092.42 236.695 1086.37 234.354C1080.31 232.013 1073.83 230.961 1067.34 231.267V231.267Z" fill="#454545"/>
<path d="M1169.09 427.237V200.766H1202.16L1205.31 227.544L1209.04 222.174C1215 214.305 1222.74 207.958 1231.63 203.652C1240.51 199.346 1250.29 197.204 1260.16 197.401C1271.11 197.071 1282 199.028 1292.14 203.146C1302.29 207.264 1311.47 213.452 1319.09 221.315C1333.85 237.375 1341.85 258.506 1341.43 280.313C1341.43 330.004 1309.28 363.298 1261.45 363.298C1243.12 363.298 1219.78 357.498 1209.25 341.245L1204.67 334.085V427.165L1169.09 427.237ZM1257.01 231.267C1250.52 230.962 1244.04 232.013 1237.98 234.355C1231.93 236.696 1226.42 240.276 1221.83 244.865C1217.23 249.454 1213.64 254.951 1211.29 261.006C1208.94 267.061 1207.88 273.539 1208.18 280.027C1208.18 292.978 1213.32 305.398 1222.48 314.556C1231.64 323.714 1244.06 328.858 1257.01 328.858C1269.96 328.858 1282.38 323.714 1291.54 314.556C1300.7 305.398 1305.84 292.978 1305.84 280.027C1306.14 273.539 1305.08 267.061 1302.73 261.006C1300.38 254.951 1296.79 249.454 1292.19 244.865C1287.6 240.276 1282.09 236.696 1276.04 234.355C1269.98 232.013 1263.5 230.962 1257.01 231.267V231.267Z" fill="#454545"/>
<path d="M1363.55 359.072V132.172H1532.1V169.618H1402V227.901H1527.51V263.701H1402V320.909H1532.1V359.072H1363.55Z" fill="#454545"/>
<path d="M1666.13 359.073L1629.4 302.366L1592.6 359.073H1549.64L1605.56 278.738L1552.72 200.765H1595.82L1629.4 258.475L1662.91 200.765H1706.08L1653.24 278.738L1709.09 359.073H1666.13Z" fill="#454545"/>
<path d="M1797.66 363.369C1743.82 363.369 1710.38 330.934 1710.38 278.738C1710.38 229.119 1744.25 195.753 1794.65 195.753C1820.79 195.753 1841.98 203.773 1855.8 219.023C1870.76 235.491 1877.28 260.623 1874.85 291.841H1747.04V294.633C1749.98 317.044 1770.02 331.507 1798.16 331.507C1813.89 331.621 1829.23 326.593 1841.84 317.187L1864.18 339.24C1845.76 355.248 1822.06 363.847 1797.66 363.369ZM1796.01 226.613C1771.81 226.613 1753.84 239.143 1747.9 260.193L1747.04 263.344H1841.19V260.551C1838.12 239 1821.79 226.613 1796.01 226.613Z" fill="#454545"/>
<path d="M1895.9 359.072V200.765H1928.76L1932.41 224.035L1935.92 218.45C1947.95 199.118 1964.13 196.469 1979.88 196.469C1994.06 196.281 2007.85 201.098 2018.83 210.073L2002.87 240.789C1994.79 234.269 1984.59 230.977 1974.23 231.553C1947.16 231.553 1931.27 247.949 1931.27 275.443V359.072H1895.9Z" fill="#454545"/>
<path d="M2114.42 361.078C2107.36 361.43 2100.31 360.342 2093.69 357.88C2087.06 355.419 2081.01 351.634 2075.9 346.758C2065.64 334.889 2060.5 319.447 2061.58 303.798V230.909H2031.08V201.052H2061.58V158.808L2097.02 155.013V201.052H2142.06V230.909H2096.66V303.87C2096.66 319.98 2105.54 329.574 2120.36 329.574C2126.59 329.408 2132.72 328.021 2138.41 325.493L2148 354.92C2138.3 358.73 2127.99 360.744 2117.57 360.863L2114.42 361.078Z" fill="#454545"/>
<path d="M714.783 511.223L600.223 471.199L467.978 424.802C436.059 413.522 408.427 392.615 388.895 364.965C369.363 337.315 358.894 304.285 358.931 270.432V0.786621C367.943 3.56226 375.857 9.09696 381.557 16.6102V16.6102L384.277 20.6914L714.783 511.223Z" fill="url(#paint0_linear)"/>
<path d="M355.709 0.786621V272.079C355.74 305.959 345.252 339.013 325.693 366.677C306.135 394.342 278.47 415.252 246.519 426.52L114.56 472.846L0 512.87L330.506 22.3382L333.226 18.257C338.773 10.2862 346.615 4.19272 355.709 0.786621V0.786621Z" fill="url(#paint1_linear)"/>
<path opacity="0.5" d="M70.3112 537.214L268.07 467.833C293.752 458.848 316.005 442.099 331.745 419.906C347.486 397.712 355.935 371.174 355.924 343.965V113.342L70.3112 537.214Z" fill="#F4B9A8"/>
<path opacity="0.5" d="M644.4 537.214L446.569 467.833C420.895 458.845 398.652 442.093 382.924 419.899C367.195 397.705 358.76 371.168 358.788 343.965V113.342L644.4 537.214Z" fill="#F4B9A8"/>
<defs>
<linearGradient id="paint0_linear" x1="44833.3" y1="-6017.26" x2="44833.3" y2="46241.2" gradientUnits="userSpaceOnUse">
<stop stop-color="#F34768"/>
<stop offset="1" stop-color="#F25D4A"/>
</linearGradient>
<linearGradient id="paint1_linear" x1="177.926" y1="-173.989" x2="177.926" y2="561.415" gradientUnits="userSpaceOnUse">
<stop stop-color="#F34768"/>
<stop offset="1" stop-color="#F25D4A"/>
</linearGradient>
</defs>
</svg>
