<svg id="SvgjsSvg1001" width="360" height="360" xmlns="http://www.w3.org/2000/svg" version="1.1" xmlns:xlink="http://www.w3.org/1999/xlink" xmlns:svgjs="http://svgjs.com/svgjs"><defs id="SvgjsDefs1002"></defs><g id="SvgjsG1008" transform="matrix(1,0,0,1,0,0)"><svg xmlns="http://www.w3.org/2000/svg" viewBox="0 0 850.39 595.28" width="360" height="360"><g data-name="Layer 1" fill="#000000" class="color000 svgShape"><ellipse cx="122.23" cy="536.71" fill="#d5eaf5" rx="59.38" ry="7.66" class="colord5eaf5 svgShape"></ellipse><ellipse cx="403.77" cy="530.94" fill="#d5eaf5" rx="216.52" ry="12.98" class="colord5eaf5 svgShape"></ellipse><path fill="#d5eaf5" d="M498.64,547.21c0,3.8-24.55,6.88-54.83,6.88S389,551,389,547.21s24.55-6.88,54.83-6.88S498.64,543.41,498.64,547.21Z" class="colord5eaf5 svgShape"></path><ellipse cx="603.11" cy="535.88" fill="#d5eaf5" rx="43.29" ry="6.3" class="colord5eaf5 svgShape"></ellipse><ellipse cx="718.65" cy="539.89" fill="#d5eaf5" rx="68.03" ry="5.25" class="colord5eaf5 svgShape"></ellipse><rect width="164.98" height="299.46" x="310.86" y="233.05" fill="#3b2b5b" rx="16.22" class="color3b2b5b svgShape"></rect><rect width="138.37" height="221.77" x="324.17" y="262.76" fill="#ffe5b0" class="colorffe5b0 svgShape"></rect><rect width="39.56" height="3.86" x="372.32" y="247.3" fill="#aacbe8" class="coloraacbe8 svgShape"></rect><path fill="#aacbe8" d="M310.86 294.81h0a2.16 2.16 0 01-2.16-2.16V273.53a2.16 2.16 0 012.16-2.16h0zM310.86 322.21h0a2.16 2.16 0 01-2.16-2.16V300.93a2.16 2.16 0 012.16-2.16h0z" class="coloraacbe8 svgShape"></path><rect width="46.84" height="16.57" x="371.98" y="499.44" fill="#aacbe8" rx="6.22" class="coloraacbe8 svgShape"></rect><path fill="#aacbe8" d="M451 247.3a4.17 4.17 0 11-4.16-4.17A4.16 4.16 0 01451 247.3zM458.41 247.64a2.24 2.24 0 11-2.24-2.24A2.24 2.24 0 01458.41 247.64z" class="coloraacbe8 svgShape"></path><path fill="#ffe5b0" d="M461.12,532.51H395.4l-.8-299.46h66.52a14.72,14.72,0,0,1,14.72,14.72v270A14.72,14.72,0,0,1,461.12,532.51Z" opacity=".36" class="colorffe5b0 svgShape"></path><rect width="44.55" height="316.59" x="243.04" y="215.93" fill="#ffcb48" rx="5.45" class="colorffcb48 svgShape"></rect><rect width="11.16" height="1" x="243.04" y="516.12" fill="#2a94f4" class="color295a6e svgShape"></rect><rect width="11.16" height="1" x="243.04" y="502.49" fill="#2a94f4" class="color295a6e svgShape"></rect><rect width="4.75" height="1" x="243.04" y="512.71" fill="#2a94f4" class="color295a6e svgShape"></rect><rect width="4.75" height="1" x="243.04" y="509.31" fill="#2a94f4" class="color295a6e svgShape"></rect><rect width="4.75" height="1" x="243.04" y="505.9" fill="#2a94f4" class="color295a6e svgShape"></rect><rect width="11.16" height="1" x="243.04" y="502.49" fill="#2a94f4" class="color295a6e svgShape"></rect><rect width="11.16" height="1" x="243.04" y="488.86" fill="#2a94f4" class="color295a6e svgShape"></rect><rect width="4.75" height="1" x="243.04" y="499.08" fill="#2a94f4" class="color295a6e svgShape"></rect><rect width="4.75" height="1" x="243.04" y="495.67" fill="#2a94f4" class="color295a6e svgShape"></rect><rect width="4.75" height="1" x="243.04" y="492.27" fill="#2a94f4" class="color295a6e svgShape"></rect><rect width="11.16" height="1" x="243.04" y="488.86" fill="#2a94f4" class="color295a6e svgShape"></rect><rect width="11.16" height="1" x="243.04" y="475.23" fill="#2a94f4" class="color295a6e svgShape"></rect><rect width="4.75" height="1" x="243.04" y="485.45" fill="#2a94f4" class="color295a6e svgShape"></rect><rect width="4.75" height="1" x="243.04" y="482.04" fill="#2a94f4" class="color295a6e svgShape"></rect><rect width="4.75" height="1" x="243.04" y="478.64" fill="#2a94f4" class="color295a6e svgShape"></rect><rect width="11.16" height="1" x="243.04" y="475.23" fill="#2a94f4" class="color295a6e svgShape"></rect><rect width="11.16" height="1" x="243.04" y="461.6" fill="#2a94f4" class="color295a6e svgShape"></rect><rect width="4.75" height="1" x="243.04" y="471.82" fill="#2a94f4" class="color295a6e svgShape"></rect><rect width="4.75" height="1" x="243.04" y="468.41" fill="#2a94f4" class="color295a6e svgShape"></rect><rect width="4.75" height="1" x="243.04" y="465" fill="#2a94f4" class="color295a6e svgShape"></rect><rect width="11.16" height="1" x="243.04" y="461.6" fill="#2a94f4" class="color295a6e svgShape"></rect><rect width="11.16" height="1" x="243.04" y="447.97" fill="#2a94f4" class="color295a6e svgShape"></rect><rect width="4.75" height="1" x="243.04" y="458.19" fill="#2a94f4" class="color295a6e svgShape"></rect><rect width="4.75" height="1" x="243.04" y="454.78" fill="#2a94f4" class="color295a6e svgShape"></rect><rect width="4.75" height="1" x="243.04" y="451.37" fill="#2a94f4" class="color295a6e svgShape"></rect><rect width="11.16" height="1" x="243.04" y="447.97" fill="#2a94f4" class="color295a6e svgShape"></rect><rect width="11.16" height="1" x="243.04" y="434.33" fill="#2a94f4" class="color295a6e svgShape"></rect><rect width="4.75" height="1" x="243.04" y="444.56" fill="#2a94f4" class="color295a6e svgShape"></rect><rect width="4.75" height="1" x="243.04" y="441.15" fill="#2a94f4" class="color295a6e svgShape"></rect><rect width="4.75" height="1" x="243.04" y="437.74" fill="#2a94f4" class="color295a6e svgShape"></rect><rect width="11.16" height="1" x="243.04" y="434.33" fill="#2a94f4" class="color295a6e svgShape"></rect><rect width="11.16" height="1" x="243.04" y="420.7" fill="#2a94f4" class="color295a6e svgShape"></rect><rect width="4.75" height="1" x="243.04" y="430.93" fill="#2a94f4" class="color295a6e svgShape"></rect><rect width="4.75" height="1" x="243.04" y="427.52" fill="#2a94f4" class="color295a6e svgShape"></rect><rect width="4.75" height="1" x="243.04" y="424.11" fill="#2a94f4" class="color295a6e svgShape"></rect><rect width="11.16" height="1" x="243.04" y="420.7" fill="#2a94f4" class="color295a6e svgShape"></rect><rect width="11.16" height="1" x="243.04" y="407.07" fill="#2a94f4" class="color295a6e svgShape"></rect><rect width="4.75" height="1" x="243.04" y="417.3" fill="#2a94f4" class="color295a6e svgShape"></rect><rect width="4.75" height="1" x="243.04" y="413.89" fill="#2a94f4" class="color295a6e svgShape"></rect><rect width="4.75" height="1" x="243.04" y="410.48" fill="#2a94f4" class="color295a6e svgShape"></rect><rect width="11.16" height="1" x="243.04" y="407.07" fill="#2a94f4" class="color295a6e svgShape"></rect><rect width="11.16" height="1" x="243.04" y="393.44" fill="#2a94f4" class="color295a6e svgShape"></rect><rect width="4.75" height="1" x="243.04" y="403.66" fill="#2a94f4" class="color295a6e svgShape"></rect><rect width="4.75" height="1" x="243.04" y="400.26" fill="#2a94f4" class="color295a6e svgShape"></rect><rect width="4.75" height="1" x="243.04" y="396.85" fill="#2a94f4" class="color295a6e svgShape"></rect><rect width="11.16" height="1" x="243.04" y="393.44" fill="#2a94f4" class="color295a6e svgShape"></rect><rect width="11.16" height="1" x="243.04" y="379.81" fill="#2a94f4" class="color295a6e svgShape"></rect><rect width="4.75" height="1" x="243.04" y="390.03" fill="#2a94f4" class="color295a6e svgShape"></rect><rect width="4.75" height="1" x="243.04" y="386.63" fill="#2a94f4" class="color295a6e svgShape"></rect><rect width="4.75" height="1" x="243.04" y="383.22" fill="#2a94f4" class="color295a6e svgShape"></rect><rect width="11.16" height="1" x="243.04" y="379.81" fill="#2a94f4" class="color295a6e svgShape"></rect><rect width="11.16" height="1" x="243.04" y="366.18" fill="#2a94f4" class="color295a6e svgShape"></rect><rect width="4.75" height="1" x="243.04" y="376.4" fill="#2a94f4" class="color295a6e svgShape"></rect><rect width="4.75" height="1" x="243.04" y="373" fill="#2a94f4" class="color295a6e svgShape"></rect><rect width="4.75" height="1" x="243.04" y="369.59" fill="#2a94f4" class="color295a6e svgShape"></rect><rect width="11.16" height="1" x="243.04" y="366.18" fill="#2a94f4" class="color295a6e svgShape"></rect><rect width="11.16" height="1" x="243.04" y="352.55" fill="#2a94f4" class="color295a6e svgShape"></rect><rect width="4.75" height="1" x="243.04" y="362.77" fill="#2a94f4" class="color295a6e svgShape"></rect><rect width="4.75" height="1" x="243.04" y="359.36" fill="#2a94f4" class="color295a6e svgShape"></rect><rect width="4.75" height="1" x="243.04" y="355.96" fill="#2a94f4" class="color295a6e svgShape"></rect><rect width="11.16" height="1" x="243.04" y="352.55" fill="#2a94f4" class="color295a6e svgShape"></rect><rect width="11.16" height="1" x="243.04" y="338.92" fill="#2a94f4" class="color295a6e svgShape"></rect><rect width="4.75" height="1" x="243.04" y="349.14" fill="#2a94f4" class="color295a6e svgShape"></rect><rect width="4.75" height="1" x="243.04" y="345.73" fill="#2a94f4" class="color295a6e svgShape"></rect><rect width="4.75" height="1" x="243.04" y="342.33" fill="#2a94f4" class="color295a6e svgShape"></rect><rect width="11.16" height="1" x="243.04" y="338.92" fill="#2a94f4" class="color295a6e svgShape"></rect><rect width="11.16" height="1" x="243.04" y="325.29" fill="#2a94f4" class="color295a6e svgShape"></rect><rect width="4.75" height="1" x="243.04" y="335.51" fill="#2a94f4" class="color295a6e svgShape"></rect><rect width="4.75" height="1" x="243.04" y="332.1" fill="#2a94f4" class="color295a6e svgShape"></rect><rect width="4.75" height="1" x="243.04" y="328.7" fill="#2a94f4" class="color295a6e svgShape"></rect><rect width="11.16" height="1" x="243.04" y="325.29" fill="#2a94f4" class="color295a6e svgShape"></rect><rect width="11.16" height="1" x="243.04" y="311.66" fill="#2a94f4" class="color295a6e svgShape"></rect><rect width="4.75" height="1" x="243.04" y="321.88" fill="#2a94f4" class="color295a6e svgShape"></rect><rect width="4.75" height="1" x="243.04" y="318.47" fill="#2a94f4" class="color295a6e svgShape"></rect><rect width="4.75" height="1" x="243.04" y="315.06" fill="#2a94f4" class="color295a6e svgShape"></rect><rect width="11.16" height="1" x="243.04" y="311.66" fill="#2a94f4" class="color295a6e svgShape"></rect><rect width="11.16" height="1" x="243.04" y="298.03" fill="#2a94f4" class="color295a6e svgShape"></rect><rect width="4.75" height="1" x="243.04" y="308.25" fill="#2a94f4" class="color295a6e svgShape"></rect><rect width="4.75" height="1" x="243.04" y="304.84" fill="#2a94f4" class="color295a6e svgShape"></rect><rect width="4.75" height="1" x="243.04" y="301.43" fill="#2a94f4" class="color295a6e svgShape"></rect><rect width="11.16" height="1" x="243.04" y="298.03" fill="#2a94f4" class="color295a6e svgShape"></rect><rect width="11.16" height="1" x="243.04" y="284.39" fill="#2a94f4" class="color295a6e svgShape"></rect><rect width="4.75" height="1" x="243.04" y="294.62" fill="#2a94f4" class="color295a6e svgShape"></rect><rect width="4.75" height="1" x="243.04" y="291.21" fill="#2a94f4" class="color295a6e svgShape"></rect><rect width="4.75" height="1" x="243.04" y="287.8" fill="#2a94f4" class="color295a6e svgShape"></rect><rect width="11.16" height="1" x="243.04" y="284.39" fill="#2a94f4" class="color295a6e svgShape"></rect><rect width="11.16" height="1" x="243.04" y="270.76" fill="#2a94f4" class="color295a6e svgShape"></rect><rect width="4.75" height="1" x="243.04" y="280.99" fill="#2a94f4" class="color295a6e svgShape"></rect><rect width="4.75" height="1" x="243.04" y="277.58" fill="#2a94f4" class="color295a6e svgShape"></rect><rect width="4.75" height="1" x="243.04" y="274.17" fill="#2a94f4" class="color295a6e svgShape"></rect><rect width="11.16" height="1" x="243.04" y="270.76" fill="#2a94f4" class="color295a6e svgShape"></rect><rect width="11.16" height="1" x="243.04" y="257.13" fill="#2a94f4" class="color295a6e svgShape"></rect><rect width="4.75" height="1" x="243.04" y="267.36" fill="#2a94f4" class="color295a6e svgShape"></rect><rect width="4.75" height="1" x="243.04" y="263.95" fill="#2a94f4" class="color295a6e svgShape"></rect><rect width="4.75" height="1" x="243.04" y="260.54" fill="#2a94f4" class="color295a6e svgShape"></rect><rect width="11.16" height="1" x="243.04" y="257.13" fill="#2a94f4" class="color295a6e svgShape"></rect><rect width="11.16" height="1" x="243.04" y="243.5" fill="#2a94f4" class="color295a6e svgShape"></rect><rect width="4.75" height="1" x="243.04" y="253.72" fill="#2a94f4" class="color295a6e svgShape"></rect><rect width="4.75" height="1" x="243.04" y="250.32" fill="#2a94f4" class="color295a6e svgShape"></rect><rect width="4.75" height="1" x="243.04" y="246.91" fill="#2a94f4" class="color295a6e svgShape"></rect><rect width="11.16" height="1" x="243.04" y="243.5" fill="#2a94f4" class="color295a6e svgShape"></rect><rect width="11.16" height="1" x="243.04" y="229.87" fill="#2a94f4" class="color295a6e svgShape"></rect><rect width="4.75" height="1" x="243.04" y="240.09" fill="#2a94f4" class="color295a6e svgShape"></rect><rect width="4.75" height="1" x="243.04" y="236.69" fill="#2a94f4" class="color295a6e svgShape"></rect><rect width="4.75" height="1" x="243.04" y="233.28" fill="#2a94f4" class="color295a6e svgShape"></rect><path fill="#ffcb48" d="M442.81,169.5a.49.49,0,0,1-.37-.16.49.49,0,0,1,0-.7L545.9,73.05a.5.5,0,0,1,.65,0l124.09,95.44a.51.51,0,0,1,.09.71.5.5,0,0,1-.7.09L546.27,74.07l-103.12,95.3A.5.5,0,0,1,442.81,169.5Z" class="colorffcb48 svgShape"></path><path fill="#ffcb48" d="M288.05,169.5a.49.49,0,0,1-.47-.32.5.5,0,0,1,.29-.65L546.07,73a.5.5,0,0,1,.64.29.51.51,0,0,1-.3.65L288.22,169.47A.51.51,0,0,1,288.05,169.5Z" class="colorffcb48 svgShape"></path><path fill="#ff9a2e" d="M528.43,522.52a1,1,0,0,1-1-1V184.09a.88.88,0,0,1,0-.16L545.2,74.13a1,1,0,0,1,1-.84h0a1,1,0,0,1,1,.87L562.3,187.9a.62.62,0,0,1,0,.13V518.89a1,1,0,0,1-2,0V188.1L546.09,81.16l-16.66,103V521.51A1,1,0,0,1,528.43,522.52Z" class="colorff9a2e svgShape"></path><path fill="#ff9a2e" d="M258.71 198.33a1 1 0 01-.93-.63 1 1 0 01.23-1.09l29.34-28.33a1 1 0 01.7-.28l382.29-.14a1 1 0 01.72.31l27.17 28.32a1 1 0 01.2 1.09 1 1 0 01-.93.61zM288.45 170l-27.27 26.32 434-.14-25.25-26.33zM561.31 517.93H528.43a1 1 0 01-.9-.57 1 1 0 01.13-1.07L543.57 497l-15.91-19.33a1 1 0 01-.13-1.07 1 1 0 01.9-.57h32.88a1 1 0 01.9.57 1 1 0 01-.13 1.07L546.17 497l15.91 19.33a1 1 0 01.13 1.07A1 1 0 01561.31 517.93zm-30.76-2h28.64l-14.32-17.39zm0-37.94l14.32 17.4L559.19 478z" class="colorff9a2e svgShape"></path><path fill="#ff9a2e" d="M561.31,478H528.43a1,1,0,0,1-.77-1.63L543.57,457,527.66,437.7a1,1,0,0,1,.77-1.64h32.88a1,1,0,0,1,.9.58,1,1,0,0,1-.13,1.06L546.17,457l15.91,19.34a1,1,0,0,1-.77,1.63Zm-30.76-2h28.64l-14.32-17.39Zm0-37.94,14.32,17.4,14.32-17.4Z" class="colorff9a2e svgShape"></path><path fill="#ff9a2e" d="M561.31,437.92H528.43a1,1,0,0,1-.9-.57,1,1,0,0,1,.13-1.07L543.57,417l-15.91-19.33a1,1,0,0,1-.13-1.07,1,1,0,0,1,.9-.57h32.88a1,1,0,0,1,.9.57,1,1,0,0,1-.13,1.07L546.17,417l15.91,19.33a1,1,0,0,1,.13,1.07A1,1,0,0,1,561.31,437.92Zm-30.76-2h28.64l-14.32-17.4Zm0-37.94,14.32,17.39L559.19,398Z" class="colorff9a2e svgShape"></path><path fill="#ff9a2e" d="M561.31,398H528.43a1,1,0,0,1-.9-.57,1,1,0,0,1,.13-1.07L543.57,377l-15.91-19.33a1,1,0,0,1-.13-1.07,1,1,0,0,1,.9-.57h32.88a1,1,0,0,1,.9.57,1,1,0,0,1-.13,1.07L546.17,377l15.91,19.33a1,1,0,0,1,.13,1.07A1,1,0,0,1,561.31,398Zm-30.76-2h28.64l-14.32-17.4Zm0-37.94,14.32,17.39,14.32-17.39Z" class="colorff9a2e svgShape"></path><path fill="#ff9a2e" d="M561.31,357.91H528.43a1,1,0,0,1-.77-1.64l15.91-19.33L527.66,317.6a1,1,0,0,1,.77-1.64h32.88a1,1,0,0,1,.9.58,1,1,0,0,1-.13,1.06l-15.91,19.34,15.91,19.33a1,1,0,0,1,.13,1.06A1,1,0,0,1,561.31,357.91Zm-30.76-2h28.64l-14.32-17.39Zm0-37.93,14.32,17.39L559.19,318Z" class="colorff9a2e svgShape"></path><path fill="#ff9a2e" d="M561.31,317.82H528.43a1,1,0,0,1-.9-.57,1,1,0,0,1,.13-1.07l15.91-19.33-15.91-19.33a1,1,0,0,1-.13-1.07,1,1,0,0,1,.9-.57h32.88a1,1,0,0,1,.9.57,1,1,0,0,1-.13,1.07l-15.91,19.33,15.91,19.33a1,1,0,0,1,.13,1.07A1,1,0,0,1,561.31,317.82Zm-30.76-2h28.64l-14.32-17.39Zm0-37.94,14.32,17.4,14.32-17.4Z" class="colorff9a2e svgShape"></path><path fill="#ff9a2e" d="M561.31,277.89H528.43a1,1,0,0,1-.77-1.63l15.91-19.34-15.91-19.33a1,1,0,0,1,.77-1.64h32.88a1,1,0,0,1,.9.58,1,1,0,0,1-.13,1.06l-15.91,19.33,15.91,19.34a1,1,0,0,1-.77,1.63Zm-30.76-2h28.64L544.87,258.5Zm0-37.94,14.32,17.4L559.19,238Z" class="colorff9a2e svgShape"></path><path fill="#ff9a2e" d="M561.31,237.65H528.43a1,1,0,0,1-.77-1.63l15.91-19.34-15.91-19.33a1,1,0,0,1,.77-1.64h32.88a1,1,0,0,1,.9.58,1,1,0,0,1-.13,1.06l-15.91,19.33L562.08,236a1,1,0,0,1-.77,1.63Zm-30.76-2h28.64l-14.32-17.39Zm0-37.93,14.32,17.39,14.32-17.39Z" class="colorff9a2e svgShape"></path><path fill="#ff9a2e" d="M561.31,197.41H528.43a1,1,0,0,1-.81-1.58l16.12-22.21L532,157.21a1,1,0,0,1,.81-1.59h24.52a1,1,0,0,1,.81,1.59l-11.91,16.41,15.91,22.21a1,1,0,0,1-.81,1.58Zm-30.91-2h29L545,175.33Zm4.34-37.78L545,171.91l10.36-14.28Z" class="colorff9a2e svgShape"></path><path fill="#ff9a2e" d="M557.31,157.33H532.79a1,1,0,0,1-.89-1.45l12.46-25-6.06-13a1,1,0,0,1,.91-1.42h12.71a1,1,0,0,1,1,1s0,0,0,.06a1,1,0,0,1,0,.77l-6.29,12.63,11.63,25a1,1,0,0,1-.06,1A1,1,0,0,1,557.31,157.33Zm-22.9-2h21.33l-10.3-22.12Zm6.37-36.87,4.72,10.14,5-10.14Z" class="colorff9a2e svgShape"></path><polygon fill="#ff9a2e" points="631.73 198.28 592.21 169.82 593.38 168.19 631.74 195.81 670.3 168.19 671.46 169.82 631.73 198.28" class="colorff9a2e svgShape"></polygon><polygon fill="#ff9a2e" points="561.38 197.94 516.85 169.85 517.92 168.16 561.24 195.49 594.84 168.23 596.1 169.78 561.38 197.94" class="colorff9a2e svgShape"></polygon><polygon fill="#ff9a2e" points="479.76 198.28 440.24 169.82 441.41 168.19 479.76 195.81 518.33 168.19 519.49 169.82 479.76 198.28" class="colorff9a2e svgShape"></polygon><polygon fill="#ff9a2e" points="403.66 198.28 364.14 169.82 365.31 168.19 403.66 195.81 442.23 168.19 443.39 169.82 403.66 198.28" class="colorff9a2e svgShape"></polygon><polygon fill="#ff9a2e" points="326.98 198.28 287.46 169.82 288.63 168.19 326.99 195.81 365.55 168.19 366.71 169.82 326.98 198.28" class="colorff9a2e svgShape"></polygon><path fill="#ffcb48" d="M527.36,252.28H491.27c-3.85,0-7-2.52-7-5.62V225c1.09-18.95,14.56-26.19,15.13-26.49l.26-.13h27.69Zm-27.1-51.58c-1.75,1-12.72,8.16-13.66,24.37v21.59c0,1.79,2.14,3.3,4.67,3.3H525V200.7Z" class="colorffcb48 svgShape"></path><path fill="#ffcb48" d="M640.45,197.95h24.71a4.11,4.11,0,0,1,4.11,4.11v6.13a0,0,0,0,1,0,0H636.34a0,0,0,0,1,0,0v-6.13A4.11,4.11,0,0,1,640.45,197.95Z" transform="rotate(180 652.8 203.065)" class="colorffcb48 svgShape"></path><path fill="#ff9a2e" d="M335.14,198.15h37.42a4,4,0,0,1,4,4v7a0,0,0,0,1,0,0H331.1a0,0,0,0,1,0,0v-7A4,4,0,0,1,335.14,198.15Z" transform="rotate(180 353.85 203.665)" class="colorff9a2e svgShape"></path><path fill="#ff9a2e" d="M364.31 253.34a.5.5 0 01-.5-.46l-2.57-39.08a.5.5 0 111-.07l2.57 39.08a.5.5 0 01-.47.53zM345.31 253.11h0a.5.5 0 01-.46-.54l2.63-38.33a.5.5 0 111 .07l-2.63 38.33A.51.51 0 01345.31 253.11zM357.14 268.58a7.86 7.86 0 002.4 7.4c3.52 3.33 5.74 8.49 3 12.93s-13.35 4.39-15.42-1.53c-1.39-4 1-6.37 2.72-7.07a.69.69 0 01.93.86 4 4 0 001 4.42c2.84 2.47 7.77.19 6.48-3.69s-7.95-3.7-6.29-11.65S357.14 268.58 357.14 268.58z" class="colorff9a2e svgShape"></path><rect width="62.82" height="7.15" x="512.06" y="516.92" fill="#ffcb48" transform="rotate(180 543.47 520.495)" class="colorffcb48 svgShape"></rect><path fill="#ffcb48" d="M490.29,530.45H599.45a6.53,6.53,0,0,0-6.53-6.53h-96.1a6.53,6.53,0,0,0-6.53,6.53Z" class="colorffcb48 svgShape"></path><polygon fill="#ffcb48" points="517.78 226.49 485.44 226.49 485.44 224.17 515.46 224.17 515.46 199.54 517.78 199.54 517.78 226.49" class="colorffcb48 svgShape"></polygon><path fill="#ffcb48" d="M485.44 224.16H526.2a0 0 0 010 0v26.2a0 0 0 010 0h-36a4.72 4.72 0 01-4.72-4.72V224.16A0 0 0 01485.44 224.16zM359.93 270.45H349.69a1.81 1.81 0 01-1.77-1.44l-3.34-15.92a1.8 1.8 0 01.51-1.66l4.17-4h11.46l3.92 4.23a1.82 1.82 0 01.34 1.46L361.7 269A1.81 1.81 0 01359.93 270.45zM354.78 207.44a7.66 7.66 0 107.66 7.66A7.66 7.66 0 00354.78 207.44zm0 10.25a2.59 2.59 0 112.59-2.59A2.59 2.59 0 01354.78 217.69z" class="colorffcb48 svgShape"></path><circle cx="363.73" cy="384.32" r="25.25" fill="#fdfeff" class="colorfdfeff svgShape"></circle><path fill="#2a94f4" d="M363.73,410.32a26,26,0,1,1,26-26A26,26,0,0,1,363.73,410.32Zm0-50.5a24.5,24.5,0,1,0,24.5,24.5A24.53,24.53,0,0,0,363.73,359.82Z" class="color295a6e svgShape"></path><path fill="#aacbe8" d="M381.64,376.35c-.59-2.26-1.09-5.91-7.37-5.75-2.81.07-4.34,1.07-5.18,2.19H358.38c-.84-1.12-2.37-2.12-5.19-2.19-6.27-.16-6.78,3.49-7.37,5.75-.52,2-2.35,9.83-2.14,15.8a5.78,5.78,0,0,0,2.16,4.41,4.71,4.71,0,0,0,4.5.22,9.91,9.91,0,0,0,3.65-3.41c.54-.8,1.17-1.72,1.84-2.93a3.39,3.39,0,0,0,1.06.28,3.55,3.55,0,0,0,3.89-3.17,3.75,3.75,0,0,0,0-.67h5.53a3.55,3.55,0,0,0,5.24,3.42c.71,1.27,1.36,2.24,1.92,3.07a9.94,9.94,0,0,0,3.66,3.41,4.71,4.71,0,0,0,4.5-.22,5.85,5.85,0,0,0,2.16-4.41C384,386.18,382.17,378.35,381.64,376.35Z" class="coloraacbe8 svgShape"></path><path fill="#fdfeff" d="M356.62,376.79h-2.43a.26.26,0,0,1-.26-.26V374.1a.26.26,0,0,0-.26-.26h-1.91a.26.26,0,0,0-.26.26v2.43a.26.26,0,0,1-.26.26h-2.43a.26.26,0,0,0-.26.26V379a.26.26,0,0,0,.26.26h2.43a.25.25,0,0,1,.26.25v2.44a.26.26,0,0,0,.26.26h1.91a.26.26,0,0,0,.26-.26v-2.44a.26.26,0,0,1,.26-.25h2.43a.26.26,0,0,0,.26-.26v-1.91A.25.25,0,0,0,356.62,376.79Z" class="colorfdfeff svgShape"></path><circle cx="357.49" cy="387.4" r="2.09" fill="#ffffff" class="colorfff svgShape"></circle><path fill="#ffffff" d="M372 387.4a2.21 2.21 0 11-2.21-2.21A2.21 2.21 0 01372 387.4zM373.72 378a1.54 1.54 0 11-1.54-1.54A1.54 1.54 0 01373.72 378zM376.72 375a1.54 1.54 0 11-1.44-1.63A1.54 1.54 0 01376.72 375zM376.72 381.08a1.54 1.54 0 11-1.54-1.54A1.54 1.54 0 01376.72 381.08zM379.72 378.1a1.54 1.54 0 11-1.44-1.63A1.54 1.54 0 01379.72 378.1z" class="colorfff svgShape"></path><rect width="44.85" height="46.02" x="389.76" y="410.4" fill="#ffbf66" rx="6.47" class="colorff5e4d svgShape"></rect><path fill="#ffffff" d="M403.63,415.56a3,3,0,1,1-2.95-3.23A3.09,3.09,0,0,1,403.63,415.56Z" class="colorfff svgShape"></path><path fill="#2a94f4" d="M400.68,417.23a1.61,1.61,0,0,1-1.53-1.67v-9.92a1.54,1.54,0,1,1,3.06,0v9.92A1.61,1.61,0,0,1,400.68,417.23Z" class="color295a6e svgShape"></path><path fill="#ffffff" d="M425.9,415.68a3,3,0,1,1-2.95-3.22A3.1,3.1,0,0,1,425.9,415.68Z" class="colorfff svgShape"></path><path fill="#2a94f4" d="M423,417.35a1.6,1.6,0,0,1-1.53-1.67v-9.92a1.53,1.53,0,1,1,3.05,0v9.92A1.6,1.6,0,0,1,423,417.35Z" class="color295a6e svgShape"></path><rect width="38.67" height="29.39" x="392.84" y="421.82" fill="#ffffff" rx="2.68" class="colorfff svgShape"></rect><rect width="4.71" height="5.22" x="395.96" y="425.05" fill="#2a94f4" rx="1.17" class="color295a6e svgShape"></rect><rect width="4.71" height="5.22" x="402.96" y="425.05" fill="#2a94f4" rx="1.17" class="color295a6e svgShape"></rect><rect width="4.71" height="5.22" x="409.82" y="425.05" fill="#2a94f4" rx="1.17" class="color295a6e svgShape"></rect><rect width="4.71" height="5.22" x="416.95" y="425.05" fill="#2a94f4" rx="1.17" class="color295a6e svgShape"></rect><rect width="4.71" height="5.22" x="395.96" y="433.93" fill="#2a94f4" rx="1.17" class="color295a6e svgShape"></rect><rect width="4.71" height="5.22" x="402.96" y="433.9" fill="#2a94f4" rx="1.17" class="color295a6e svgShape"></rect><rect width="4.71" height="5.22" x="409.82" y="433.9" fill="#2a94f4" rx="1.17" class="color295a6e svgShape"></rect><rect width="4.71" height="5.22" x="395.96" y="442.8" fill="#2a94f4" rx="1.17" class="color295a6e svgShape"></rect><rect width="4.71" height="5.22" x="402.96" y="442.8" fill="#ffbf66" rx="1.55" class="colorff5e4d svgShape"></rect><rect width="4.71" height="5.22" x="409.82" y="442.8" fill="#ffbf66" rx="1.55" class="colorff5e4d svgShape"></rect><rect width="4.71" height="5.22" x="416.95" y="433.9" fill="#2a94f4" rx="1.17" class="color295a6e svgShape"></rect><rect width="4.71" height="5.22" x="423.53" y="425.05" fill="#2a94f4" rx="1.17" class="color295a6e svgShape"></rect><path fill="#aacbe8" d="M479.82,377.3l-30.23-3.23a6.21,6.21,0,0,0-6.84,5.52l-1.6,15a6.23,6.23,0,0,0,5.52,6.84l21.15,2.25-.89,8.34,9.22-7.45.76.08a6.2,6.2,0,0,0,6.83-5.52l1.6-15A6.21,6.21,0,0,0,479.82,377.3Z" class="coloraacbe8 svgShape"></path><path fill="#2a94f4" d="M466.93,412.49a.48.48,0,0,1-.24-.06.5.5,0,0,1-.26-.49l.84-7.84-20.65-2.21a6.7,6.7,0,0,1-6-7.38l1.59-15a6.71,6.71,0,0,1,7.39-6l30.24,3.22a6.71,6.71,0,0,1,6,7.39l-1.6,15a6.71,6.71,0,0,1-7.39,6l-.54-.06-9.07,7.32A.51.51,0,0,1,466.93,412.49Zm-18-37.95a5.72,5.72,0,0,0-5.67,5.1l-1.6,15a5.72,5.72,0,0,0,5.07,6.29l21.15,2.26a.52.52,0,0,1,.34.18.48.48,0,0,1,.1.37l-.76,7.13,8.29-6.69a.49.49,0,0,1,.37-.1l.75.08a5.72,5.72,0,0,0,6.29-5.08l1.59-15a5.7,5.7,0,0,0-5.07-6.28h0l-30.24-3.23C449.33,374.55,449.12,374.54,448.92,374.54Z" class="color295a6e svgShape"></path><path fill="#d5eaf5" d="M468.83,370.72l-30.23-3.23a6.21,6.21,0,0,0-6.84,5.52l-1.6,15a6.21,6.21,0,0,0,5.52,6.84l21.15,2.26-.89,8.34,9.22-7.45.76.08a6.21,6.21,0,0,0,6.83-5.52l1.6-15A6.21,6.21,0,0,0,468.83,370.72Z" class="colord5eaf5 svgShape"></path><path fill="#2a94f4" d="M455.94,405.91a.48.48,0,0,1-.24-.06.52.52,0,0,1-.26-.5l.84-7.84-20.65-2.2a6.71,6.71,0,0,1-6-7.39l1.6-15a6.71,6.71,0,0,1,7.39-6l30.24,3.23a6.71,6.71,0,0,1,6,7.39l-1.6,15a6.71,6.71,0,0,1-7.39,6l-.54-.06-9.07,7.32A.51.51,0,0,1,455.94,405.91Zm-18-38a5.71,5.71,0,0,0-5.67,5.11l-1.6,15a5.7,5.7,0,0,0,5.07,6.28l21.15,2.26a.5.5,0,0,1,.44.55l-.76,7.14,8.29-6.69a.53.53,0,0,1,.37-.11l.75.08a5.72,5.72,0,0,0,6.29-5.07l1.59-15a5.61,5.61,0,0,0-1.23-4.19,5.71,5.71,0,0,0-3.84-2.1h0L438.54,368A4.17,4.17,0,0,0,437.93,368Z" class="color295a6e svgShape"></path><path fill="#ffbf66" d="M448.63 387.25a1.62 1.62 0 11-1.44-1.78A1.62 1.62 0 01448.63 387.25zM453.35 387.76a1.62 1.62 0 11-1.44-1.78A1.62 1.62 0 01453.35 387.76zM458.26 388.28a1.61 1.61 0 11-1.43-1.78A1.62 1.62 0 01458.26 388.28z" class="colorff5e4d svgShape"></path><path fill="#fdfeff" d="M454.06,371.21a8.78,8.78,0,1,1-7.8-9.67A8.78,8.78,0,0,1,454.06,371.21Z" class="colorfdfeff svgShape"></path><path fill="#ffbf66" d="M444.38,375.37a1,1,0,0,1-.81-.42l-4-5.54a1,1,0,0,1,1.63-1.16l3.11,4.33,4.69-7.41a1,1,0,0,1,1.7,1.07l-5.5,8.66a1,1,0,0,1-.81.47Z" class="colorff5e4d svgShape"></path><path fill="#3b2b5b" d="M106.29,536c.57-.37-.28-2.76-1-4,.08.45.15,1-.39.7a4.45,4.45,0,0,1-1.8-2.94,4.16,4.16,0,0,0-1.35.88C101.31,531,105.87,536.25,106.29,536Z" class="color3b2b5b svgShape"></path><path fill="#ffbf66" d="M104.88,532.67c.54.33,1,.18.46-.6a6.8,6.8,0,0,1-.75-1.54c-.13-.4.42-1.26.42-1.26l-.68-.22s-1.11.63-1.25.68A4.45,4.45,0,0,0,104.88,532.67Z" class="colorff97a6 svgShape"></path><path fill="#30193b" d="M119.14,463.84c-5.42,5.77-.64,31.75-.64,31.75s-14.66,32.54-14.41,33.06l1.69,2.47c.08.16,16.07-19.5,22.8-28.79,3.17-4.39,10.8-21.38,11.8-34.48.33-4.32.56-7.73.71-10C141.43,452.83,122.71,460,119.14,463.84Z" class="color30193b svgShape"></path><path fill="#3b2b5b" d="M167.7,537.43c0-.66-2.67-.75-4.1-.52.45.08,1,.24.51.62a4.48,4.48,0,0,1-3.4.6,4,4,0,0,0,.33,1.57C161.26,540.24,167.7,537.93,167.7,537.43Z" class="color3b2b5b svgShape"></path><path fill="#ffbf66" d="M164.11,537.53c.5-.38.52-.84-.39-.65A6.93,6.93,0,0,1,162,537c-.42,0-.78-.54-.78-.54l-.69.24s.18,1.27.17,1.42A4.48,4.48,0,0,0,164.11,537.53Z" class="colorff97a6 svgShape"></path><path fill="#3b2b5b" d="M115.63,473.92c2.11,10.52,25,22.69,25,22.69L160,536.15a.77.77,0,0,0,1.06.79l1.66-.69a.67.67,0,0,0,.38-.34c1.56-2.89-8.26-33.79-11.24-45.92-1.07-4.32-17-25.79-17-25.79s-1.26-8.65-2.17-9.63c-2.06-.06-1.7-4.11-8,.44C118.63,459.43,113.31,462.39,115.63,473.92Z" class="color3b2b5b svgShape"></path><path fill="#ffbf66" d="M137.58,418.22s-1.93-5.37-6.88-3.24-6,5.15-6,5.15-8.56.23-13.13,6.89c-1.35,2-6.79,11.78,2.3,18,.45.31,7.56-.38,12.36-2.72S141.45,434,141.45,434,144.67,417.75,137.58,418.22Z" class="colorc43b72 svgShape"></path><path fill="#2a94f4" d="M148,434.77a80.43,80.43,0,0,0-16.67-4.29c-4.12-.62-6.83-.92-6.83-.92l-1.93,6.09s1.33,18.23.39,20.45c8.81,4.17,18.2,1,18.75-.13,1-1.78,2.45-8.21,3.49-11.52C145.83,442.31,148,434.77,148,434.77Z" class="color357a5f svgShape"></path><path fill="#296843" d="M168.79,441.49s.5,4.39-2.57,5.24c-9.65,2.67-21.56-3-21.56-3S166.56,436.66,168.79,441.49Z" class="color29684d svgShape"></path><path fill="none" d="M142.93,456.37l-.55-.11A1.76,1.76,0,0,0,142.93,456.37Z"></path><path fill="#ffbf66" d="M135.27,426.49s-1.1,4.81-.91,5.38,1,1.4,1.72.25.64-5.47.64-5.47Z" class="colorff97a6 svgShape"></path><path fill="#c95d77" d="M136.59,429.81a14.22,14.22,0,0,1,.18-1.78L135,428s-.14.61-.32,1.46A1.25,1.25,0,0,0,136.59,429.81Z" class="colorc95d77 svgShape"></path><path fill="#ffbf66" d="M138.92,425.79c.32-.77-.17-3.79-.17-3.79-.4-1.82-3.29-1.41-4-1.27a4.86,4.86,0,0,0-2.16.94c-.75.59-.68,1.73-.65,2.58a6,6,0,0,0,1,3,3.89,3.89,0,0,0,2.69,1C137.93,428.11,138.55,427.46,138.92,425.79Z" class="colorff97a6 svgShape"></path><path fill="#2a94f4" d="M124.46,429.56s-1.71-.1-6.06,5.62a58,58,0,0,0-6.85,12h6.34s4.49-12.13,7-13.27S124.46,429.56,124.46,429.56Z" class="color357a5f svgShape"></path><path fill="#ffbf66" d="M136.93,419.35l.61.72a5.56,5.56,0,0,1-4.23,3.47,5.33,5.33,0,0,0-4.06,3.95s-2.83-4.69.93-6.92A8.59,8.59,0,0,1,136.93,419.35Z" class="colorc43b72 svgShape"></path><path fill="#d84c8c" d="M141.63,421.69a6,6,0,0,0-1.45-2.47,3,3,0,0,0-1.2-.7,3.82,3.82,0,0,0-1.39-.12h-.12l-.05-.13a6.3,6.3,0,0,0-2.55-3,4,4,0,0,0-1.87-.5l-.49,0a4.17,4.17,0,0,0-.49.08,4.69,4.69,0,0,0-1,.28,14.09,14.09,0,0,0-3.53,2,8.44,8.44,0,0,0-2.52,3.05l-.08.19h-.19a20.43,20.43,0,0,0-7.27,1.88,16.36,16.36,0,0,0-3.21,2,15.63,15.63,0,0,0-2.66,2.73,14,14,0,0,1,2.5-2.92,14.26,14.26,0,0,1,3.19-2.17,18.63,18.63,0,0,1,3.6-1.43,20.45,20.45,0,0,1,3.83-.66l-.26.2a8.45,8.45,0,0,1,2.69-3.35,14.38,14.38,0,0,1,3.71-2.07,5.28,5.28,0,0,1,1-.3,5.07,5.07,0,0,1,.54-.09H133a4.24,4.24,0,0,1,2.11.61,6.78,6.78,0,0,1,2.63,3.33l-.18-.11a3.85,3.85,0,0,1,1.5.21,3.21,3.21,0,0,1,1.25.82A5.72,5.72,0,0,1,141.63,421.69Z" class="colord84c8c svgShape"></path><rect width="34.5" height="34.5" x="130.27" y="432.41" fill="#aacbe8" rx="6.16" transform="rotate(13.14 147.57 449.812)" class="coloraacbe8 svgShape"></rect><path fill="#ffffff" d="M147.61,460a10.28,10.28,0,0,1-2.38-.26,9.69,9.69,0,0,1-6.29-4.59,12.27,12.27,0,0,1-1.11-9.39,1,1,0,0,1,1.23-.7,1,1,0,0,1,.7,1.23,10.27,10.27,0,0,0,.9,7.84,7.74,7.74,0,0,0,5,3.66,8.55,8.55,0,0,0,6.12-.86,1,1,0,0,1,1.4.21,1,1,0,0,1-.22,1.4A9.53,9.53,0,0,1,147.61,460Z" class="colorfff svgShape"></path><path fill="#ffffff" d="M141.26 448.59a1 1 0 01-.9-.55L139 445.35c-1.18.9-2.24 1.74-2.39 1.88a1 1 0 01-1.41-.07 1 1 0 010-1.4c.25-.23 2.53-2 3.49-2.74a1 1 0 01.84-.19 1 1 0 01.67.53l1.9 3.78a1 1 0 01-.45 1.35A1 1 0 01141.26 448.59zM156.24 454.35a1.26 1.26 0 01-.27 0 1 1 0 01-.69-1.23 10.28 10.28 0 00-.91-7.84 7.75 7.75 0 00-5-3.66 8.46 8.46 0 00-6.11.87 1 1 0 01-1.4-.21 1 1 0 01.21-1.4c1.77-1.31 5.11-1.83 7.76-1.21a9.67 9.67 0 016.28 4.59 12.23 12.23 0 011.11 9.39A1 1 0 01156.24 454.35z" class="colorfff svgShape"></path><path fill="#ffffff" d="M155.68,456.51l-.22,0a1,1,0,0,1-.67-.53l-1.9-3.78a1,1,0,0,1,.44-1.35,1,1,0,0,1,1.35.45L156,454c1.17-.91,2.24-1.75,2.39-1.88a1,1,0,0,1,1.41.06,1,1,0,0,1-.05,1.4c-.24.23-2.52,2-3.49,2.74A1,1,0,0,1,155.68,456.51Z" class="colorfff svgShape"></path><path fill="#2a94f4" d="M128.58,442.13s-15.05,3.49-16.55,4.42,0,5.05,6.12,5.68S134.16,450.14,128.58,442.13Z" class="color357a5f svgShape"></path><path fill="#ffbf66" d="M129.48,444.11s-.89-2.33-.11-3.42a7.32,7.32,0,0,1,3-2c.54.1-1.26,1.26-1.26,1.26s2.16-1.46,2.51-1c.17.21-.56.75-.56.75s.2-.32.45.07-1.24,1.49-1.59,1.94-.26,2.32-.93,3.26C130.71,445.29,129.91,445,129.48,444.11Z" class="colorff97a6 svgShape"></path><path fill="#4e9374" d="M124.37,451.8a12.9,12.9,0,0,0,3-1.31,5.5,5.5,0,0,0,2.19-2.27,4.3,4.3,0,0,0,.19-3.06,10.12,10.12,0,0,0-1.44-2.86l.31.12-8.33,2c-1.39.32-2.78.65-4.16,1a34.5,34.5,0,0,0-4.12,1.16,13.23,13.23,0,0,1,2-.82c.68-.22,1.36-.46,2-.66,1.37-.4,2.75-.79,4.13-1.17,2.77-.71,5.53-1.44,8.32-2.06h0a.3.3,0,0,1,.3.12A11.11,11.11,0,0,1,130.3,445a4.59,4.59,0,0,1-.33,3.39,5.68,5.68,0,0,1-2.45,2.31A11.52,11.52,0,0,1,124.37,451.8Z" class="color4e9374 svgShape"></path><path fill="#ffbf66" d="M168.35,442.22s1.6-2.8.8-3.54-1.88-2.13-2.28-1.87.52,1,.52,1-.86-.82-1.08-.77-.1.4-.1.4.09-.19-.14.14.83,1.88,1.12,2.28-.7,2.2-.15,3C167.24,443.2,167.94,443,168.35,442.22Z" class="colorff97a6 svgShape"></path><path fill="#3b2b5b" d="M750.43,540.6c-1.6-1,.28-3,1-4.41-.08.49-.14,1.13.39.77a5,5,0,0,0,1.81-3.23,4.12,4.12,0,0,1,1.34,1C755.41,535.14,750.88,540.86,750.43,540.6Z" class="color3b2b5b svgShape"></path><path fill="#ffbf66" d="M751.84,537c-.53.36-1,.19-.46-.66a7.75,7.75,0,0,0,.75-1.69c.13-.44-.42-1.39-.42-1.39l.69-.24s1.1.7,1.25.75A5,5,0,0,1,751.84,537Z" class="colorff97a6 svgShape"></path><path fill="#30193b" d="M724.87,465.6c2.6,3,2.57,11.9,1.89,19.68a154.93,154.93,0,0,1-2.23,15.64s28.35,31,28.1,31.62l-1.69,2.72c-.07.17-27.68-16.09-34.41-26.31-3.17-4.82-8.46-22.61-9.46-37-.34-4.76-2.9-9.39-3.05-11.84C703.68,454.54,721.3,461.41,724.87,465.6Z" class="color30193b svgShape"></path><path fill="#3b2b5b" d="M667.49,537.77c.73-1.51,2.8,0,4.1.6-.46,0-1,0-.68.51.53.79,2.22,1.79,3.07,1.59a4.56,4.56,0,0,1-.8,1.57C672.81,542.55,667.25,538.27,667.49,537.77Z" class="color3b2b5b svgShape"></path><path fill="#ffbf66" d="M670.91,538.88c-.36-.54-.24-1,.57-.56a6.3,6.3,0,0,0,1.6.61c.41.1.92-.36.92-.36l.59.46s-.57,1.28-.61,1.44C673.13,540.67,671.44,539.67,670.91,538.88Z" class="colorff97a6 svgShape"></path><path fill="#3b2b5b" d="M728.32,477.05c-4.76,12-25.87,24.77-25.87,24.77s-4.9,9-6.66,12.32c-2.1,3.9-16.44,22.09-19.13,25.73a.71.71,0,0,1-1,.15l-1.79-1.24a.82.82,0,0,1-.38-.38c-1.55-3.18,14-30.67,19.74-42.91,2.08-4.41,17-28.35,17-28.35s1.26-9.51,2.17-10.59c2.06-.07,2.51-7.61,8-1.79C726.58,461.21,733.08,465.08,728.32,477.05Z" class="color3b2b5b svgShape"></path><path fill="#ffbf66" d="M710.41,410c1.72-1.12,5.14-.49,6.7.66a12.35,12.35,0,0,1,4.32,5.25,1.88,1.88,0,0,1,.83-.1c.89,0,1.31,1.09,1.34,2.14a10.1,10.1,0,0,1-.64,3.8l-.13.41c-.4,2.69-5.42,3-7.92,1.48a4.4,4.4,0,0,1-2.16-1.53c-.62-.83-1.31-2.47-.5-3.33C712.06,418.56,706.44,412.52,710.41,410Z" class="colorff5e4d svgShape"></path><path fill="#ffe5b0" d="M704.35,432.72a1.85,1.85,0,0,1,1.21-1.48c3.41-1.25,10.68-3.37,18.29-2.18a17.42,17.42,0,0,1,8,4.05s-7,21.16-6.78,23.72c-4.63,2.06-18.21.83-20.57-.29a1.38,1.38,0,0,0,0-.61C702.19,448.75,703.79,436.43,704.35,432.72Z" class="colorffe5b0 svgShape"></path><path fill="#ffbf66" d="M719.73,423.47s.82,5.21.46,5.8a1.45,1.45,0,0,1-2.5.06c-.8-1.31-.06-5.86-.06-5.86Z" class="colorff97a6 svgShape"></path><path fill="#c95d77" d="M720.21,427.27a3.1,3.1,0,0,1-2.88.21,20.87,20.87,0,0,1,.14-2.82h2.43C720,425.41,720.13,426.4,720.21,427.27Z" class="colorc95d77 svgShape"></path><path fill="#ffbf66" d="M713.89,423.41a9.19,9.19,0,0,1-.31-2.75,2.83,2.83,0,0,1,2.78-3.06,11.34,11.34,0,0,1,3.69.68c.87.53.94,1.75,1,2.65a6.58,6.58,0,0,1-.64,3.33,4.16,4.16,0,0,1-2.72,1.42C715.22,425.74,714.48,425.13,713.89,423.41Z" class="colorff97a6 svgShape"></path><path fill="#ffe5b0" d="M741.64,450.38c-.56,4.94-6.09-.6-6.09-.6l-6.5-13.61,2.66-3.16S742.45,443.33,741.64,450.38Z" class="colorffe5b0 svgShape"></path><path fill="#ffd9a1" d="M699,450.15c0,5,6.5-2.61,6.5-2.61l2.27-13.14-2.9-2.72S699,438,699,450.15Z" class="colorffd9a1 svgShape"></path><path fill="#ffe5b0" d="M741.18,453c-1.89,4.6-12.78,11.52-17.37,8.26-1.71-1.21-1.81-3.83-1.81-3.83l13.06-7.83S743.71,446.84,741.18,453Z" class="colorffe5b0 svgShape"></path><path fill="#ffd9a1" d="M704.34,432.78a2,2,0,0,1,1.27-1.56A43.06,43.06,0,0,1,714,429.1l.73-.1s-3.17,4.41-3.27,12c-.08,7,2.21,16.91,2.21,16.91l-.54,0c-4-.22-7.54-.77-8.64-1.3a1.38,1.38,0,0,0,0-.61C702.2,448.79,703.77,436.56,704.34,432.78Z" class="colorffd9a1 svgShape"></path><path fill="#ffd9a1" d="M690.24,442.27c4.22,1.72,7.54,3.48,10.35,4.79,7.55,3.5-.06,5.32-2.66,5-3.1-.38-10.16-2.05-12.25-2.47s-2.34-5-2.34-5S686.67,440.81,690.24,442.27Z" class="colorffd9a1 svgShape"></path><path fill="#ffbf66" d="M712.18,419.31a.05.05,0,1,1,0,.1A.05.05,0,1,1,712.18,419.31Z" class="colorff5e4d svgShape"></path><rect width="36.28" height="36.28" x="685.14" y="429.93" fill="#aacbe8" rx="4.2" transform="rotate(-5 703.508 448.13)" class="coloraacbe8 svgShape"></rect><circle cx="703.25" cy="447.81" r="12.28" fill="#ffffff" transform="rotate(-49.79 703.303 447.813)" class="colorfff svgShape"></circle><path fill="#ffbf66" d="M708.57,441.46h0l-.11-1.21-10.23,2.1.17,1.39.84,7.84a3,3,0,0,0-2.09-.31,2.14,2.14,0,1,0,.8,4.08c1.44-.29,2.44-1.43,2.22-2.55a1.43,1.43,0,0,0-.08-.22l-.75-7,8.72-1.55.51,5.85a2.91,2.91,0,0,0-2.17-.36,2.14,2.14,0,1,0,3,1.52,1.66,1.66,0,0,0-.06-.16h0Z" class="colorff5e4d svgShape"></path><path fill="#ffbf66" d="M697.28,455.66a3.18,3.18,0,0,1-1.42-.32,2,2,0,0,1-.64-3.28,3.34,3.34,0,0,1,1.87-1,3.45,3.45,0,0,1,1.84.14l-1-8.78a.24.24,0,0,1,.2-.27L708.4,440a.28.28,0,0,1,.2,0,.24.24,0,0,1,.1.18l.1,1.12a.29.29,0,0,1,0,.09l.83,9.39a.25.25,0,0,1,0,.08.13.13,0,0,1,0,.06,2.08,2.08,0,0,1-.54,1.8,3.34,3.34,0,0,1-1.87,1,3.39,3.39,0,0,1-2.13-.26,2.09,2.09,0,0,1-1.18-1.47,2.11,2.11,0,0,1,.54-1.8,3.46,3.46,0,0,1,3.81-.86l-.45-5.13-8.23,1.46.73,6.8a.53.53,0,0,1,.07.2,2.66,2.66,0,0,1-2.41,2.84A3.42,3.42,0,0,1,697.28,455.66Zm.5-4.2a2.88,2.88,0,0,0-.59.06,2.74,2.74,0,0,0-1.59.87,1.63,1.63,0,0,0-.43,1.38,1.6,1.6,0,0,0,.91,1.12,2.82,2.82,0,0,0,1.81.21c1.31-.25,2.21-1.27,2-2.26a.76.76,0,0,0,0-.11l0-.07-.77-7.09a.24.24,0,0,1,.2-.27l8.73-1.55a.29.29,0,0,1,.2.05.23.23,0,0,1,.09.18l.51,5.85a.22.22,0,0,1-.12.23.24.24,0,0,1-.26,0,2.75,2.75,0,0,0-2-.33,2.81,2.81,0,0,0-1.59.88,1.52,1.52,0,0,0,.48,2.49,3,3,0,0,0,3.4-.66,1.62,1.62,0,0,0,.43-1.38l0-.13a.28.28,0,0,1,0-.2l-.81-9.16a.24.24,0,0,1,0-.09l-.08-.92-9.73,2,.14,1.16.84,7.85a.24.24,0,0,1-.11.23.29.29,0,0,1-.27,0A2.65,2.65,0,0,0,697.78,451.46Z" class="colorff5e4d svgShape"></path><path fill="#ffbf66" d="M683.87 444.79a3.53 3.53 0 01-.78-2 4.83 4.83 0 011.06-2.12c.35-.11-.32 1.13-.32 1.13s.77-1.53 1.12-1.39c.16.06-.08.61-.08.61s0-.25.28-.11-.23 1.26-.29 1.64 0 1.47-.05 2.22C684.78 445.05 684.42 445.19 683.87 444.79zM723.18 457.89s.11-2.1-.55-2.66-1.8-.89-2.17-.47.84.35.84.35-1 .16-1.07.35.62.23.62.23-.53 0-.64.31.7.24 1 .48.5 1.7 1.11 2.21C722.55 458.88 723.05 458.58 723.18 457.89z" class="colorff97a6 svgShape"></path><path fill="#ff8076" d="M713.58,422.87a2.63,2.63,0,0,1-1-.74,3.74,3.74,0,0,1-.69-1,3.1,3.1,0,0,1-.29-1.25,3,3,0,0,1,.31-1.28l.06.39a13.42,13.42,0,0,1-1.72-2,10,10,0,0,1-1.23-2.33,4.46,4.46,0,0,1-.23-2.66,3.47,3.47,0,0,1,1.57-2.05,3.76,3.76,0,0,0-1.12,2.14,4.5,4.5,0,0,0,.42,2.33,14.83,14.83,0,0,0,2.77,4.07h0a.35.35,0,0,1,0,.38,2.68,2.68,0,0,0-.32,1,2.81,2.81,0,0,0,.13,1.07,4.62,4.62,0,0,0,.47,1A3.2,3.2,0,0,0,713.58,422.87Z" class="colorff8076 svgShape"></path><path fill="#2a94f4" d="M593.17 411.54a2.37 2.37 0 00-2.59-.07c-1.17.88-1.75 4.94-.6 6.4S593.17 411.54 593.17 411.54zM595.77 412.69s2.14 1.13 1.9 3.05-1.17 3.59-2.43 3.69S595.77 412.69 595.77 412.69z" class="color295a6e svgShape"></path><path fill="#3b2b5b" d="M578.89,536.28c-.46-1.63,2.11-1.58,3.55-2.16-.42.32-.82.76-.11.9,1,.2,3.25-.31,3.85-1.1a4.7,4.7,0,0,1,.46,1.81C586.69,536.41,579.25,537.53,578.89,536.28Z" class="color3b2b5b svgShape"></path><path fill="#ffbf66" d="M582.33,535c-.71-.14-.31-.58.11-.9.9-.35,1.65-.62,1.82-.71a1.06,1.06,0,0,0,.52-.66l.46-.13s-.25.66.64.91c.15,0,.22.24.3.39C585.58,534.71,583.37,535.22,582.33,535Z" class="colorff97a6 svgShape"></path><path fill="#3b2b5b" d="M621.78,537.22c.12-.79-2.61-3.06-3.68-3.48.33.28.8.85.31,1.09a2.55,2.55,0,0,1-2.65-.88,6.83,6.83,0,0,0-.14,1.95C615.65,536.61,621.5,539,621.78,537.22Z" class="color3b2b5b svgShape"></path><path fill="#ffbf66" d="M619.26,535.46c.48-.24-.67-1.34-1-1.61a7.4,7.4,0,0,0-1.2-.68,1.11,1.11,0,0,1-.44-.62l-.54-.06a1.31,1.31,0,0,1-.15,1,1.69,1.69,0,0,0-.17.45C616.26,534.7,618.55,535.81,619.26,535.46Z" class="colorff97a6 svgShape"></path><path fill="#0e538c" d="M599.23,444.42a42.35,42.35,0,0,1,7.2,10.29c4.56,9.79,5,14.79,6.37,24.5,1.73,12,4,53.75,4,53.75l-2.53.18-19.76-67.53-7.9,66.73s-2,1.78-2.25.14c-1.39-11-6.52-60.67-6.34-66.17.36-11.56,2.26-18,4-21.22C584.13,445.53,595.16,445.85,599.23,444.42Z" class="color7f65c1 svgShape"></path><path fill="#0e538c" d="M599.23,444.42a42.35,42.35,0,0,1,7.2,10.29c4.56,9.79,5,14.79,6.37,24.5,1.73,12,4,53.75,4,53.75l-1.22.09s-5.21-34.91-7.52-46.08c-4-19.57-16.8-41.54-16.8-41.54S597.46,445,599.23,444.42Z" class="color6851af svgShape"></path><path fill="#ffbf66" d="M604.76,426.36a70.37,70.37,0,0,0-14.87-3.91,43.74,43.74,0,0,0-6.51-.49l-1.69,5.31s1.17,15.88.35,17.82c7.67,3.63,17.3.83,17.78-.11.84-1.56,1.71-6.08,2.62-9C603,434.15,604.76,426.36,604.76,426.36Z" class="colorff5e4d svgShape"></path><path fill="#f94538" d="M627.89,441.37s-.17,3.84-2.93,4.16c-8.67,1-18.14-5.54-18.14-5.54S626.62,436.91,627.89,441.37Z" class="colorf94538 svgShape"></path><path fill="none" d="M599.47,445.33l-.48-.1A1.91,1.91,0,0,0,599.47,445.33Z"></path><path fill="#ffbf66" d="M592.26,419.32s-.69,4.28-.36,4.76a1.38,1.38,0,0,0,2.27,0c.72-1.07,0-4.8,0-4.8Z" class="colorff97a6 svgShape"></path><path fill="#c95d77" d="M594.45,421.56a8.89,8.89,0,0,1,0-1.74l-2.41.36s.08.12,0,.87A4.09,4.09,0,0,0,594.45,421.56Z" class="colorc95d77 svgShape"></path><path fill="#ffbf66" d="M594.72,419.51a11.73,11.73,0,0,0,1.11-3.12c.28-1.6-2.19-2.22-2.8-2.34a4.31,4.31,0,0,0-2,.05c-.8.23-1.13,1.17-1.38,1.87a5.34,5.34,0,0,0-.23,2.77,3.47,3.47,0,0,0,1.84,1.72C593.16,421.05,593.87,420.73,594.72,419.51Z" class="colorff97a6 svgShape"></path><path fill="#ffbf66" d="M584.62,422.34s-1.65-1.95-6.93,3.53a14,14,0,0,0-4.2,9.27l4.4.83s3.81-7.93,6.14-8.5S584.62,422.34,584.62,422.34Z" class="colorff5e4d svgShape"></path><path fill="#2a94f4" d="M591,413.92a2.71,2.71,0,0,1,2.21.8c1.19,1,4.87,3.09,7.59,1.08,3.34-2.45,2.14-4.14,2.14-4.14s0,.8-1.58.8-4.11-2.62-6.13-2.58C592.85,409.92,591.77,410.88,591,413.92Z" class="color295a6e svgShape"></path><path fill="#417e8c" d="M589.43,414.24a5.65,5.65,0,0,1,.35-2,2.77,2.77,0,0,1,.55-.91,1.76,1.76,0,0,1,1-.54h.89l-.31.19a3.06,3.06,0,0,1,2.21-1.47,5.55,5.55,0,0,1,2.54.27,5.65,5.65,0,0,1,2.15,1.28,7,7,0,0,0,.91.74,6.65,6.65,0,0,0,1.06.55,4.81,4.81,0,0,1-2.25-.93,5.85,5.85,0,0,0-2.06-1,5.5,5.5,0,0,0-2.23-.18,2.56,2.56,0,0,0-1.73,1l0,.05a.34.34,0,0,1-.28.14l-.85-.06h0a1.68,1.68,0,0,0-1.27,1A7.24,7.24,0,0,0,589.43,414.24Z" class="color417e8c svgShape"></path><rect width="36.84" height="36.84" x="589.38" y="421.78" fill="#aacbe8" rx="4.71" transform="rotate(2.91 607.224 439.791)" class="coloraacbe8 svgShape"></rect><path fill="#ffffff" d="M620.59,440.27a12.47,12.47,0,1,1-11.82-13.09A12.45,12.45,0,0,1,620.59,440.27Z" class="colorfff svgShape"></path><polygon fill="#ffbf66" points="604.74 432.68 604.06 446.09 615.67 439.96 604.74 432.68" class="colorff5e4d svgShape"></polygon><path fill="#ffbf66" d="M604.06,446.34a.25.25,0,0,1-.14,0,.27.27,0,0,1-.11-.22l.68-13.41a.26.26,0,0,1,.14-.21.25.25,0,0,1,.25,0l10.92,7.28a.25.25,0,0,1,.12.22.26.26,0,0,1-.14.21l-11.6,6.13Zm.91-13.21-.64,12.53,10.85-5.73Z" class="colorff5e4d svgShape"></path><path fill="#ffbf66" d="M627.42,441.74s1.67-2.79.88-3.54-1.85-2.18-2.26-1.94.5,1,.5,1-.84-.84-1.07-.79-.1.4-.1.4.09-.19-.15.13.8,1.91,1.08,2.32-.74,2.2-.21,3.05C626.29,442.7,627,442.53,627.42,441.74Z" class="colorff97a6 svgShape"></path><path fill="#ffbf66" d="M587.63,423.65s-13.1,9.55-14,10.81,1.55,3.76,6.68,2.1S594.89,428.07,587.63,423.65Z" class="colorff5e4d svgShape"></path><path fill="#ffbf66" d="M589.36,425.53s-.63-1.73,0-2.52a5.25,5.25,0,0,1,2.2-1.46c.4.08-.94.91-.94.91s1.61-1,1.86-.72c.12.15-.42.55-.42.55s.15-.24.33,0-.92,1.09-1.19,1.42-.21,1.71-.71,2.39C590.26,426.4,589.67,426.22,589.36,425.53Z" class="colorff97a6 svgShape"></path><path fill="#ff766c" d="M580.29,436.56a21.24,21.24,0,0,0,4.13-2.2,18.45,18.45,0,0,0,3.53-3,6,6,0,0,0,1.84-3.94c0-1.46-1.21-2.59-2.47-3.37h.41l-7.09,5.14-3.54,2.59a35.84,35.84,0,0,0-3.44,2.7,29.22,29.22,0,0,1,3.22-3c1.13-.94,2.28-1.85,3.42-2.75,2.3-1.82,4.65-3.55,7-5.3a.36.36,0,0,1,.42,0,6.81,6.81,0,0,1,1.87,1.61,3.9,3.9,0,0,1,.9,2.36,6.49,6.49,0,0,1-2.09,4.37,19.18,19.18,0,0,1-3.77,2.91A18.87,18.87,0,0,1,580.29,436.56Z" class="colorff766c svgShape"></path><path fill="#ffcb48" d="M484.29,420.93c-.3.13-.54.35-.84.48a4.3,4.3,0,0,0-.75.36,1.89,1.89,0,0,0-.56.9c0,.1,0,.2,0,.29a.28.28,0,0,0,0,.12,1.61,1.61,0,0,0,0,1,3.12,3.12,0,0,0,.28.93c.14.48-1.3,1.87-.84,5.35.76,2.26,4.08,4.12,6.39,2.6,1-.68.48-3.35.43-4.28a22.87,22.87,0,0,0-1.33-6.46,7.22,7.22,0,0,1,1.52,2.44c0,.12.23.08.21,0C488.48,422.87,486.34,420.07,484.29,420.93Z" class="colorffcb48 svgShape"></path><path fill="#3b2b5b" d="M494.19,537.13c-.46-.4.06-2.53.47-4,0,.5.08,1.06.6.58.76-.72,1.66-2.74,1.42-3.65a4.12,4.12,0,0,1,1.61.63C498.82,531,495.12,537.9,494.19,537.13Z" class="color3b2b5b svgShape"></path><path fill="#ffbf66" d="M495.26,533.72c-.52.48-.61-.08-.6-.58.26-.91.5-1.65.53-1.83a1,1,0,0,0-.18-.77l.6-.94s-.09,1.06.61.49c.12-.09.3,0,.46,0C496.92,531,496,533,495.26,533.72Z" class="colorff97a6 svgShape"></path><path fill="#3b2b5b" d="M532.94,506.71c-.6.11-1.91-1.65-2.78-2.9.39.33.87.62.83-.09-.07-1-1.06-3-1.91-3.42a4.21,4.21,0,0,1,1.51-.84C531.18,499.27,534.13,506.49,532.94,506.71Z" class="color3b2b5b svgShape"></path><path fill="#ffbf66" d="M531,503.72c0,.71-.44.42-.83.09-.53-.77-.95-1.43-1.07-1.57-.32-.35-2.64.12-2.64.12l-1.1-2.24s3.44,1.46,3.45.55c0-.15.16-.25.28-.37C529.93,500.69,530.92,502.68,531,503.72Z" class="colorff97a6 svgShape"></path><path fill="#ffbf66" d="M496.16,449.88a44.62,44.62,0,0,1,6,8.87c3,6,4.57,10.29,5,19.29.14,3.12.81,15,.81,15s12.42,4.43,17.69,7.07c1.09.54,2.6,1.94,1.13,2.21-4.8.89-28.64-.63-30.37-7.78-3-12.62-6-25.33-6-25.33l-1.06,28.3,6.27,33.06-.43.85c.13.18-12.59-19.33-17-37.24-2.59-10.43-3.62-23.38-3.14-26.23,1.89-11.2,3.8-13.95,3.95-16.8C481,451.72,492.7,451.93,496.16,449.88Z" class="colorff97a6 svgShape"></path><path fill="#3b2b5b" d="M478.93,451.57s-4.85,9-4.79,18.19,4.06,25.45,4.06,25.45,13.68-1,20-2.32l-.71-9.78,3,9.4,7.39-.85s.89-17-1.77-25.8-6.31-13.38-10.93-16.67Z" class="color3b2b5b svgShape"></path><path fill="#30193b" d="M497.48,483.11l3,9.4,7.39-.85s.89-17-1.77-25.8-6.31-13.38-10.93-16.67l-6,.88s3.57,8.15,5.22,12.9C496.23,468.1,497.48,483.11,497.48,483.11Z" class="color30193b svgShape"></path><path fill="#ffbf66" d="M487.37 394.19c.14-.11-.21-.17-.28-.32-.17-.4-.58-1-.91-1.76 0 0-.53-2.76-.84-2.63s-.08.54-.08.54a.28.28 0 00-.35.2 12 12 0 00.18 2.83s-.58-.47-.68-.24 1 1.19 1.47 1.25a1.4 1.4 0 01.7.42C486.8 394.75 487.12 394.4 487.37 394.19zM458.06 408.73a.37.37 0 01-.46-.06L456 407s-.86-.91-.71-1.6c0 0 .18-.17.36.17 0 0-.32-1-.08-1.2s.53.13.53.13a.29.29 0 01.32-.25 4.65 4.65 0 011.42 1.91s-.21-.71 0-.72.72 1.37.6 1.84a3.34 3.34 0 01.12.8C458.61 408.46 458.35 408.58 458.06 408.73z" class="colorff97a6 svgShape"></path><path fill="#0e538c" d="M494.08,397.73a72.6,72.6,0,0,1,3.09,12.32c.86,5.91-3.76,7.19-4.37,5.53a64.53,64.53,0,0,0-3.08-7.45c-2-3.5-4.51-6.93-5.29-8.62-1-2.24,3.31-6.29,3.31-6.29S492.75,393.45,494.08,397.73Z" class="color6851af svgShape"></path><path fill="#ffbf66" d="M486.34,426.46a27.71,27.71,0,0,1,.69,4.33c-.16.46-.86,1.12-1.41.18s-.47-4.39-.47-4.39Z" class="colorff97a6 svgShape"></path><path fill="#c95d77" d="M486.69,428.12a1.17,1.17,0,0,1-1.49.69,7.74,7.74,0,0,1-.05-1.33l1.37-.13A5.3,5.3,0,0,1,486.69,428.12Z" class="colorc95d77 svgShape"></path><path fill="#ffbf66" d="M482.62,426.09c-.22-.63.05-3,.72-3.47,1.29-.82,4.38.06,4.93.52s.47,1.42.39,2.1a4.85,4.85,0,0,1-1,2.39,3.55,3.55,0,0,1-2.37.67C483.32,428,482.83,427.45,482.62,426.09Z" class="colorff97a6 svgShape"></path><path fill="#d3e7f2" d="M475.33,432.82a32.41,32.41,0,0,1,10.16-2.92,44.06,44.06,0,0,1,5-.44,16.74,16.74,0,0,1,6.4,1.14s-.76,17.2-.73,19.28c-3.47,2.59-3.47,2.54-7.24,3.24-5.81,1.08-9.3.61-10.28-.43A99.82,99.82,0,0,1,476.72,442,81.06,81.06,0,0,0,475.33,432.82Z" class="colord3e7f2 svgShape"></path><path fill="#0e538c" d="M462.06,421.89c-1.72-5.56,7.57,2.05,7.57,2.05s4.37,8.14,10.75,7c2.11-.37-3.33,6.64-3.33,6.64S464.26,429,462.06,421.89Z" class="color7f65c1 svgShape"></path><path fill="#0e538c" d="M468.88,428.92c-3.47.86-15.79-14.29-11.84-19.79a3.21,3.21,0,0,1,3.61-1.27S474.47,427.52,468.88,428.92Z" class="color7f65c1 svgShape"></path><path fill="#0e538c" d="M497.32 412.6c.88 12 .75 18-.57 21.23-.62 1.51-4.43-1.05-4.68-3.35 2.68-4.65.29-15.71.57-17.8C492.84 411.2 497 408.83 497.32 412.6zM484.45 429.47a23.57 23.57 0 003.77-.88l1 .92-5.33.65z" class="color6851af svgShape"></path><path fill="#d3e7f2" d="M478.8,450.78c.14.36-2.62,6.48-3.4,10,0,0,9.74,3.79,18.55.8s8.52-4.46,8.52-4.46a24.34,24.34,0,0,0-7.05-8.48Z" class="colord3e7f2 svgShape"></path><path fill="#0e538c" d="M496.16,449.26c.07-3.69.73-18.65.73-18.65a16.63,16.63,0,0,0-6.4-1.15,44.06,44.06,0,0,0-5,.44,32.41,32.41,0,0,0-10.16,2.92,81.06,81.06,0,0,1,1.39,9.16,97.5,97.5,0,0,0,1.74,9.95,85.61,85.61,0,0,0-3.06,8.86s9.74,3.79,18.55.8,8.52-4.46,8.52-4.46A23.82,23.82,0,0,0,496.16,449.26Z" class="color7f65c1 svgShape"></path><path fill="#0e538c" d="M496.16,449.26c.07-3.69.73-18.65.73-18.65a16.63,16.63,0,0,0-6.4-1.15c-1,0-1.94.09-2.88.18-.19,0,1.66,5.34,2.3,10.75a52.26,52.26,0,0,1,0,10.52l4,10.68,1.56-.55c7.22-2.62,7-3.91,7-3.91A23.82,23.82,0,0,0,496.16,449.26Z" class="color6851af svgShape"></path><path fill="#ffcb48" d="M495,431c-.24-.5-.19-2.11-.39-2.66-.8-2.22-2.05-1.72-2.05-1.72s.09-2.77-.6-3.92a4.15,4.15,0,0,0-5.35-1.72c-1.11.4-2-.07-2.24,1.07a.13.13,0,0,0,0-.08c0-.05-.08,0-.09,0a2.41,2.41,0,0,0,.65,2c.41.55.8,1.09,1.17,1.65s-.62,1.46-.49,2.19a.9.9,0,0,0,.82.76,3.26,3.26,0,0,0,1.35,4c-1.61,2.15-3,4.83-1.5,7.43,1.63,2.81,4.08,2.93,6.7,1.76.14-.06.94-.55.84-.6C499.1,441.86,499.59,432.84,495,431Z" class="colorffcb48 svgShape"></path><path fill="#ffd985" d="M488.29,442.17a5.57,5.57,0,0,1-2.11-1.81,4.82,4.82,0,0,1-.86-2.71,6.09,6.09,0,0,1,.15-1.46q.21-.68.48-1.32a8.15,8.15,0,0,1,1.49-2.46l.06.57a4.49,4.49,0,0,1-.92-.87A4,4,0,0,1,486,431a3,3,0,0,1-.19-1.27,3.69,3.69,0,0,1,.29-1.24l.29.47a1.36,1.36,0,0,1-.62-.22,1,1,0,0,1-.41-.56,1.68,1.68,0,0,1,.19-1.16,5.19,5.19,0,0,0,.31-.86,1.19,1.19,0,0,0,0-.35s-.16-.2-.25-.32a9.2,9.2,0,0,1-1.13-1.62,1.84,1.84,0,0,1-.16-1.9,1.84,1.84,0,0,0,.38,1.77,13.12,13.12,0,0,0,1.24,1.46,2.29,2.29,0,0,1,.36.44,1.22,1.22,0,0,1,0,.62,5.37,5.37,0,0,1-.28,1,1.16,1.16,0,0,0-.11.74.51.51,0,0,0,.46.29.35.35,0,0,1,.31.38.29.29,0,0,1,0,.09,2.82,2.82,0,0,0,0,2,3.29,3.29,0,0,0,.52.88,4.23,4.23,0,0,0,.75.72h0a.37.37,0,0,1,.09.52l0,0a8.26,8.26,0,0,0-1.38,2.21c-.19.41-.36.83-.51,1.25a6.48,6.48,0,0,0-.21,1.27A5.28,5.28,0,0,0,488.29,442.17Z" class="colorffd985 svgShape"></path><path fill="#30193b" d="M440.87,545.51c0-1.91,2.28-1.63,3.75-1.94-.4.24-.88.58-.25.74a4.88,4.88,0,0,0,3.5-.68,3.69,3.69,0,0,1,.3,1.53C448.17,545.72,440.87,546,440.87,545.51Z" class="color30193b svgShape"></path><path fill="#ffbf66" d="M444.37,544.31c-.63-.16-.82-.56.13-.72a7.41,7.41,0,0,0,1.69-.49c.4-.17.54-.77.54-.77l.77,0s.31,1.2.37,1.33A4.88,4.88,0,0,1,444.37,544.31Z" class="colorff97a6 svgShape"></path><path fill="#30193b" d="M421.88,545.5c-.14-1.9,2.19-1.59,3.59-1.9-.38.23-.83.56-.23.71a4.74,4.74,0,0,0,3.37-.69,3.43,3.43,0,0,1,.3,1.47C428.91,545.63,421.91,546,421.88,545.5Z" class="color30193b svgShape"></path><path fill="#ffbf66" d="M425.24,544.31c-.6-.15-.8-.54.12-.69a6.88,6.88,0,0,0,1.63-.5,1.18,1.18,0,0,0,.51-.74l.74,0s.31,1.15.37,1.28A4.74,4.74,0,0,1,425.24,544.31Z" class="colorff97a6 svgShape"></path><path fill="#0e538c" d="M450.25,467.36c-2.26-5.79-6-10.49-7-10.94-3.13.16-13.41,3.05-14.66,3.1-1,.55-5.6,8.45-6.74,15.15-2.35,13.91,4.43,62.4,4.86,67.63,0,.23,3.21.73,3.3,0,.66-5.3,1.2-20.83,4.63-40.2,2-11.33,3.38-21.32,4.49-23.56.66,1.55,1.87,14.85,2.51,23.27,1.61,21.12,4.26,40.49,4.26,40.49l3.38.48,2.06-36.72S454.85,479.14,450.25,467.36Z" class="color7f65c1 svgShape"></path><path fill="#ffbf66" d="M403,456.08a1.14,1.14,0,0,1,0,.28,2.31,2.31,0,0,1-.68.58c0-.32-1.15.16-1.37.27a3,3,0,0,1-.83.25,2.12,2.12,0,0,1-1.36-.37s-.47-.36-.45-.41c.21-.41,1.1-.08,1.49-.22a9.78,9.78,0,0,0,1.65-.74C402.23,455.31,402.66,455.06,403,456.08Z" class="colorff97a6 svgShape"></path><path fill="#0e538c" d="M450.25,467.36c-2.26-5.79-6-10.49-7-10.94-1.26.06-6.22,1.16-6.22,1.16a191.31,191.31,0,0,0-4.45,25.17c-2.69,25.06-4.79,59.85-4.33,59.9.89.1,1.71.06,1.76-.35.66-5.3,1.2-20.83,4.63-40.2,2-11.33,3.38-21.32,4.49-23.56.66,1.55,1.87,14.85,2.51,23.27,1.61,21.12,4.26,40.49,4.26,40.49l3.38.48,2.06-36.72S454.85,479.14,450.25,467.36Z" class="color6851af svgShape"></path><path fill="#ffbf66" d="M428.13,407.11a.39.39,0,0,0-.06-.47L426.43,405s-.91-.93-1.61-.83c0,0-.18.17.17.37,0,0-1-.39-1.22-.16s.13.54.13.54a.26.26,0,0,0-.25.3,5.09,5.09,0,0,0,1.92,1.56s-.72-.26-.73,0,1.38.82,1.85.74a3.56,3.56,0,0,0,.81.18C427.85,407.64,428,407.39,428.13,407.11Z" class="colorff97a6 svgShape"></path><path fill="#92bddd" d="M429.18,415.49a80,80,0,0,0,11.16,7c5.52,2.79,6.36.28,6-1.48-.5-2.16-4.46-4.79-5.82-6.23-2.87-3-5.53-6.59-7-7.89-1.9-1.74-7,1-7,1S425.37,412.8,429.18,415.49Z" class="color92bddd svgShape"></path><path fill="#92bddd" d="M442.57,421.37c-2.72,12.15-4,15.25-3.24,18.68.37,1.59,3.6,4.59,4.2,2.28-.28-5,4.59-18.56,3.62-20.44C446.48,420.58,443.42,417.56,442.57,421.37Z" class="color92bddd svgShape"></path><path fill="#ffbf66" d="M431,434s1.2,3.2,1.07,3.69-.84,1.44-1.56.58-.85-4-.85-4Z" class="colorff97a6 svgShape"></path><path fill="#c95d77" d="M431.81,436.36a1.62,1.62,0,0,1-1.74.89,18.51,18.51,0,0,1-.36-2.1l1.59-.37C431.49,435.33,431.62,435.72,431.81,436.36Z" class="colorc95d77 svgShape"></path><path fill="#ffbf66" d="M432.3,430.31a12.41,12.41,0,0,0-3.86-.27,1.86,1.86,0,0,0-1.83,1.87,10.74,10.74,0,0,0,.34,3c.56,1.45,1.21,1.95,3.4,1.8a3.81,3.81,0,0,0,2.37-1.31,5.48,5.48,0,0,0,.51-2.87C433.15,431.76,433.07,430.72,432.3,430.31Z" class="colorff97a6 svgShape"></path><path fill="#aacbe8" d="M443.45,441.08l.6,9.71,0,6.58s-.16.85-7.31,3a30.69,30.69,0,0,1-9.66,1.35c.59,1.16-7.85-17.27-4.94-20.25,2.28-2.32,5.62-3.52,12.21-4.5C437.66,436.49,442.48,438,443.45,441.08Z" class="coloraacbe8 svgShape"></path><path fill="#aacbe8" d="M424.39,441.32s1.82,14.65-2.88,19.79c-3.5,3.83-15.49,2.84-18.83-2.23-1.24-1.88.56-3.69.56-3.69l14.2,1.44,4.19-14.2Z" class="coloraacbe8 svgShape"></path><path fill="#92bddd" d="M443.45,441.08l.6,9.71,0,6.58s-.15.8-6.72,2.84l-.59.18s1.42-8.15.73-14a21.87,21.87,0,0,0-3.12-9.41s.59-.07.91-.09C438.48,436.76,442.56,438.23,443.45,441.08Z" class="color92bddd svgShape"></path><path fill="#3b2b5b" d="M433.63,429.78a2.15,2.15,0,0,0-.25-2.08,2.43,2.43,0,0,0-1.57-.81h0c-.58-.16-2.46-.18-2.78-.3-1.94-.71-4.77-3.18-5.44-.33-.53,2.32,2.87,4.34,4.53,4.85,1.19.36,2.37,0,3.55.31a4.69,4.69,0,0,1,.82,3.54.14.14,0,0,0,.2.16c1.1-.36,2.48-2.86,2.54-3.47A2.09,2.09,0,0,0,433.63,429.78Z" class="color3b2b5b svgShape"></path><path fill="#0e538c" d="M435.22,431.65a2,2,0,0,0-.55-1.15,1.6,1.6,0,0,0-1.05-.6.12.12,0,0,1-.12-.13v0h0a2.05,2.05,0,0,0-.17-1.78,2.23,2.23,0,0,0-1.56-.84h0a11.73,11.73,0,0,0-1.62-.15l-.85-.07a1.24,1.24,0,0,1-.46-.11l-.4-.17a20.56,20.56,0,0,0-3-1.4,1.23,1.23,0,0,0-1.32.32,2.32,2.32,0,0,0-.42,1.46,4.47,4.47,0,0,0,1.72,2.7,4.24,4.24,0,0,1-2-2.67,2.24,2.24,0,0,1,.06-.89,2.31,2.31,0,0,1,.35-.83,1.34,1.34,0,0,1,.79-.54,2.24,2.24,0,0,1,.93,0,19.41,19.41,0,0,1,3.1,1.38l.37.16a1,1,0,0,0,.34.09l.82.08a11.51,11.51,0,0,1,1.71.2h0a2.45,2.45,0,0,1,1.8,1.08,2.34,2.34,0,0,1,.11,2.06l-.11-.17a1.8,1.8,0,0,1,1.14.76A1.92,1.92,0,0,1,435.22,431.65Z" class="color7f65c1 svgShape"></path><path fill="#3b2b5b" d="M325.8,534.78c.44.26.88.64.2.85-1,.31-3.17,0-3.84-.65a4.73,4.73,0,0,0-.25,1.8c0,.36,4.25.53,5.71.47.62,0,1.49-.51,1.4-.92S326.37,534.94,325.8,534.78Z" class="color3b2b5b svgShape"></path><path fill="#ffbf66" d="M326,535.63c.68-.21.24-.59-.2-.85-.9-.25-2-.51-2.15-.58-.44-.19-.52-2.8-.52-2.8h-.8s-.1,3.42-.17,3.58C322.83,535.68,325,535.94,326,535.63Z" class="colorff97a6 svgShape"></path><path fill="#3b2b5b" d="M290.92,537c-.24.45-.42,1,.27.83,1-.25,2.73-1.62,2.93-2.56a4.64,4.64,0,0,1,1.16,1.4c.18.32-3.35,2.68-4.62,3.39-.54.3-1.54.34-1.67-.06S290.51,537.47,290.92,537Z" class="color3b2b5b svgShape"></path><path fill="#ffbf66" d="M291.19,537.87c-.69.17-.51-.38-.27-.83.64-.69,1.19-1.23,1.3-1.38.28-.39,1.43-2.45,1.43-2.45l.46.57a5.61,5.61,0,0,0,0,1.53C293.92,536.25,292.19,537.62,291.19,537.87Z" class="colorff97a6 svgShape"></path><path fill="#ffbf66" d="M313.44,447.89c0,.22-4.2,5.61-6.53,11.11-3.84,9.06-12.26,55.2-13.8,72a18.5,18.5,0,0,1-.59,4.15c-.32,1,1.42-.26,1.54-.63L321.6,468.9l.74,63.45.91,1.7S332,509.53,334.07,491c4.16-37.15-6.07-37.88-6.52-40.86C325.64,451,317.07,449.68,313.44,447.89Z" class="colorff97a6 svgShape"></path><path fill="#3b2b5b" d="M327.55,450.13s7,2.53,7.68,22.73-2.41,26.06-2.41,26.06-18,.61-27.88-3.49c0,0,4.62-25.5,4.11-28.42l-6.91,27.92-3.41-.61s2-27.7,7.41-37.36S318,445.65,318,445.65Z" class="color3b2b5b svgShape"></path><path fill="#ffbf66" d="M345.08,398.09c-.36-.39-.67.31-.87,1-.09.21-.18.42-.25.63h0a5.76,5.76,0,0,0-1.43-1.78c-.29-.37-.83-1.1-1.24-1a.14.14,0,0,0-.09.09v0l0,0c-.11-.06-.28,0-.23.17a7.94,7.94,0,0,0,.75,1.63c.54,1.05,1.5,1.86,1.72,3.05.07.32.22.6.63.49l.05,0a.44.44,0,0,0,.34,0c.06,0,.13,0,.14,0l0-.11a.19.19,0,0,0,.07-.08,1.71,1.71,0,0,0,.13-.45,4.76,4.76,0,0,0,.38-.9c0-.05,0-.1,0-.15a4.57,4.57,0,0,0,.12-.74C345.33,399.41,345.41,398.46,345.08,398.09Z" class="colorff97a6 svgShape"></path><path fill="#30193b" d="M327.55,450.13s7,2.53,7.68,22.73-2.41,26.06-2.41,26.06a119.23,119.23,0,0,1-15.11-.63l-1.09-.13a104,104,0,0,0,7.27-25c1.64-10.47-2.22-24.38-2.22-24.38Z" class="color30193b svgShape"></path><path fill="#ffbf66" d="M301.21,432.79c.4.09.49.38,1.37.52a4.41,4.41,0,0,0,2.67-.62,8,8,0,0,0,1.27-1.14c.42-.48.84-1,1.24-1.47,1.84-3.88,4.73-8.39,8.21-11,1.58-1.18,4.79-2.39,6.65-1.15,1.94-1.29,3.93.31,4.9,2.47a8.92,8.92,0,0,1,.69,2.48,11,11,0,0,1-1.31,8.77l0,0a28.55,28.55,0,0,1-3.2,5.37,28.92,28.92,0,0,1-8.25,7.68.49.49,0,0,1-.73-.46,13.8,13.8,0,0,1-4.41-1.32,19.14,19.14,0,0,1-5-3.51C303.49,437.8,300.6,433,301.21,432.79Z" class="colorff5e4d svgShape"></path><path fill="#2a94f4" d="M332.22,436l-.26.21,2-1.64a8.62,8.62,0,0,0,.81-.57c2.48-1.8,7.08-5.52,8-9.94,1.14-5.73-2.88-3.54-2.88-3.54s-4.22,9.28-9.57,9.9C328.74,430.57,329.6,437.6,332.22,436Z" class="color1d4f5e svgShape"></path><path fill="#2a94f4" d="M321.1,429.78h.11a45.38,45.38,0,0,1,9.79.39c.36.1,1.72,5.2,1.86,7,.53,6.29-.81,12.51-2.8,15.19-.43.57-3.61.73-7.05.43-4.53-.4-9.69-1.52-11.52-2.9A56.89,56.89,0,0,0,314,437.24C314.22,433.35,315.58,430,321.1,429.78Z" class="color295a6e svgShape"></path><path fill="#2a94f4" d="M338.48 428.14c-.76-.47.46-3.73.23-4.86a73.31 73.31 0 01-.31-19.53 3.34 3.34 0 013.77-2.53h.07c5 .57 4.33 4.24 4.25 7.11s-2.21 12.18-3.12 14.94C342.89 424.76 340.29 429.26 338.48 428.14zM324.67 429.66a45.07 45.07 0 016.33.5c.36.1 1.72 5.2 1.86 7 .53 6.29-.81 12.51-2.8 15.19-.39.53-3.15.7-6.28.49l-.77-.06a57.29 57.29 0 003.86-12.41C327.73 434.87 324.14 429.65 324.67 429.66z" class="color1d4f5e svgShape"></path><path fill="#2a94f4" d="M317.25,433.51h0v0c.1.35.21.66.32.94,1,2.89,5.4,11,9.23,13.35,5,3.1,2.23-4.62,2.23-4.62l-6.76-8.94C321.89,432.8,316.43,430.54,317.25,433.51Z" class="color295a6e svgShape"></path><path fill="#2a94f4" d="M327,445.65c1-5.34,12.71-9.83,19.58-11.41a1,1,0,0,1,1.19.58c.23.57.46,1.32.78,2.39,1.42,4.85-2.51,6-5.41,7.3s-12.23,3.69-12.23,3.69S326.18,449.92,327,445.65Z" class="color295a6e svgShape"></path><path fill="#ffbf66" d="M324.26,424.9a28.58,28.58,0,0,0-.58,4.59c.19.48,1,1.15,1.51.14s.34-4.65.34-4.65Z" class="colorff97a6 svgShape"></path><path fill="#c95d77" d="M323.77,427.9a1.5,1.5,0,0,0,1.73.28,19.28,19.28,0,0,0,.06-2.24l-1.47-.1C324,426.43,323.86,427.21,323.77,427.9Z" class="colorc95d77 svgShape"></path><path fill="#ffbf66" d="M327.26,424.08a11.68,11.68,0,0,0-1.42-2.89c-1.35-1.34-4.53,1.18-4.88,1.82s.05,1.58.36,2.23a5.21,5.21,0,0,0,1.77,2,3.32,3.32,0,0,0,2.44-.11C327.27,426.22,327.53,425.51,327.26,424.08Z" class="colorff97a6 svgShape"></path><path fill="#ffbf66" d="M319.1,425.43c.07-.13.15-.24.23-.36a.13.13,0,0,1,0-.18,22.9,22.9,0,0,1,2.66-3.48c.08-.17.17-.33.25-.5h0a.26.26,0,0,1-.18-.4.16.16,0,0,1,.13-.19,2.25,2.25,0,0,1,.78-.07,5.16,5.16,0,0,1,3.64,1.35l.39.22a.19.19,0,0,1,.08.26,4.71,4.71,0,0,1,.33.42.14.14,0,0,1-.19.19,15.06,15.06,0,0,0-2.54-1.27,10,10,0,0,0-1-.24c-.39,2.2-2.05,4.84-4.28,5.17a.17.17,0,0,1-.17-.29l.18-.17A.3.3,0,0,1,319.1,425.43Z" class="colorff5e4d svgShape"></path><path fill="#2a94f4" d="M317.17,434.81c1,1.36,2,2.73,3,4.1s1.95,2.76,3,4.11,2,2.73,3.09,4a6.6,6.6,0,0,0,.9.85,2.62,2.62,0,0,0,1.05.59,4.14,4.14,0,0,0,2.45-.18,4,4,0,0,1-2.51.4,2.76,2.76,0,0,1-1.18-.57,7.77,7.77,0,0,1-1-.84,40.24,40.24,0,0,1-3.22-3.95c-1-1.38-2-2.77-2.88-4.19S318,436.28,317.17,434.81Z" class="color1d4f5e svgShape"></path><path fill="#ffbf66" d="M353.26,434.64a16,16,0,0,0-2,.05h-.18c.26-.13.51-.29.76-.41a3.45,3.45,0,0,0,.52-.25h0a.14.14,0,0,0,.11-.19v0s0,0,0,0,0-.1-.06-.1h-.07l-.08,0a7,7,0,0,0-2,.56,1.7,1.7,0,0,0-.45.22h0a1.14,1.14,0,0,0,.07-.32s0,0,0-.05h0c0-.09.06-.17.09-.27a.13.13,0,0,0-.21-.13,8.75,8.75,0,0,0-.55.69,7.23,7.23,0,0,0-.68.89,1.54,1.54,0,0,0-.57.52,1.42,1.42,0,0,0,.07.91c.22.39,1,.29,1.61.12a3.73,3.73,0,0,0,1.14-.23l.47,0a3.51,3.51,0,0,0,1.18,0c.08,0,.08-.09,0-.16s0-.06,0-.06h-.06l-.22,0a7.69,7.69,0,0,0-1.46-.45,5.63,5.63,0,0,0,.59-.14,3.7,3.7,0,0,0,.86-.2,2.33,2.33,0,0,0,.36-.08,2.8,2.8,0,0,0,.67-.23c.1,0,0-.18-.07-.18l0,0h.06A.19.19,0,0,0,353.26,434.64Z" class="colorff97a6 svgShape"></path><path fill="#ff8076" d="M310.28,443a14.82,14.82,0,0,1-3.08-1.73,17.93,17.93,0,0,1-2.71-2.3,22.8,22.8,0,0,1-2.14-2.85,16.75,16.75,0,0,1-.92-1.53c-.14-.26-.28-.53-.4-.81s-.12-.3-.17-.46a1.78,1.78,0,0,1-.05-.28.64.64,0,0,1,0-.22.43.43,0,0,1,.27-.28.22.22,0,0,1,.16,0h0a3.38,3.38,0,0,1,.73.34,2.51,2.51,0,0,0,.64.18,3.9,3.9,0,0,0,1.34-.14,3.43,3.43,0,0,0,1.24-.57,9.49,9.49,0,0,0,1-1v0l1.23-1.47-.05.08a34.09,34.09,0,0,1,5.8-8.8,13,13,0,0,1,4.23-3.22,8.7,8.7,0,0,1,2.6-.69,4.06,4.06,0,0,1,2.65.56h-.21a2.72,2.72,0,0,1,1.59-.44,2.87,2.87,0,0,1,1.53.55,5.66,5.66,0,0,1,1.89,2.52,5.88,5.88,0,0,0-2-2.35,2.65,2.65,0,0,0-1.42-.43,2.38,2.38,0,0,0-1.38.46.18.18,0,0,1-.2,0h0a3.69,3.69,0,0,0-2.39-.41,8.35,8.35,0,0,0-2.42.73,13.59,13.59,0,0,0-4,3.17,36.62,36.62,0,0,0-5.63,8.66h0a.21.21,0,0,1,0,.06l-1.26,1.47,0,0a11.65,11.65,0,0,1-1.13,1.05,4.32,4.32,0,0,1-1.47.66,4.77,4.77,0,0,1-1.61.13,3.31,3.31,0,0,1-.8-.23,4.35,4.35,0,0,0-.61-.31h.17c.18-.11.12-.16.13-.12a1.25,1.25,0,0,0,0,.15c0,.12.08.25.13.38s.22.52.35.78c.26.51.54,1,.84,1.52a24.89,24.89,0,0,0,2,2.86,19.81,19.81,0,0,0,2.54,2.38A17.3,17.3,0,0,0,310.28,443Z" class="colorff8076 svgShape"></path><path fill="#aacbe8" d="M322.71 111.37h-6.09a.63.63 0 01-.63-.63h0a.64.64 0 01.63-.64h6.09a.64.64 0 01.63.64h0A.63.63 0 01322.71 111.37zM319.62 114.43h0a1.74 1.74 0 01-1.74-1.74v0h3.48v0A1.74 1.74 0 01319.62 114.43z" class="coloraacbe8 svgShape"></path><path fill="#ffcb48" d="M333,90.61c0-8-6.24-14.39-13.89-14.27-7.29.11-13.27,6.29-13.46,13.9a14.51,14.51,0,0,0,4.94,11.34,8.46,8.46,0,0,1,2.3,3.35c1.17,3.6,3.05,4.42,3.07,4.5.22,1.35,4.84-.6,6.29-.13.21.07,2.46.76,4-4.59a6.49,6.49,0,0,1,1.82-3.15A14.49,14.49,0,0,0,333,90.61Z" class="colorffcb48 svgShape"></path><path fill="#ffffff" d="M321.6,109.63a28,28,0,0,1,1.91-13.06,5.18,5.18,0,0,1-2.6-.54,4.4,4.4,0,0,1-1.18-.87,6.12,6.12,0,0,1-3.24,1.6l-.45.07c1.79,4,2.1,9.93,2.15,12.3h-.41c0-2.36-.36-8.27-2.16-12.24l0,0a4.51,4.51,0,0,1-3.49-1.14,1.3,1.3,0,0,1-.48-1.14,1.06,1.06,0,0,1,.8-.79,1.82,1.82,0,0,1,1.06.1,4.8,4.8,0,0,1,2.36,2.54,3.72,3.72,0,0,0,.57-.08,5.57,5.57,0,0,0,3-1.5,4,4,0,0,1-.85-3.32c.11-.51.46-1.11,1.05-1.13s.95.53,1.1,1a3.78,3.78,0,0,1-.75,3.45,3.86,3.86,0,0,0,1.09.82,5,5,0,0,0,2.61.48,13.8,13.8,0,0,1,.79-1.41,2.75,2.75,0,0,1,1.1-1.12,1.19,1.19,0,0,1,1.55.45,1.13,1.13,0,0,1-.18,1.17,2.49,2.49,0,0,1-.88.66,6.39,6.39,0,0,1-2.11.63c-1.9,4-2.29,9.22-2,13.06Zm-8.83-15.47-.24,0a.64.64,0,0,0-.49.46,1,1,0,0,0,.36.78,4.09,4.09,0,0,0,3,1,4.22,4.22,0,0,0-2.07-2.18A1.62,1.62,0,0,0,312.77,94.16Zm13.38-.24a1,1,0,0,0-.38.08,2.39,2.39,0,0,0-.93,1c-.23.36-.44.74-.64,1.13a6.58,6.58,0,0,0,1.71-.56,2,2,0,0,0,.74-.54.76.76,0,0,0,.13-.74A.67.67,0,0,0,326.15,93.92Zm-6.46-3.11h0c-.33,0-.57.42-.66.81a3.54,3.54,0,0,0,.73,2.91,3.35,3.35,0,0,0,.63-3C320.26,91.17,320,90.81,319.69,90.81Z" class="colorfff svgShape"></path><path fill="#d5eaf5" d="M323 110.1h-6.74a.63.63 0 01-.63-.63h0a.64.64 0 01.63-.64H323a.64.64 0 01.63.64h0A.63.63 0 01323 110.1zM322.28 112.64h-5.22a.63.63 0 01-.64-.63h0a.64.64 0 01.64-.64h5.22a.64.64 0 01.63.64h0A.63.63 0 01322.28 112.64z" class="colord5eaf5 svgShape"></path><path fill="#ffcb48" d="M635.23,285.54a9.58,9.58,0,0,0-.86-2.08L628.29,290l-3.78-.12-.69-3.64,2.15-2.62,3.55-4.31,0,0a9.26,9.26,0,0,0-12.09,11.2,8.83,8.83,0,0,0,.37,1.06l-3.87,4.31-.09-.09L604,306.69a9.25,9.25,0,0,0-11.54,11.37,9.79,9.79,0,0,0,.86,2.08l6.08-6.58,3.78.12.69,3.64-2.15,2.61-3.55,4.32,0,0a9.27,9.27,0,0,0,12.09-11.2A8.83,8.83,0,0,0,610,312l4.78-5.34.1.1,8.84-9.87a9.14,9.14,0,0,0,5.11,0A9.27,9.27,0,0,0,635.23,285.54Z" class="colorffcb48 svgShape"></path><path fill="#d5eaf5" d="M230.62 155.42a1.21 1.21 0 00-.83-1l-2.58-.92a1.25 1.25 0 01-.8-.86 19.24 19.24 0 00-.91-2.75 20.81 20.81 0 00-1.31-2.58 1.2 1.2 0 01-.05-1.16l1.21-2.39a1.19 1.19 0 00-.15-1.31 24.72 24.72 0 00-3.22-3.17 1.34 1.34 0 00-1.36-.17l-2.49 1.12a1.34 1.34 0 01-1.2-.07 21.74 21.74 0 00-5.48-2.25 1.24 1.24 0 01-.87-.79l-.9-2.51a1.25 1.25 0 00-1.06-.82l-.59-.05H208l-.53 0h0c-.39 0-.78 0-1.18 0h0c-.73 0-1.47 0-2.21.08a1.27 1.27 0 00-1.09.8l-1 2.5a1.28 1.28 0 01-.89.77 19.9 19.9 0 00-2.85.88 21.91 21.91 0 00-2.68 1.26 1.3 1.3 0 01-1.2 0l-2.47-1.16a1.31 1.31 0 00-1.36.14 24.84 24.84 0 00-3.28 3.11 1.19 1.19 0 00-.18 1.31l1.16 2.41a1.21 1.21 0 01-.07 1.15 20.33 20.33 0 00-2.34 5.29 1.24 1.24 0 01-.81.84l-2.6.87a1.22 1.22 0 00-.86 1 22.59 22.59 0 00-.05 4.43 1.23 1.23 0 00.83 1l2.59.92a1.23 1.23 0 01.8.86 18.72 18.72 0 00.91 2.74 20.26 20.26 0 001.31 2.59 1.2 1.2 0 010 1.16l-1.2 2.38a1.17 1.17 0 00.15 1.31 23.53 23.53 0 003.22 3.17 1.29 1.29 0 001.35.17l2.5-1.11a1.34 1.34 0 011.2.06 21.48 21.48 0 005.47 2.26 1.26 1.26 0 01.88.78l.89 2.51a1.29 1.29 0 001.07.83c.9.09 1.81.13 2.72.13h.87l.24 0h.25l.52 0a1.28 1.28 0 001.09-.81l.94-2.49a1.27 1.27 0 01.9-.77 23.2 23.2 0 002.84-.88 21.23 21.23 0 002.68-1.26 1.31 1.31 0 011.2 0l2.47 1.17a1.31 1.31 0 001.36-.15 23.68 23.68 0 003.29-3.11 1.19 1.19 0 00.18-1.3L223.9 169a1.2 1.2 0 01.07-1.16 19.77 19.77 0 002.33-5.28 1.27 1.27 0 01.82-.85l2.6-.86a1.24 1.24 0 00.85-1A22.69 22.69 0 00230.62 155.42zM206.23 169.2a11.46 11.46 0 1111.87-11.45A11.67 11.67 0 01206.23 169.2zM698.74 148.5l.53 0A.35.35 0 01698.74 148.5zM694.11 143.17l0 .35c-.11-.11-.22-.21-.32-.33z" class="colord5eaf5 svgShape"></path><path fill="#d5eaf5" d="M698.69 148.32a4.48 4.48 0 00-4.87-4.47.34.34 0 01-.33-.33c-.11-1.75-.34-3.83-1.72-5.09-1.12-1-3.21-1.25-4.14.1l0 0-.06-.83a3.56 3.56 0 014.05-.2c1.95 1.14 2.39 3.62 2.54 5.7l-.29 0c.1.12.21.22.32.33l0-.35a5.16 5.16 0 015.24 5.15.28.28 0 01-.08.2l-.53 0A.35.35 0 01698.69 148.32zM687.58 138.5l-.6-.16a2.56 2.56 0 01.54-.67z" class="colord5eaf5 svgShape"></path><path fill="#d5eaf5" d="M687.58,138.5l0,0-.09.14a.33.33,0,0,1-.61-.17v-.16H687Z" class="colord5eaf5 svgShape"></path><path fill="#d5eaf5" d="M685.13,129.86c1.79,2.21,2.17,5,2.39,7.81a2.56,2.56,0,0,0-.54.67h-.06c-.2-2.87-.47-6-2.44-8.26a5.68,5.68,0,0,0-7.07-1.21c-5.19,2.68-5.32,9.59-6.53,14.56h0a7.16,7.16,0,0,0-.16-2.36c1-5.2,2-11.47,7.59-13.27A6.17,6.17,0,0,1,685.13,129.86Z" class="colord5eaf5 svgShape"></path><path fill="#d5eaf5" d="M670.71,141.07a7.16,7.16,0,0,1,.16,2.36l-.65-.09C670.39,142.62,670.55,141.85,670.71,141.07Z" class="colord5eaf5 svgShape"></path><path fill="#d5eaf5" d="M665.63,136.19a7,7,0,0,1,4.58,7.15v.09c0,.37.56.44.65.08,0,0,0-.06,0-.08,1.21-5,1.34-11.88,6.53-14.56a5.68,5.68,0,0,1,7.07,1.21c2,2.26,2.24,5.39,2.44,8.26v.16a.33.33,0,0,0,.61.17l.09-.14c.93-1.35,3-1.13,4.14-.1,1.38,1.26,1.61,3.34,1.72,5.09a.34.34,0,0,0,.33.33,4.48,4.48,0,0,1,4.87,4.47.35.35,0,0,0,0,.18c-4.42-.2-8.87-.06-13.29-.06H642.92c-5.22,0-10.5-.22-15.72.09a4.16,4.16,0,0,1,5.93-5.14c.22.13.55-.09.45-.35a1.72,1.72,0,0,0-.07-.21,21.87,21.87,0,0,1,2.17-18.41c1.63-2.58,4.28-5.28,7.58-5.12s5.41,3,6.43,5.72c1.43,3.9.76,8.26,1.3,12.31a.32.32,0,0,0,.63,0s0-.05,0-.08a2.46,2.46,0,0,1,3.15-2,3.79,3.79,0,0,1,2.37,3.41v.17a.33.33,0,0,0,.62.16l.09-.13A7,7,0,0,1,665.63,136.19Z" class="colord5eaf5 svgShape"></path><path fill="#d5eaf5" d="M670.87,143.43h0s0,0,0,.08c-.09.36-.69.29-.65-.08v-.09h0Z" class="colord5eaf5 svgShape"></path><path fill="#d5eaf5" d="M670.21 143.34a6.75 6.75 0 00-12.34-4.47l0 0a3.87 3.87 0 00-.12-.83 7.35 7.35 0 0113 3.06c-.16.78-.32 1.55-.49 2.27zM657.82 138.84l-.61-.17a8.05 8.05 0 01.49-.66A3.87 3.87 0 01657.82 138.84z" class="colord5eaf5 svgShape"></path><path fill="#d5eaf5" d="M657.82,138.84l0,0-.09.13a.33.33,0,0,1-.62-.16v-.17h.06Z" class="colord5eaf5 svgShape"></path><path fill="#d5eaf5" d="M654.46 134.54A4.06 4.06 0 01657.7 138a8.05 8.05 0 00-.49.66h-.06a3.79 3.79 0 00-2.37-3.41 2.46 2.46 0 00-3.15 2h0c-.06-.45-.1-.92-.14-1.37A3.22 3.22 0 01654.46 134.54zM651.63 137.26s0 .05 0 .08a.32.32 0 01-.63 0l.62-.08zM651.47 135.89c0 .45.08.92.14 1.37l-.62.08A2.67 2.67 0 01651.47 135.89zM633.44 142.87l-.45.34c-.08-.21-.15-.43-.22-.65A4 4 0 01633.44 142.87z" class="colord5eaf5 svgShape"></path><path fill="#d5eaf5" d="M650.3 124.86c1.28 3.51.88 7.34 1.17 11a2.67 2.67 0 00-.48 1.45c-.54-4.05.13-8.41-1.3-12.31-1-2.75-3.27-5.58-6.43-5.72s-6 2.54-7.58 5.12a21.87 21.87 0 00-2.17 18.41l-.07 0a4 4 0 00-.67-.31 22 22 0 01-.6-11 20.68 20.68 0 014.32-9.33c1.94-2.29 4.86-4.18 8-3.4C647.35 119.56 649.32 122.2 650.3 124.86zM627.21 148.55c.09.26-.31.36-.42.11a.06.06 0 010 0 .13.13 0 01.12-.06l.3 0zM633.58 143.05c.1.26-.23.48-.45.35a4.16 4.16 0 00-5.93 5.14l-.3 0a.13.13 0 00-.12.06 4.66 4.66 0 016-6.06c.07.22.14.44.22.65l.45-.34.07 0A1.72 1.72 0 01633.58 143.05z" class="colord5eaf5 svgShape"></path><path fill="#d5eaf5" d="M642.92 148.45h42.53c4.42 0 8.87-.14 13.29.06a.35.35 0 00.53 0l.35 0a.21.21 0 010 .41c-5.32.29-10.69.1-16 .1H641.08c-4.71 0-9.48.19-14.18-.11a.18.18 0 01-.12-.31.06.06 0 000 0c.11.25.51.15.42-.11h0C632.42 148.23 637.7 148.45 642.92 148.45zM247.71 264.16a10.1 10.1 0 0110.08 10.48.49.49 0 01-.51.49.47.47 0 01-.5-.49 9.11 9.11 0 00-9.16-9.48v-.35C247.66 264.59 247.69 264.38 247.71 264.16z" class="colord5eaf5 svgShape"></path><path fill="#d5eaf5" d="M247.14,264.18l.57,0c0,.22-.05.43-.09.65C247.46,264.6,247.3,264.38,247.14,264.18Z" class="colord5eaf5 svgShape"></path><path fill="#d5eaf5" d="M239.63,258.37a5.71,5.71,0,0,1,8.08,5.79l-.57,0c.16.2.32.42.48.63v.35l-.48,0a.51.51,0,0,1-.48-.64,4.72,4.72,0,0,0-7.29-4.88l-.06-.09A11.92,11.92,0,0,0,239.63,258.37Z" class="colord5eaf5 svgShape"></path><path fill="#d5eaf5" d="M239.63,258.37a11.92,11.92,0,0,1-.32,1.2l-.73-.56A5.91,5.91,0,0,1,239.63,258.37Z" class="colord5eaf5 svgShape"></path><path fill="#d5eaf5" d="M239.31 259.57l.06.09-.29.2c-.35.27-.85-.17-.73-.55 0-.11.08-.23.11-.34l.12 0zM203.14 267.4l-.82.34c0-.31.06-.62.1-.94Q202.8 267.09 203.14 267.4z" class="colord5eaf5 svgShape"></path><path fill="#d5eaf5" d="M228.07,242c7.55,1.48,13.24,8.78,11.56,16.42a5.91,5.91,0,0,0-1,.64l-.12,0a12.69,12.69,0,0,0-3.75-12.71c-3.89-3.57-9.77-4.42-14.74-3-10.72,3.07-15.6,14.28-16.7,24.48a.48.48,0,0,1-.81.34l-.24-.22.1-.12.82-.34q-.34-.31-.72-.6a34.5,34.5,0,0,1,4.68-14.51C211.51,245.21,219.56,240.27,228.07,242Z" class="colord5eaf5 svgShape"></path><path fill="#d5eaf5" d="M257.26,275.6c-11.94-.46-23.91-.27-35.86-.25q-9,0-18,0l-9,0c-2.37,0-4.84-.11-7.22.14v-.12a.26.26,0,0,0,.27-.24c0-3.56,1.66-7.1,5-8.73a9,9,0,0,1,9.84,1.39l.24.22a.48.48,0,0,0,.81-.34c1.1-10.2,6-21.41,16.7-24.48,5-1.42,10.85-.57,14.74,3A12.69,12.69,0,0,1,238.46,259c0,.11-.07.23-.11.34-.12.38.38.82.73.55l.29-.2a4.72,4.72,0,0,1,7.29,4.88.51.51,0,0,0,.48.64l.48,0a9.11,9.11,0,0,1,9.16,9.48.47.47,0,0,0,.5.49Z" class="colord5eaf5 svgShape"></path><path fill="#d5eaf5" d="M202.42 266.8c0 .32-.07.63-.1.94l-.1.12a9 9 0 00-9.84-1.39c-3.3 1.63-4.93 5.17-5 8.73a.26.26 0 01-.27.24.19.19 0 01-.21-.18 9.52 9.52 0 015.24-9.6A10 10 0 01202.42 266.8zM221.4 275.35c11.95 0 23.92-.21 35.86.25h.16a.15.15 0 010 .29c-12 .47-24 .28-36 .26q-9 0-18 0l-9-.05a53.17 53.17 0 01-8.37-.29s0-.07 0-.07c.38-.07.76-.12 1.15-.16 2.38-.25 4.85-.12 7.22-.14l9 0Q212.39 275.34 221.4 275.35z" class="colord5eaf5 svgShape"></path><rect width="9.45" height="25.77" x="212.35" y="448.46" fill="#aacbe8" transform="translate(-3.25 1.54)" class="coloraacbe8 svgShape"></rect><path fill="#2a94f4" d="M216.64,356.78a43,43,0,0,1,.3,86.06h-.31a43,43,0,0,1-.29-86.06h.3m0-9.53h-.37a52.56,52.56,0,0,0,.36,105.12H217a52.56,52.56,0,0,0-.37-105.12Z" class="color295a6e svgShape"></path><path fill="#aacbe8" d="M216.7,474.22H218a9,9,0,0,1,9,9v45.12a4.1,4.1,0,0,1-4.1,4.1h-11.2a4.1,4.1,0,0,1-4.1-4.1V483.25A9,9,0,0,1,216.7,474.22Z" transform="rotate(-.4 218.818 507.836)" class="coloraacbe8 svgShape"></path><path fill="#2a94f4" d="M215.5,474.22h3.67a7.86,7.86,0,0,1,7.86,7.86v41.37a0,0,0,0,1,0,0h-19.4a0,0,0,0,1,0,0V482.08A7.86,7.86,0,0,1,215.5,474.22Z" transform="rotate(-.4 220.265 503.543)" class="color295a6e svgShape"></path><circle cx="216.64" cy="399.81" r="45.4" fill="#d5eaf5" opacity=".69" transform="rotate(-23.29 216.67 399.851)" class="colord5eaf5 svgShape"></circle></g></svg></g></svg>