<svg id="SvgjsSvg1070" width="360" height="360" xmlns="http://www.w3.org/2000/svg" version="1.1" xmlns:xlink="http://www.w3.org/1999/xlink" xmlns:svgjs="http://svgjs.com/svgjs"><defs id="SvgjsDefs1071"></defs><g id="SvgjsG1072" transform="matrix(1,0,0,1,0,0)"><svg xmlns="http://www.w3.org/2000/svg" data-name="Layer 1" viewBox="0 0 200 200" width="360" height="360"><g data-name="Social Network" fill="#000000" class="color000 svgShape"><path fill="#cce9ff" d="M152.9106,142.7183a26.62126,26.62126,0,0,1-4.281,3.0515,32.7077,32.7077,0,0,1-7.9699,3.3198,31.88464,31.88464,0,0,1-3.6105.8049,39.8643,39.8643,0,0,1-14.0505-.0895,39.29261,39.29261,0,0,1-5.7007-1.4866,40.97454,40.97454,0,0,1-9.9148-4.9183c-27.0951-18.3205-24.7366,4.7171-53.7319,0a27.37623,27.37623,0,0,1-5.2648-1.4196c-18.1529-6.7961-31.8793-32.1475-26.2791-50.9934C24.6,82.6261,30.882,75.5393,42.261,71.9177c20.3884-6.4831,18.5105,13.6594,34.7296-.0447a82.12664,82.12664,0,0,0,7.411-7.2656c13.011-14.1959,28.1011-20.0308,40.8662-20.612,19.4048-.8719,33.4441,10.429,26.6369,23.0488-7.5787,14.0729-10.5967,18.8905-6.7067,28.6265a60.95061,60.95061,0,0,0,3.4092,6.9526q1.0563,1.89465,2.3473,4.0576c1.4643,2.4703,3.1746,5.2312,5.1195,8.3498.4024.6372.7601,1.2631,1.0954,1.9003C162.7248,127.3264,159.9416,136.5817,152.9106,142.7183Z" class="colorefefef svgShape"></path><path fill="#cce9ff" d="M84.6027,54.6479c-5.8571.7937-7.9586,4.1582-8.1486,8.92-.123,3.0179-1.3972,4.9741-3.2304,5.9354-2.8168,1.509-6.9527.6707-10.1383-2.2244-5.2536-4.7617-20.7238,1.2743-21.3162-6.0696-.3465-4.4152,6.5167-15.7496,24.7702-16.0849a44.57221,44.57221,0,0,1,8.238.57C86.2794,47.6729,89.1186,54.0331,84.6027,54.6479Z" class="colorefefef svgShape"></path><path fill="#ffbf66" d="M143.8458,97.7351a7.06425,7.06425,0,0,1-4.4874,4.077c-5.047,1.9015,3.6184,5.8746.2227,11.3657-3.3752,5.4502-6.3616,6.0427-6.1882,9.8208s5.4797,7.0305-3.3895,24.8768c.0871,1.9918-5.6417,2.2727-5.7391.2501-7.3157-10.558-11.3508-18.9985-6.2048-22.4404,3.0754-2.0611,3.6445-4.4446,3.3191-7.3496-.1689-1.93-.7595-4.095-1.2377-6.5377-1.2059-6.1371,4.9734-6.9119,8.8082-9.0569,3.835-2.145-1.6873-9.9146,3.4122-11.3543,5.0891-1.4703,8.0329-2.802,10.4852.7242A6.19392,6.19392,0,0,1,143.8458,97.7351Z" class="colorcbd5f7 svgShape"></path><path fill="#ffffff" d="M127.2341,150.2077a.70447.70447,0,0,1-.7237-.5667c-.2799-1.414-6.6766-34.8441,9.3238-52.5786a.70449.70449,0,0,1,1.0459.9441c-15.5238,17.2066-9.0547,51.0204-8.9871,51.3602a.70378.70378,0,0,1-.5548.8278A.66921.66921,0,0,1,127.2341,150.2077Z" class="colorfff svgShape"></path><path fill="#0b4870" d="M176.4034,118.1404a32.05068,32.05068,0,0,1-4.7806,4.9654c-6.3186,5.5533-6.8871-1.1304-6.5141,2.9787.3729,4.1364-9.5681-1.2917-11.1551,1.65a2.2624,2.2624,0,0,0,.1988,2.2188l-.0003.0274c.9139,1.8422,3.1384,4.0249,3.7165,6.6577a2.96973,2.96973,0,0,1,.1029.7126,5.59821,5.59821,0,0,1-.6878,3.3877c-1.2808,2.3969-3.9924,2.5912-7.5202,2.258-1.8321-.1809-3.9094-.5011-6.1245-.7129a5.32968,5.32968,0,0,0-.6564-.0606,22.69981,22.69981,0,0,0-2.3798-.1586,24.90381,24.90381,0,0,0-3.7771-.0072c-.5205.05-1.041.1001-1.5892.1771a2.40009,2.40009,0,0,0-.4383.0508,19.71376,19.71376,0,0,0-2.468.4975c-.5487.1319-1.1251.3182-1.6742.5048a6.65,6.65,0,0,1-1.563.3142,2.4973,2.4973,0,0,1-.9033-.0082,1.495,1.495,0,0,1-.8444-.4456,1.5509,1.5509,0,0,1-.3772-.6605,3.514,3.514,0,0,1-.1527-1.2603.2115.2115,0,0,1,.0281-.082l.0003-.0274c.1734-1.0111,1.6105-8.525,6.6667-13.7067.3038-.2982.5532-.6244.8296-.9231,2.0507-2.773,2.0796-5.9479,1.9987-9.0689.0067-.7389-.0139-1.4781-.0072-2.2171a17.23016,17.23016,0,0,1,.4483-4.1288,9.16938,9.16938,0,0,1,1.0903-2.5083,10.20252,10.20252,0,0,1,.9428-1.3326c.1383-.1629.2764-.2985.3872-.4343,1.1881-1.2209,2.09-1.0758,2.8211-.2207,2.2492,2.484,3.1565,11.032,6.0402,9.9634,2.9387-1.0953.4904-5.7433.0069-9.744-.2033-1.7262-.052-3.3124,1.0533-4.4519,3.6745-3.7436,5.0935,2.729,13.4307.9165,8.3374-1.8126,10.3214-9.2669,15.408-8.7824,5.1137.5119-8.0291,10.0266-4.1329,8.9946,3.9234-1.0317,2.6025,2.7335-.4048,5.3611-2.9803,2.6551-7.4255,3.8737-.091,3.9678C178.285,112.9024,178.6761,115.041,176.4034,118.1404Z" class="colorc4ccf2 svgShape"></path><path fill="#fefefe" d="M140.0483,114.8892c.377.0911.8421.4117.9757,1.4294a14.22653,14.22653,0,0,1-.0229,3.7801c-.0513.3684-.117.7358-.1827,1.1032a11.22245,11.22245,0,0,0-.2618,2.4682,7.22181,7.22181,0,0,0,1.8192,4.2613,21.86614,21.86614,0,0,0,2.4008-.706,15.81676,15.81676,0,0,0,7.3834-6.5525,35.22847,35.22847,0,0,0,1.9629-3.5642,6.16882,6.16882,0,0,1-1.3989-2.1583,6.72811,6.72811,0,0,1,.1424-3.5735c.0594-.2743.121-.5473.1723-.8191a11.75706,11.75706,0,0,0,.1317-3.4976c-.0513-.4639-.2275-1.0149-.5503-1.0623a.46.46,0,1,1,.1201-.9121c.7352.0949,1.2239.7788,1.3462,1.8735a12.65937,12.65937,0,0,1-.1433,3.7688c-.0521.2809-.115.5641-.1785.8484a5.97174,5.97174,0,0,0-.1637,3.0917,4.67325,4.67325,0,0,0,.9479,1.5311c.4184-.8969.824-1.7974,1.2178-2.6887.3028-.684.6051-1.3697.9153-2.0498a10.06831,10.06831,0,0,1,1.7283-2.8488c1.6232-1.7126,4.0324-2.1676,6.5648-2.5174a.46107.46107,0,1,1,.1267.9134c-2.3649.3264-4.6051.7426-6.0238,2.2379a9.204,9.204,0,0,0-1.5585,2.597c-.3085.6769-.6085,1.3583-.9102,2.0402-.6867,1.5538-1.3988,3.1363-2.1956,4.678a3.48928,3.48928,0,0,0,2.706.0384,10.28846,10.28846,0,0,0,1.88-1.147l.4315-.3039a6.88993,6.88993,0,0,1,2.731-1.2663,5.38237,5.38237,0,0,1,2.9107.4288,6.76385,6.76385,0,0,1,.911.5015,3.32329,3.32329,0,0,0,1.2698.5885.46079.46079,0,1,1-.0377.9208,3.83745,3.83745,0,0,1-1.7184-.7261,5.7702,5.7702,0,0,0-.7707-.4307,4.49793,4.49793,0,0,0-2.417-.3731,5.95491,5.95491,0,0,0-2.3528,1.1134l-.4244.2982a11.0906,11.0906,0,0,1-2.0527,1.2438,4.46479,4.46479,0,0,1-3.5-.0453c-.329.6001-.6751,1.1908-1.0435,1.7671a16.70817,16.70817,0,0,1-7.8331,6.916,23.94077,23.94077,0,0,1-2.7184.7958.42649.42649,0,0,1-.1511.0387,13.63332,13.63332,0,0,0-3.8444,1.3843,8.4017,8.4017,0,0,0-1.0727.7946,9.94588,9.94588,0,0,1,2.1412,1.2324l.4224.2936a13.20561,13.20561,0,0,0,7.8229,2.5711c.4222-.0192.8474-.0668,1.2726-.1144a8.33339,8.33339,0,0,1,3.3328.0764.46056.46056,0,1,1-.2599.8837,7.54456,7.54456,0,0,0-2.9704-.0446c-.4451.0492-.8902.0984-1.3313.1198a12.96163,12.96163,0,0,1-6.6467-1.6723,18.805,18.805,0,0,1-1.7406-1.0589l-.4303-.2992a7.5127,7.5127,0,0,0-2.3221-1.2634.40892.40892,0,0,1-.0544-.0254c-.3698.3649-.7293.7416-1.0798,1.1179l-3.5393,3.803a20.12452,20.12452,0,0,0-2.2679,2.7415,9.8824,9.8824,0,0,0-1.0943,8.2554.46054.46054,0,0,1-.8778.279,10.8118,10.8118,0,0,1,1.1967-9.0328,20.83636,20.83636,0,0,1,2.3696-2.8708l3.5387-3.8019a14.99511,14.99511,0,0,1,3.1139-2.7724,12.74764,12.74764,0,0,1,3.4561-1.3257,8.06809,8.06809,0,0,1-1.7319-4.4788,12.081,12.081,0,0,1,.2742-2.6723c.0649-.3556.1287-.7118.178-1.0689a13.2542,13.2542,0,0,0,.0206-3.5339c-.0572-.4453-.1805-.6294-.2765-.6508a.46107.46107,0,1,1,.2151-.8967Z" class="colorfefefe svgShape"></path><path fill="#cce9ff" d="M160.5697,134.5828a3.77348,3.77348,0,0,1-2.1866,2.6625,2.2895,2.2895,0,0,1-.4116.1057,4.43913,4.43913,0,0,1-3.1971-.5766c-2.8325-1.5313-1.2404,3.9575-5.0777,4.5519-.1098.0264-.2192.0254-.3016.0521-3.0693.4098-4.5409-.2879-5.889.4663a1.70448,1.70448,0,0,0-.5235.3785.72115.72115,0,0,0-.1654.1353c-.7181.7051-1.0289,1.7698-2.108,3.0463a12.51206,12.51206,0,0,1-4.7642,3.1863,34.64533,34.64533,0,0,1-5.7932,1.9451c-.359.3526-.9862.1006-1.5294-.3696a3.00068,3.00068,0,0,1-.5691-.6074c-.0543-.0553-.0814-.0828-.0809-.1376a.57266.57266,0,0,1-.108-.1652,1.11883,1.11883,0,0,1-.1816-1.0966c.0003-.0274.0279-.0543.0556-.0815.0002-.0274.0277-.0545.0553-.0817.1418-.5461.2838-1.0921.4254-1.6109.2826-.9829.5649-1.9108.8739-2.7839,1.435-4.2842,3.1304-7.1152,5.3764-7.2863a2.81754,2.81754,0,0,1,.4655-.0232,5.50786,5.50786,0,0,1,.6558.1154,4.15515,4.15515,0,0,0,4.6381-1.3535,8.93055,8.93055,0,0,0,.6635-.733l.5816-.7337c.3879-.5165.8036-1.0874,1.2468-1.6582,2.2705-2.8532,4.9592-.557,7.3866.3958.0544.0279.1363.056.1909.0839,1.5276.5612,2.6121-1.3175,3.8539-2.4283l.0003-.0274c.7726-.6772,1.5977-1.1075,2.6314-.4138C159.4504,131.2608,161.222,132.0981,160.5697,134.5828Z" class="colorefefef svgShape"></path><path fill="#ffffff" d="M128.0138,150.175a.42261.42261,0,0,1-.0248-.5508c.5344-.6799,13.2538-16.6539,27.5791-16.2991a.42263.42263,0,1,1-.0212.845c-13.8987-.344-26.7645,15.8128-26.8928,15.9763a.42219.42219,0,0,1-.5936.0709A.41146.41146,0,0,1,128.0138,150.175Z" class="colorfff svgShape"></path><g opacity=".1" fill="#000000" class="color000 svgShape"><path d="M72.9608 88.4388c.7139.2614 1.4223.5507 2.1056.8596l.2304-.5087c-.6959-.3149-1.4169-.6097-2.1439-.876zM77.1022 90.3141c.6697.3673 1.3258.7603 1.9502 1.1685l.3056-.4682c-.6364-.4154-1.305-.816-1.9872-1.1904zM70.9506 87.1987c-.7335-.2096-1.49-.3957-2.2476-.554l-.1146.5469c.745.1556 1.4884.339 2.2094.5442zM86.1581 97.2599c-.47-.6097-.9732-1.2062-1.4961-1.7728l-.4104.3788c.5114.5545 1.0043 1.1385 1.4644 1.7356zM83.0197 93.8503c-.5638-.5158-1.1603-1.0179-1.7732-1.4927l-.3428.442c.6015.4656 1.186.9579 1.7384 1.4633zM88.6491 101.1705c-.3537-.6844-.7429-1.3612-1.1571-2.0107l-.4716.3002c.4055.6358.7865 1.2973 1.132 1.967zM76.0063 118.6719l.2008.5218a11.4629 11.4629 0 012.0964-.5873l-.0982-.5501A11.99378 11.99378 0 0076.0063 118.6719zM72.129 121.0374l.3678.4213a13.01978 13.01978 0 011.7575-1.2979l-.2926-.4759A13.59568 13.59568 0 0072.129 121.0374zM68.6321 126.7311l-.5076-.2336a18.17245 18.17245 0 00-.8149 2.1177l.5327.1681A17.66582 17.66582 0 0168.6321 126.7311zM69.2019 124.4988l.4737.2969a15.63969 15.63969 0 011.2903-1.7727l-.4279-.3602A16.3204 16.3204 0 0069.2019 124.4988zM67.3134 130.9184l-.5501-.1004a17.97472 17.97472 0 00-.2653 2.2552l.5578.0306A17.436 17.436 0 0167.3134 130.9184zM109.1469 131.4893a18.93447 18.93447 0 002.2148.488l.0874-.5524a18.25628 18.25628 0 01-2.1494-.4726zM101.222 127.2256a20.5376 20.5376 0 001.8 1.3776l.3144-.4607a20.2169 20.2169 0 01-1.7498-1.3404zM104.9574 129.7821a21.42614 21.42614 0 002.0478.9671l.2118-.5174a20.83925 20.83925 0 01-1.9955-.9409zM116.3383 101.1377l-.3733-.4159c-.5513.4962-1.1233.9732-1.7007 1.4191l.3405.4421C115.1943 102.1289 115.7772 101.6426 116.3383 101.1377zM124.2796 87.887l.5414.1408a15.65119 15.65119 0 00.4192-2.2356l-.5545-.0611A15.05011 15.05011 0 01124.2796 87.887zM119.47 97.8892l-.43-.3581c-.4672.5606-.965 1.1162-1.4791 1.6505l.4017.3875C118.4876 99.0255 118.9941 98.4601 119.47 97.8892zM122.6979 92.0001l.4999.251c.3482-.6937.6582-1.389.9202-2.0674l-.5218-.202C123.3408 90.6438 123.0384 91.3227 122.6979 92.0001zM121.6248 93.9349c-.3777.6167-.7903 1.2373-1.2269 1.8453l.4541.3264c.4454-.6195.8656-1.252 1.2488-1.8802zM106.49 106.2469l.1615.5349a21.72363 21.72363 0 002.1286-.7663l-.2161-.5152A21.19036 21.19036 0 01106.49 106.2469zM110.5572 104.55l.2642.4924c.656-.3504 1.3088-.7385 1.943-1.1517l-.3056-.4683C111.8388 103.8274 111.1991 104.2067 110.5572 104.55zM126.726 74.5177a5.16735 5.16735 0 00-7.5563 3.9682 5.50293 5.50293 0 00-.0335.6147 5.09585 5.09585 0 001.4308 3.5658l.067.0782a5.10044 5.10044 0 003.6775 1.5314 5.17666 5.17666 0 003.6776-1.5314l.067-.0782a5.09585 5.09585 0 001.4308-3.5658A5.18 5.18 0 00126.726 74.5177zM121.8859 127.6908a3.91635 3.91635 0 00-6.3378 3.0851.95863.95863 0 00.0112.1788 3.82436 3.82436 0 00.0675.5304 12.88426 12.88426 0 01-1.8024.1287l-.1878-.0011-.0087.5589.1965.0011a13.43707 13.43707 0 001.9445-.1417 3.79864 3.79864 0 00.8634 1.4499l.0448.0559a3.92624 3.92624 0 005.5777 0l.0559-.0559a3.91172 3.91172 0 00-.4248-5.7901zM101.8999 123.2085l.1453-.1676v-.0112a11.37722 11.37722 0 00.2802-15.4658 18.58394 18.58394 0 002.1244-.2532l-.0982-.5502a17.96748 17.96748 0 01-2.1843.256l.0213.3895a11.49061 11.49061 0 00-2.5354-2.0933 11.3763 11.3763 0 00-9.6624-.9815c-.1254-.3519-.2338-.7107-.3735-1.0539l-.5174.2106c.1368.3371.2435.6896.3666 1.0353a11.46337 11.46337 0 00-7.1613 10.6149 10.92609 10.92609 0 00.067 1.2072 11.33248 11.33248 0 00.3189 1.7331 13.231 13.231 0 00-2.2109-.2121l-.0055.5589a12.66071 12.66071 0 012.1744.2118l.0769-.4169a11.19935 11.19935 0 002.7536 4.8096l.1342.1788A11.52348 11.52348 0 0099.207 125.217c.1273.1465.2498.2962.382.4389l.4104-.3799c-.106-.1142-.2035-.2346-.3061-.3513A11.61452 11.61452 0 00101.8999 123.2085zM63.1575 92.1229a6.41308 6.41308 0 001.8545-5.4438c.4459.0407.8939.0711 1.3337.1299l.0743-.5534c-.485-.0652-.9791-.1005-1.4712-.1436a6.88368 6.88368 0 00-4.8764-5.3794 6.37951 6.37951 0 00-1.9115-.2794 6.91 6.91 0 00-6.8967 6.9079 6.25893 6.25893 0 00.1118 1.2184 6.65247 6.65247 0 001.7997 3.5434l.0782.1006a6.90863 6.90863 0 009.8141 0zM70.1771 135.3029a4.59892 4.59892 0 00-7.1649 3.8117 4.57027 4.57027 0 001.2743 3.1745l.0558.0671a4.61465 4.61465 0 006.5279 0l.0559-.0671a4.51758 4.51758 0 001.2742-3.1745A4.60033 4.60033 0 0070.1771 135.3029z" fill="#000000" class="color000 svgShape"></path></g><path fill-rule="evenodd" d="M60.3545 98.0067a2.95418 2.95418 0 00-2.3615-.3011l-.0001.0002v-.0002c-5.1663-1.0654-8.5356-1.8693-10.1538-2.4184.0842-.3246-.0756-.5415-.397-.4868l-.4129.0702c-1.4837-3.1115-2.3471-4.8487-2.5842-5.1977-.0241-.0015-.0474.0024-.0714.0015l.0002-.0143a14.08879 14.08879 0 00-2.155-.263 1.30772 1.30772 0 01-.7353-.9266 1.29667 1.29667 0 00.615-.3817 5.39421 5.39421 0 00.3078-3.3399 5.08583 5.08583 0 002.5161-.6259q3.21315-1.65225.9155-5.3893c-1.9743-2.4562-3.2644-.7737-5.5877 2.5459a1.521 1.521 0 00-2.5719-.2087q-2.2377.15525-2.0745 2.7047-1.07685 2.03055 1.084 2.9039-.43785 1.3131 1.3116 1.8579a1.57809 1.57809 0 001.1398-.0154 1.54066 1.54066 0 01-.7551 1.268c.0141.0079.0275.0125.0416.0202a12.18847 12.18847 0 00-3.0978 1.3592l-.0011.0048-.0229-.0122a16.09919 16.09919 0 00-2.757 10.6935c.0759 1.4103.8929 2.0337 2.4314 1.8907a37.28012 37.28012 0 00.9289 3.8751c.0645.0082.1279.0066.1923.0138a4.1298 4.1298 0 00.0728 1.7341 2.19863 2.19863 0 00.8762 1.3559H33.6851c-1.4883 0-3.8984 2.094-3.8984 3.5822a2.62017 2.62017 0 00-.0528.5533v10.4572a2.684 2.684 0 002.7 2.6867h1.2775l4.4648 4.4648a.83907.83907 0 001.317-.1712 3.09873 3.09873 0 00.6984-.5974c-.0035.0249-.0112.0434-.0144.0688a24.22834 24.22834 0 005.8445 1.6668c.8938-1.0016-1.9142-1.2357-2.4522-2.9555-.0673.02-.1212.0215-.1859.0379q.78975-1.29735 1.5147-2.5142h7.2252a2.8167 2.8167 0 00.5927-.0658h.0132c1.4883 0 3.3584-2.5683 3.3584-4.0565V113.425a2.68868 2.68868 0 00-.1754-.9354 5.6555 5.6555 0 002.0208-2.6364q.30465-2.89545-10.6745-6.0499a15.954 15.954 0 01-1.7923-3.9476l.1332-.0227a1.28537 1.28537 0 00.8717-.7732l.0554-.1514c2.2593.4714 6.1128.5476 11.4214.0822l.0001.0011s.3502.3623 1.7649.3848 3.0709-1.159 2.9417-1.3698C62.3741 97.5488 60.9958 98.2088 60.3545 98.0067zM41.2731 130.019a1.33114 1.33114 0 00-.397.2177v-2.2322h.8298Q41.4902 128.98355 41.2731 130.019zM157.3259 117.6687c-.0447-.2459-.1006-.4918-.1565-.7377-1.1737-5.4884-3.1298-8.9311-5.8013-10.1049-.1341-.0446-.2795-.1005-.4136-.1452a29.677 29.677 0 00-3.0627-.8607c-1.006-.6148-.8495-1.2743-.5142-2.4815a2.24076 2.24076 0 001.2296-.7154 3.34291 3.34291 0 00.2794-.3801c.4919-.8047.2683-1.1289.8831-2.2579a2.41622 2.41622 0 00-1.8667-3.5098 2.12541 2.12541 0 00-2.705-.8048 2.69928 2.69928 0 00-.3131.1565c-1.3748.7936-1.9002-1.5202-1.9002-1.5202-1.319 1.6655-1.3413 3.8563-.3465 4.4934a7.06094 7.06094 0 00-.2459 3.9459 1.54051 1.54051 0 001.7996 1.0283c.0895 1.0172-.1229 1.2631-1.2072 1.319a.10157.10157 0 00-.0111.0559 32.0019 32.0019 0 00-3.5881 0c-.0112.0223-.0112.0335-.0224.0447-.0112-.0224-.0223-.0335-.0223-.0559q-2.90085-1.9785-6.1032-3.7893c-1.0507-4.2923-1.5761-8.3163-2.5038-11.8038.503-2.7833-.3353-5.276-.8048-5.276-.6931 0 .4135 1.3638-.8719 2.6157-1.0172.9724.0671 2.705.0671 2.705a40.36563 40.36563 0 00.5924 13.2793c.4471 2.4926 3.0404 4.46 7.6345 7.4556-.1007 2.0009.313 4.1694.3912 7.0644a12.04906 12.04906 0 10-1.4978 22.8141c.1117 2.9956.3912 6.2149.8047 9.6912a31.88464 31.88464 0 003.6105-.8049q.5868-6.70665.9948-10.3954c.3577-.9389.7042-1.8331 1.0507-2.705.2348-.3018.4696-.6259.6819-.9613a12.10242 12.10242 0 001.0508-2.079c.3241 1.2742.6594 2.582 1.0283 3.9569a38.47518 38.47518 0 003.1634 8.864 26.62126 26.62126 0 004.281-3.0515q-.82155-2.96775-1.5648-5.3542a34.59539 34.59539 0 00-.2348-12.4969c.2236-.067.436-.1341.6707-.2012-.123-.8047-.2235-1.5984-.313-2.4032C155.6939 120.7314 157.65 119.1889 157.3259 117.6687zm-6.2037.7154c-.0671-1.2855-.1117-2.5709-.1229-3.8676.5477.8049 1.2183 1.6879 2.0678 2.7051C152.43 117.6128 151.7705 117.9929 151.1222 118.3841zm-28.2017 23.5071a2.79532 2.79532 0 00-2.3474 1.2966l-3.2751 5.1306a39.29261 39.29261 0 005.7007 1.4866l2.3027-3.6104a2.78192 2.78192 0 00.1788-2.6715l2.5374-3.9905-1.2855-.816-1.2743-.816z" opacity=".1" fill="#000000" class="color000 svgShape"></path><path fill="#bec6e5" d="M86.0454 106.0255h-.5589c0-.3733-.0071-.7412-.0213-1.1079l.5589-.0219Q86.0454 105.4558 86.0454 106.0255zM85.2851 102.6482c-.0911-.7521-.2156-1.5064-.3695-2.24l.5469-.1157c.1572.751.2844 1.5206.3772 2.288zm-.9322-4.439c-.2194-.7226-.4748-1.4425-.7576-2.1389l.5175-.2107c.2898.7122.5501 1.448.775 2.187zm-1.705-4.1999c-.3455-.6697-.7265-1.3312-1.132-1.967l.4715-.3002c.4143.6495.8034 1.3263 1.1571 2.0107zm-2.4365-3.8254c-.4601-.5971-.9529-1.1811-1.4643-1.7357l.4104-.3787c.5229.5665 1.0261 1.163 1.496 1.7727zm-3.0739-3.3387c-.5523-.5054-1.1369-.9977-1.7383-1.4632l.3427-.4421c.6129.4748 1.2095.9769 1.7733 1.4927zM73.5478 84.065c-.6244-.4083-1.2804-.8013-1.9501-1.1686l.2685-.4901c.6823.3744 1.3509.775 1.9873 1.1904zm-3.9859-2.1843c-.6833-.3089-1.3918-.5982-2.1057-.8596l.1921-.5251c.727.2664 1.448.5611 2.1439.876zm-4.2687-1.5626c-.721-.2052-1.4643-.3886-2.2093-.5442l.1146-.5469c.7575.1583 1.514.3444 2.2476.554zM49.54 79.9431l-.1299-.5436c.745-.1779 1.5097-.3302 2.2727-.4524l.0884.5523C51.0224 79.6189 50.2714 79.7685 49.54 79.9431zm11.3012-.5518c-.7466-.0998-1.508-.1741-2.264-.2205l.0339-.5578c.7696.047 1.5446.1228 2.3043.2249zm-6.8121-.1681l-.0469-.5567c.7647-.0649 1.543-.1026 2.3136-.1113l.0066.5589C55.5454 79.1228 54.7807 79.1594 54.0291 79.2232zM63.0484 134.3894a14.15591 14.15591 0 01-1.0081-2.0435l.5196-.2052a13.71029 13.71029 0 00.9677 1.9627zm-1.6811-4.2158a15.78414 15.78414 0 01-.3438-2.2475l.5567-.0459a15.334 15.334 0 00.3318 2.169zm.184-4.4875l-.5578-.0305a17.95526 17.95526 0 01.2652-2.2553l.5502.1005A17.43223 17.43223 0 0061.5513 125.6861zm.7865-4.3205l-.5327-.1681a18.20363 18.20363 0 01.8148-2.1177l.5076.2336A17.64728 17.64728 0 0062.3378 121.3656zm1.8333-3.9876l-.4738-.2969a16.33289 16.33289 0 011.3361-1.836l.4279.3602A15.64456 15.64456 0 0064.1711 117.378zm2.8212-3.3369l-.3679-.4214a13.59658 13.59658 0 011.8328-1.3525l.2926.476A13.00274 13.00274 0 0066.9923 114.0411zm14.2982-1.4126a17.06134 17.06134 0 00-2.0271-.8492l.1812-.5283a17.56131 17.56131 0 012.0937.8776zm-10.5879-.8525l-.2008-.5218a12.00171 12.00171 0 012.199-.6156l.0982.5501A11.47086 11.47086 0 0070.7026 111.776zm6.442-.5567a12.66071 12.66071 0 00-2.1744-.2118l.0054-.5589a13.24264 13.24264 0 012.2705.2205zM108.3198 124.755l-.1965-.0011.0088-.5589.1877.0011a12.81178 12.81178 0 001.9922-.1506l.0873.5523A13.384 13.384 0 01108.3198 124.755zm-2.4626-.1954a18.93394 18.93394 0 01-2.2148-.4879l.1528-.5371a18.27978 18.27978 0 002.1493.4727zm6.7558-.5436l-.1986-.5218a8.886 8.886 0 001.586-.7914l.2991.4716A9.32515 9.32515 0 01112.613 124.016zm-11.1123-.6844a21.44016 21.44016 0 01-2.0479-.9672l.2642-.4912a20.86268 20.86268 0 001.9954.941zm-3.9832-2.1461a20.51958 20.51958 0 01-1.8001-1.3776l.3646-.4235a20.23328 20.23328 0 001.7498 1.3405zm-3.4331-2.9473a18.42076 18.42076 0 01-1.4365-1.7563l.4541-.3253a17.71693 17.71693 0 001.3929 1.7017zm-2.6351-3.6841a15.743 15.743 0 01-.9158-2.0817l.5261-.1877a15.1916 15.1916 0 00.8831 2.0074zM96.6933 100.1572l-.0306-.5584a17.96517 17.96517 0 002.1843-.256l.0983.5502A18.52014 18.52014 0 0196.6933 100.1572zm-2.2716-.0273a16.82542 16.82542 0 01-2.2476-.3302l.1179-.5458a16.53909 16.53909 0 002.1734.3193zm6.7253-.7658l-.1616-.5349a21.20144 21.20144 0 002.0741-.7466l.2161.5152A21.74233 21.74233 0 01101.147 99.3641zm4.1699-1.7394l-.2642-.4923c.6418-.3433 1.2815-.7227 1.9015-1.1276l.3057.4682C106.6257 96.8862 105.9729 97.2743 105.3169 97.6247zm3.7834-2.4594l-.3406-.4421c.5775-.4459 1.1495-.9229 1.7007-1.419l.3733.4159C110.2727 94.2249 109.6898 94.7112 109.1003 95.1653zm3.3577-3.0138l-.4017-.3876c.5142-.5343 1.0119-1.0899 1.4791-1.6504l.4301.358C113.4896 91.0424 112.9831 91.6078 112.458 92.1515zm2.8895-3.4626l-.4541-.3264c.4366-.608.8492-1.2285 1.2269-1.8453l.4759.2915C116.2131 87.4369 115.7928 88.0695 115.3475 88.6889zm2.3458-3.8555l-.5-.251c.3406-.6774.643-1.3563.8984-2.0184l.5218.202C118.3515 83.4444 118.0415 84.1397 117.6933 84.8334zm1.6232-4.2233l-.5415-.1408a15.01993 15.01993 0 00.4061-2.1559l.5545.0611A15.66189 15.66189 0 01119.3165 80.6101zm-.1005-4.4722a8.34016 8.34016 0 00-.3034-1.6352l.5349-.1594a8.81281 8.81281 0 01.3253 1.7465z" class="colorbec6e5 svgShape"></path><path fill="#ffffff" d="M123.7685,71.6782a4.88826,4.88826,0,0,1-1.4346,3.4819v.0149a4.9785,4.9785,0,0,1-7.0535,0v-.0149a4.88835,4.88835,0,0,1-1.4347-3.4819,4.9614,4.9614,0,1,1,9.9228,0Z" class="colorfff svgShape"></path><path fill="#4f6683" d="M121.2214,67.1001a5.1671,5.1671,0,0,0-7.5562,3.9681,5.50293,5.50293,0,0,0-.0335.6147,5.09576,5.09576,0,0,0,1.4307,3.5658l.0671.0782a5.10027,5.10027,0,0,0,3.6775,1.5314,5.17625,5.17625,0,0,0,3.6775-1.5314l.0671-.0782a5.09576,5.09576,0,0,0,1.4307-3.5658A5.17983,5.17983,0,0,0,121.2214,67.1001Zm.9054,7.981a4.79969,4.79969,0,0,1-3.3198,1.3413,4.66609,4.66609,0,0,1-3.3086-1.3413l-.0671-.0783a4.67646,4.67646,0,0,1-1.3749-3.3199,3.84389,3.84389,0,0,1,.0447-.6259,4.74346,4.74346,0,0,1,4.7059-4.1246,4.61721,4.61721,0,0,1,2.4368.6819,4.72789,4.72789,0,0,1,2.3138,4.0686,4.65718,4.65718,0,0,1-1.3749,3.3199Z" class="color9fabf4 svgShape"></path><path fill="#4f6683" d="M120.3735,73.1527a2.57074,2.57074,0,1,0-3.1349.0013,3.38793,3.38793,0,0,0-1.5241,1.6582v.0131a4.36577,4.36577,0,0,0,6.1853,0v-.0131A3.38763,3.38763,0,0,0,120.3735,73.1527Z" class="color9fabf4 svgShape"></path><path fill="#ffffff" d="M117.7245,123.3594a3.70339,3.70339,0,0,1-1.0869,2.638v.0114a3.77211,3.77211,0,0,1-5.3441,0v-.0114a3.70381,3.70381,0,0,1-1.0869-2.638,3.759,3.759,0,1,1,7.5179,0Z" class="colorfff svgShape"></path><path fill="#f6ac27" d="M116.3814,120.2731a3.91635,3.91635,0,0,0-6.3378,3.0851.96023.96023,0,0,0,.0112.1789,3.81476,3.81476,0,0,0,1.073,2.5262l.0447.0558a3.92636,3.92636,0,0,0,5.5778,0l.0559-.0558a3.912,3.912,0,0,0-.4248-5.7902Zm.1006,5.6672a3.64808,3.64808,0,0,1-2.515,1.0172,3.5596,3.5596,0,0,1-2.515-1.0172l-.0448-.0559a3.5073,3.5073,0,0,1-1.0283-2.3026,1.495,1.495,0,0,1-.0112-.2236,3.61132,3.61132,0,0,1,3.5993-3.5993,3.5964,3.5964,0,0,1,2.5597,6.1255Z" class="colorf6ac27 svgShape"></path><path fill="#f6ac27" d="M115.1523,124.4766a1.94774,1.94774,0,1,0-2.3752.0009,2.5672,2.5672,0,0,0-1.1547,1.2564v.0099a3.30761,3.30761,0,0,0,4.6863,0v-.0099A2.56634,2.56634,0,0,0,115.1523,124.4766Z" class="colorf6ac27 svgShape"></path><path fill="#ffffff" d="M99.235,107.7153a10.81606,10.81606,0,0,1-3.1743,7.704v.0331a11.01564,11.01564,0,0,1-15.6066,0v-.0331a10.81573,10.81573,0,0,1-3.1744-7.704,10.97765,10.97765,0,1,1,21.9553,0Z" class="colorfff svgShape"></path><path fill="#2e1c67" d="M94.1486,97.895a11.45525,11.45525,0,0,0-17.348,9.8254,10.90189,10.90189,0,0,0,.0671,1.2072,11.2191,11.2191,0,0,0,3.1074,6.6844l.1341.1788a11.50952,11.50952,0,0,0,16.2862,0l.1453-.1676v-.0112a11.28485,11.28485,0,0,0,3.1745-7.8916A11.45636,11.45636,0,0,0,94.1486,97.895Zm1.442,17.3481a10.4631,10.4631,0,0,1-7.3327,2.9733,10.35749,10.35749,0,0,1-7.3215-2.9621l-.1453-.1677a10.37434,10.37434,0,0,1-3.0292-7.3662,10.02836,10.02836,0,0,1,.1118-1.5425,10.49683,10.49683,0,0,1,20.8803,1.5425,10.374,10.374,0,0,1-3.0293,7.3662Z" class="color2e1c67 svgShape"></path><path fill="#0b4870" d="M91.7231,110.9778a5.68821,5.68821,0,1,0-6.9363.0028,7.49665,7.49665,0,0,0-3.3723,3.669v.0291a9.65993,9.65993,0,0,0,13.6857,0v-.0291A7.49551,7.49551,0,0,0,91.7231,110.9778Z" class="color4837bf svgShape"></path><path fill="#ffffff" d="M59.2738,79.9432a6.518,6.518,0,0,1-1.9128,4.6424v.0199a6.63816,6.63816,0,0,1-9.4046,0v-.0199a6.518,6.518,0,0,1-1.9128-4.6424,6.6151,6.6151,0,1,1,13.2302,0Z" class="colorfff svgShape"></path><path fill="#f6ac27" d="M54.5678,73.3149a6.37885,6.37885,0,0,0-1.9114-.2794,6.91,6.91,0,0,0-6.8967,6.9079,6.266,6.266,0,0,0,.1117,1.2184,6.65387,6.65387,0,0,0,1.7997,3.5434l.0783.1006a6.90863,6.90863,0,0,0,9.8141,0l.0894-.1006a6.8156,6.8156,0,0,0,1.9114-4.7618A6.88672,6.88672,0,0,0,54.5678,73.3149Zm2.5151,11.1667a6.34326,6.34326,0,0,1-4.4265,1.7885,6.25774,6.25774,0,0,1-4.4152-1.7885l-.0782-.1005a6.03629,6.03629,0,0,1-1.6991-3.1522,6.11958,6.11958,0,0,1-.1341-1.2855,6.335,6.335,0,0,1,6.3266-6.3266,6.045,6.045,0,0,1,2.068.3577,6.31174,6.31174,0,0,1,4.2587,5.9689,6.22811,6.22811,0,0,1-1.822,4.4377Z" class="colorf6ac27 svgShape"></path><path fill="#f6ac27" d="M54.7471,81.9091a3.42764,3.42764,0,1,0-4.1798.0017,4.51734,4.51734,0,0,0-2.0321,2.211v.0175a5.82118,5.82118,0,0,0,8.247,0v-.0175A4.51684,4.51684,0,0,0,54.7471,81.9091Z" class="colorf6ac27 svgShape"></path><path fill="#ffffff" d="M66.5092,131.6975a4.3409,4.3409,0,0,1-1.274,3.092v.0133a4.42129,4.42129,0,0,1-6.2637,0v-.0133a4.34132,4.34132,0,0,1-1.274-3.092,4.40585,4.40585,0,0,1,8.8117,0Z" class="colorfff svgShape"></path><path fill="#4f6683" d="M64.6726,127.8853a4.59888,4.59888,0,0,0-7.165,3.8116,4.57027,4.57027,0,0,0,1.2743,3.1745l.0559.0671a4.61453,4.61453,0,0,0,6.5278,0l.056-.0671a4.518,4.518,0,0,0,1.2742-3.1745A4.60027,4.60027,0,0,0,64.6726,127.8853Zm.3689,6.8296a4.225,4.225,0,0,1-5.8796.0112l-.0558-.0671a4.05305,4.05305,0,0,1-.9949-1.632,4.10136,4.10136,0,0,1-.2236-1.3301,4.21707,4.21707,0,0,1,4.2141-4.214,4.21279,4.21279,0,0,1,2.9957,7.1761Z" class="color9fabf4 svgShape"></path><path fill="#4f6683" d="M63.4943,133.0069a2.28286,2.28286,0,1,0-2.7839.0011,3.00914,3.00914,0,0,0-1.3534,1.4726v.0116a3.87689,3.87689,0,0,0,5.4927,0v-.0116A3.008,3.008,0,0,0,63.4943,133.0069Z" class="color9fabf4 svgShape"></path><path fill-rule="evenodd" d="M56.3024,152.9302c0,1.7241-7.5197,3.1217-16.7957,3.1217s-16.7958-1.3976-16.7958-3.1217,7.5197-3.1216,16.7958-3.1216S56.3024,151.2062,56.3024,152.9302Z" opacity=".1" fill="#000000" class="color000 svgShape"></path><path fill="#124350" fill-rule="evenodd" d="M50.5833,106.0073v10.4572c0,1.4883-1.8702,4.0565-3.3585,4.0565h-.0131l-11.8402-1.3698v3.859a3.08955,3.08955,0,0,1-1.3828,1.8702c-.2766.1712-.5401.2107-.7113.0526l-3.8061-5.7818H28.1805a2.69232,2.69232,0,0,1-2.6999-2.6867l-.8692-6.9012-.3293-2.6736c0-1.4883,2.4102-3.5823,3.8984-3.5823H47.8834A2.69513,2.69513,0,0,1,50.5833,106.0073Z" class="color8793cc svgShape"></path><path fill="#4f6683" fill-rule="evenodd" d="M49.319,107.4429v10.4572a2.682,2.682,0,0,1-2.0942,2.6209h-.0131a2.8167,2.8167,0,0,1-.5927.0658H34.1072v3.8589a.79694.79694,0,0,1-.1185.4347.83918.83918,0,0,1-1.3171.1712l-4.4647-4.4648H26.9294a2.684,2.684,0,0,1-2.7-2.6867V107.4429a2.62508,2.62508,0,0,1,.0527-.5532,2.68959,2.68959,0,0,1,2.6473-2.1468H46.619A2.687,2.687,0,0,1,49.319,107.4429Z" class="color9fabf4 svgShape"></path><path fill="#ffffff" fill-rule="evenodd" d="M33.541 109.5265H28.4842a.83845.83845 0 01-.8384-.8384h0a.83845.83845 0 01.8384-.8384H33.541a.83845.83845 0 01.8384.8384h0A.83845.83845 0 0133.541 109.5265zM45.5318 113.1401H28.4842a.83845.83845 0 01-.8384-.8384h0a.83838.83838 0 01.8384-.8384H45.5318a.83838.83838 0 01.8384.8384h0A.83845.83845 0 0145.5318 113.1401z" class="colorfff svgShape"></path><path fill="#ffffff" d="M28.4841,115.0769H45.5319a.8383.8383,0,0,1,.8383.8383v0a.8384.8384,0,0,1-.8384.8384H28.4842a.8384.8384,0,0,1-.8384-.8384v0A.8383.8383,0,0,1,28.4841,115.0769Z" class="colorfff svgShape"></path><path fill="#ff9803" fill-rule="evenodd" d="M38.9404,82.2551q.3609.5313,2.6468,5.3287,1.6953.80565,10.9012,2.7041a9.72054,9.72054,0,0,1,.1675,1.2673c-7.5823.6807-12.2534.2703-13.589-.8185a10.88241,10.88241,0,0,1-4.2379-5.7629Q36.70055,82.1154,38.9404,82.2551Z" class="colorff9803 svgShape"></path><path fill="#0e538c" fill-rule="evenodd" d="M30.6677,101.9515c.446,2.7545,7.0097,3.3264,10.7571,3.1728q-2.77995,3.52065-5.7822,18.0748-.76215.0093,1.7975.6253,11.61315-18.9717,10.108-21.6845-2.375-4.0425-12.83-4.1695C30.6978,99.1118,30.2178,99.5648,30.6677,101.9515Z" class="color27187f svgShape"></path><path fill="#ff9803" fill-rule="evenodd" d="M35.7728,122.599q-.9189.3123-1.1002,1.7528a24.22962,24.22962,0,0,0,5.8445,1.6668c.8938-1.0017-1.9141-1.2357-2.4522-2.9555Q36.38925,123.5602,35.7728,122.599Z" class="colorff9803 svgShape"></path><path fill="#0e538c" fill-rule="evenodd" d="M37.6337,98.9775a26.44444,26.44444,0,0,1,8.5111,3.1594,105.76568,105.76568,0,0,0-12.7634,8.6597l1.0245,1.5492q16.81785-5.524,18.0227-9.9103.30945-2.94045-11.0101-6.148Z" class="color402b99 svgShape"></path><path fill="#ffae2c" fill-rule="evenodd" d="M30.4026,100.2036q6.00285.76125,11.3719-3.7826-3.2481-4.9926-2.9053-14.1786a12.1033,12.1033,0,0,0-9.0459,1.5094A29.75422,29.75422,0,0,0,30.4026,100.2036Z" class="colorffae2c svgShape"></path><path fill="#ff9803" fill-rule="evenodd" d="M34.1114 110.2138a1.875 1.875 0 00-1.9694.6356 24.23109 24.23109 0 003.4057 5.0336c1.3286-.1928-.672-2.177.0213-3.8403Q33.9658 111.34655 34.1114 110.2138zM29.7994 83.7443a16.09891 16.09891 0 00-2.757 10.6934q.24555 4.55865 10.677-1.7011a1.50527 1.50527 0 00-.3306-1.7739 48.77351 48.77351 0 01-6.7669 1.6761 14.64289 14.64289 0 011.7189-4.7997Q31.8845 84.66435 29.7994 83.7443z" class="colorff9803 svgShape"></path><path fill="bisque" fill-rule="evenodd" d="M32.8796,82.3723a1.695,1.695,0,0,0,.6638-2.1168,3.50376,3.50376,0,0,1,1.6319-.3679,1.56944,1.56944,0,0,1,.8253.0169q-.3678,1.62495.7778,2.1174Q35.191,83.65285,32.8796,82.3723Z" class="colorbisque svgShape"></path><path fill="bisque" fill-rule="evenodd" d="M31.9093,75.619a4.30653,4.30653,0,0,0,.7811,4.3655q2.85885,1.84275,3.9036.6865a5.8027,5.8027,0,0,0-.5555-5.4501A4.28941,4.28941,0,0,0,31.9093,75.619Z" class="colorbisque svgShape"></path><path fill="#000059" fill-rule="evenodd" d="M34.0154,76.656a5.92172,5.92172,0,0,0,5.4025.0493q3.21315-1.65225.9155-5.3893c-1.9743-2.4562-3.2645-.7737-5.5877,2.546a1.521,1.521,0,0,0-2.5719-.2088q-2.2377.15525-2.0746,2.7047-1.07685,2.0307,1.084,2.904-.4377,1.313,1.3117,1.8578.9552.2532,1.3234-.1484a2.25886,2.25886,0,0,0,.0162-1.5865q-1.38825-.69525-.7689-1.3213.41775-.14745,1.2331.9857A3.99165,3.99165,0,0,0,34.0154,76.656Z" class="color000059 svgShape"></path><path fill="#2e1c67" fill-rule="evenodd" d="M40.095,92.4153l-1.7932.3049c-.3467.0589-.5185-.1917-.3837-.5599l1.3544-3.6995a1.2861,1.2861,0,0,1,.8718-.7733l1.7932-.3048c.3467-.0589.5185.1917.3838.5598l-1.3545,3.6996A1.28572,1.28572,0,0,1,40.095,92.4153Z" class="color2e1c67 svgShape"></path><path fill="#ffffff" fill-rule="evenodd" d="M40.9162,88.5781a.36782.36782,0,0,1-.272.3159c-.1502.0425-.272-.0301-.272-.1621a.36793.36793,0,0,1,.272-.3159C40.7944,88.3736,40.9162,88.4461,40.9162,88.5781Z" class="colorfff svgShape"></path><path fill="bisque" fill-rule="evenodd" d="M37.7194 92.7366a1.67617 1.67617 0 001.1666-.4963c.8108-1.1557.3223-1.9096.3223-1.9096-.4584-.7255-1.2014.3256-1.8195.632zM52.4437 91.5741s.3502.3622 1.7649.3847 3.0709-1.159 2.9416-1.3698c-.2806-.4579-1.6589.2021-2.3003 0a2.95445 2.95445 0 00-2.3615-.3011A1.98685 1.98685 0 0052.4437 91.5741z" class="colorbisque svgShape"></path><path fill-rule="evenodd" d="M152.7789,153.7712c0,.3101-1.4193.5614-3.1703.5614s-3.1702-.2513-3.1702-.5614,1.4193-.5613,3.1702-.5613S152.7789,153.4612,152.7789,153.7712Z" opacity=".1" fill="#000000" class="color000 svgShape"></path><path fill="#0e538c" fill-rule="evenodd" d="M133.564,99.4361q-2.9019-1.98555-6.1006-3.7874c-1.0558-4.2992-1.5729-8.3255-2.5024-11.8082a1.7493,1.7493,0,0,0-1.6154.0492,40.39794,40.39794,0,0,0,.6003,13.2787c.4988,2.8028,3.728,4.9467,9.4855,8.6528C134.8682,103.9308,134.8449,102.5428,133.564,99.4361Z" class="color2c2477 svgShape"></path><path fill="#ffae2c" fill-rule="evenodd" d="M132.7797,115.7211q-4.3836,10.75275-.6946,34.2143.162,1.18065,2.2385.087.964-11.6787,1.555-17.0338,4.90035-12.7488,7.1595-16.1983Q135.56585,111.9936,132.7797,115.7211Z" class="colorffae2c svgShape"></path><path fill="#ffae2c" fill-rule="evenodd" d="M136.5315,117.2192q.9654,5.82615,3.1634,13.9766,1.149,6.396,9.0054,19.8196.7311.2517,1.8573-1.0159-2.89125-11.5665-4.9884-18.3389a31.90129,31.90129,0,0,0-1.0966-15.5356A7.20991,7.20991,0,0,0,136.5315,117.2192Z" class="colorffae2c svgShape"></path><path fill="#0e538c" fill-rule="evenodd" d="M131.0813,119.9999q3.093,2.71425,14.9212-1.0394a71.38355,71.38355,0,0,1-.4083-17.8379,29.64854,29.64854,0,0,0-11.9781-1.6748C129.1499,105.1026,133.7608,108.456,131.0813,119.9999Z" class="color402b99 svgShape"></path><path fill="#0e538c" fill-rule="evenodd" d="M145.5942,101.1226c2.7958,1.2228,4.795,4.92,5.9521,10.837q.721,3.29055-12.6783,6.6172a1.77232,1.77232,0,0,1-.7806-1.6186q4.6824-2.69805,9.2059-5.4407c-2.418-2.9134-3.4899-4.7389-3.8392-6.5646C143.2621,102.7151,143.7526,100.9907,145.5942,101.1226Z" class="color2c2477 svgShape"></path><path fill="bisque" fill-rule="evenodd" d="M137.2114,99.3881c1.4626-.0797,1.3305-.4935,1.0477-2.6697a4.31265,4.31265,0,0,1,3.5493.177c-.4385,1.7088-.8918,2.4927.3208,3.2296C139.688,102.5375,136.1543,102.2297,137.2114,99.3881Z" class="colorbisque svgShape"></path><path fill="bisque" fill-rule="evenodd" d="M137.8207,91.0219a8.07209,8.07209,0,0,0-1.2077,6.0145c.4307,1.2568,1.7559,1.5588,5.157-.0386a5.06129,5.06129,0,0,0,.4129-5.2883A4.69908,4.69908,0,0,0,137.8207,91.0219Z" class="colorbisque svgShape"></path><path fill="#0e538c" fill-rule="evenodd" d="M132.0112 149.8614c-1.0668 1.8275-3.7401 1.8699-3.0023 2.9105.9076.4407 4.6999-.0967 5.9632-.8941a2.9794 2.9794 0 00-.539-2.0594A1.87094 1.87094 0 01132.0112 149.8614zM148.1095 150.0071c-.2312 2.1033-2.6562 3.2294-1.5589 3.8799 1.0084.0334 4.2543-1.9999 5.084-3.2422a2.97931 2.97931 0 00-1.3301-1.6621A1.87088 1.87088 0 01148.1095 150.0071z" class="color2c2477 svgShape"></path><path fill="#124350" d="M133.9156,112.6785a12.05451,12.05451,0,1,0,3.6999,16.6414A12.0465,12.0465,0,0,0,133.9156,112.6785Zm-11.2545,17.6677a8.89332,8.89332,0,1,1,12.2882-2.7247A8.885,8.885,0,0,1,122.6611,130.3462Z" class="color8793cc svgShape"></path><path fill="#ffffff" d="M134.9493,127.6215a8.89334,8.89334,0,1,1-2.7321-12.2768A8.89664,8.89664,0,0,1,134.9493,127.6215Z" opacity=".18" class="colorfff svgShape"></path><rect width="3.041" height="8.55" x="117.148" y="132.345" fill="#124350" transform="rotate(32.498 118.67 136.62)" class="color8793cc svgShape"></rect><path fill="#2e1c67" d="M108.9302,151.9089h0a2.80461,2.80461,0,0,1-.8586-3.8722l6.7254-10.5577a2.80452,2.80452,0,0,1,3.8722-.8586h0a2.8046,2.8046,0,0,1,.8586,3.8721l-6.7254,10.5577A2.80464,2.80464,0,0,1,108.9302,151.9089Z" class="color2e1c67 svgShape"></path><path fill="bisque" fill-rule="evenodd" d="M138.0874 116.9582c-.9551-.3777-3.1215-.1263-3.1664.7495s.4408 2.615 2.2006 1.9761 1.7464-1.107 1.7464-1.107zM124.961 83.8405c.5062-2.7802-.3321-5.2725-.8112-5.2725-.6851 0 .4192 1.3632-.8671 2.6058-1.0173.9826.0629 2.7159.0629 2.7159z" class="colorbisque svgShape"></path><path fill-rule="evenodd" d="M137.2114,88.6053c-1.7066,2.1557-1.2575,5.2097.8084,4.6034s1.6168.8252.6962,1.5354a1.48192,1.48192,0,0,0,.9992-.3902c.3032-.3817.9319-.219.7523.3902s-1.033.4744-1.033.8449-.0703,1.6268,1.013,1.9754a2.24934,2.24934,0,0,0,2.6697-1.0323c.4828-.8009.2658-1.1284.8833-2.253a2.4209,2.4209,0,0,0-1.8713-3.5126,2.15363,2.15363,0,0,0-3.024-.6492C137.7357,90.9135,137.2114,88.6053,137.2114,88.6053Z" fill="#000000" class="color000 svgShape"></path></g></svg></g></svg>