<svg id="SvgjsSvg1180" width="360" height="360" xmlns="http://www.w3.org/2000/svg" version="1.1" xmlns:xlink="http://www.w3.org/1999/xlink" xmlns:svgjs="http://svgjs.com/svgjs"><defs id="SvgjsDefs1181"></defs><g id="SvgjsG1182" transform="matrix(1,0,0,1,0,0)"><svg xmlns="http://www.w3.org/2000/svg" data-name="Web Design and Development" viewBox="0 0 900 700" width="360" height="360"><ellipse cx="416.446" cy="602.003" fill="#f2f2f2" rx="177.208" ry="12.823" class="colorf2f2f2 svgShape"></ellipse><ellipse cx="642.792" cy="596.963" fill="#f2f2f2" rx="50.034" ry="12.823" class="colorf2f2f2 svgShape"></ellipse><ellipse cx="762.312" cy="620.003" fill="#f2f2f2" rx="50.034" ry="12.823" class="colorf2f2f2 svgShape"></ellipse><ellipse cx="165.809" cy="608.967" fill="#f2f2f2" rx="74.32" ry="12.59" class="colorf2f2f2 svgShape"></ellipse><path fill="#397c77" d="M148.426,451.36605c.2054,2.0938.5132,4.383.9547,6.9181,5.0192,28.6279,12.0505,60.2633,12.0505,60.2633s13.5594-31.6354,15.0683-61.2692c1.5089-29.6234,21.5966-41.171,15.0581-62.2647-6.2305-20.1389-10.634-46.3648-11.0139-48.6949-.0204-.1027-.0307-.1641-.0307-.1641s-24.1011,33.2878-24.1011,59.4007C156.4119,429.35875,146.4039,429.80005,148.426,451.36605Z" class="color397c77 svgShape"></path><path fill="#49908c" d="M148.426,451.36605a180.56792,180.56792,0,0,0,16.3309,19.7387c-7.8011-11.3937-5.3991-27.509,2.4019-38.9027,5.8509-8.5402,14.6679-15.869,16.0949-26.113.7698-5.5019-.7699-11.0138-1.9196-16.4438-2.9869-14.124-4.8757-29.8185-.7904-43.3266-.0204-.1027-.0307-.1641-.0307-.1641s-24.1011,33.2878-24.1011,59.4007C156.4119,429.35875,146.4039,429.80005,148.426,451.36605Z" class="color49908c svgShape"></path><path fill="#397c77" d="M111.7553,471.16315c.0102.0103.0102.0103.0102.0205a41.623,41.623,0,0,0,1.4576,8.2938c7.5342,25.7126,50.7171,55.1411,50.7171,55.1411a.17906.17906,0,0,0-.0103-.0513c-4.5266-47.1656-38.6562-63.2296-33.1339-97.4413,5.4402-33.7396-16.9365-60.4479-17.5626-61.1767C124.9863,398.14125,109.4047,443.60285,111.7553,471.16315Z" class="color397c77 svgShape"></path><path fill="#247971" d="M111.7655,471.18365a41.623,41.623,0,0,0,1.4576,8.2938c7.5342,25.7126,50.7171,55.1411,50.7171,55.1411a.17906.17906,0,0,0-.0103-.0513c-.1744-1.1188-3.3359-19.2871-26.2053-35.5975C117.8011,484.75345,112.8331,474.15015,111.7655,471.18365Z" class="color2d726d svgShape"></path><path fill="#a6b35d" d="M209.1394,317.172s28.1227,82.3592,0,133.5826-39.673,83.8659-39.673,83.8659-6.0263-40.1753,11.5503-77.3374S207.1306,350.81865,209.1394,317.172Z" class="color5db3ab svgShape"></path><path fill="#49908c" d="M122.2604,449.24805s28.6249,13.0569,25.6118,55.2409,3.0131,52.73,3.0131,52.73l13.5591-29.127s12.0526-37.1621-10.546-68.2979Z" class="color49908c svgShape"></path><path fill="#5bb1a8" d="M73.0458,346.299s20.0876,6.5285,21.5942,34.149-1.5066,54.7387,27.6204,68.8001,53.2322,31.1358,42.184,78.8439c0,0,14.5636-33.6468-10.0438-78.8439s-16.8128-32.6424-33.5159-47.2059S93.6356,343.28585,73.0458,346.299Z" class="color5bb1a8 svgShape"></path><path fill="#49908c" d="M220.8862,375.94925s13.3652,46.0467-2.3613,73.2988-32.5378,68.6522-35.7915,85.3705-8.6768,5.3301-8.6768,5.3301-19.2118-23.937,15.0237-63.3069C227.4714,432.49285,220.8862,375.94925,220.8862,375.94925Z" class="color49908c svgShape"></path><path fill="#e6a562" d="M215.5254,513.03575v67.5351a34.4,34.4,0,0,1-34.4,34.4H150.4917a34.4,34.4,0,0,1-34.4-34.4v-67.5351Z" class="colore6a562 svgShape"></path><path fill="#1e2047" d="M677.3408,163.51035a19.78686,19.78686,0,0,0-19.7838-19.7928H185.245a19.79521,19.79521,0,0,0-19.7932,19.7928V464.044h511.889Z" class="color1e2047 svgShape"></path><path fill="#e2e0e1" d="M165.4518,464.044v52.4057a19.78735,19.78735,0,0,0,19.7932,19.7836H657.557a19.779,19.779,0,0,0,19.7838-19.7836V464.044Z" class="colore2e0e1 svgShape"></path><path fill="#cce9ff" d="M185.2407,162.00375H657.5536a3.2199,3.2199,0,0,1,3.2199,3.2199V442.699a3.2194,3.2194,0,0,1-3.2194,3.2194H185.2407a3.2194,3.2194,0,0,1-3.2194-3.2194V165.22315a3.2194,3.2194,0,0,1,3.2194-3.2194Z" class="colorccc6f7 svgShape"></path><rect width="354.881" height="283.915" x="243.957" y="162.004" fill="#cce9ff" class="colorc1b3f4 svgShape"></rect><rect width="139.244" height="37.393" x="351.775" y="536.237" fill="#cccacb" class="colorcccacb svgShape"></rect><rect width="139.244" height="10.191" x="351.775" y="536.237" fill="#999898" class="color999898 svgShape"></rect><path fill="#e2e0e1" d="M525.778,573.62985H317.0167a24.382,24.382,0,0,0-24.382,24.3819H550.1601A24.38207,24.38207,0,0,0,525.778,573.62985Z" class="colore2e0e1 svgShape"></path><circle cx="421.396" cy="500.139" r="11.136" fill="#f2f2f2" transform="rotate(-45 421.396 500.139)" class="colorf2f2f2 svgShape"></circle><rect width="335.643" height="378.952" x="253.576" y="66.966" fill="#0b4870" class="colorcaddfe svgShape"></rect><rect width="80.684" height="8.168" x="276.407" y="90.438" fill="#f2f0f0" class="colora5c9eb svgShape"></rect><rect width="49.104" height="8.168" x="368.663" y="90.438" fill="#ffffff" class="colorfff svgShape"></rect><rect width="49.104" height="8.168" x="434.6" y="90.438" fill="#ffcc00" class="colorfc0 svgShape"></rect><rect width="136.233" height="8.168" x="276.407" y="112.219" fill="#ffcc00" class="colorfc0 svgShape"></rect><rect width="64.813" height="8.168" x="424.212" y="112.219" fill="#f2f0f0" class="colora5c9eb svgShape"></rect><rect width="68.781" height="8.168" x="498.477" y="112.219" fill="#ffffff" class="colorfff svgShape"></rect><rect width="100.523" height="8.168" x="276.407" y="134" fill="#ffffff" class="colorfff svgShape"></rect><rect width="44.974" height="8.168" x="388.502" y="134" fill="#f2f0f0" class="colora5c9eb svgShape"></rect><rect width="44.974" height="8.168" x="456.365" y="134" fill="#ffcc00" class="colorfc0 svgShape"></rect><rect width="116.394" height="8.168" x="276.407" y="155.782" fill="#ecd00e" class="color6fcece svgShape"></rect><rect width="81.078" height="8.168" x="473.621" y="155.782" fill="#f2f0f0" class="colora5c9eb svgShape"></rect><rect width="47.92" height="8.168" x="410.76" y="155.782" fill="#ffffff" class="colorfff svgShape"></rect><rect width="64.813" height="8.168" x="276.407" y="177.563" fill="#f2f0f0" class="colora5c9eb svgShape"></rect><rect width="64.17" height="8.168" x="352.792" y="177.563" fill="#ffffff" class="colorfff svgShape"></rect><rect width="49.048" height="8.168" x="424.291" y="177.563" fill="#f2f0f0" class="colora5c9eb svgShape"></rect><rect width="38.971" height="8.168" x="481.795" y="177.563" fill="#ffcc00" class="colorfc0 svgShape"></rect><rect width="191.782" height="8.168" x="276.407" y="199.344" fill="#f2f0f0" class="colora5c9eb svgShape"></rect><rect width="56.877" height="8.168" x="479.76" y="199.344" fill="#ffffff" class="colorfff svgShape"></rect><rect width="156.072" height="8.168" x="404.373" y="221.126" fill="#f2f0f0" class="colora5c9eb svgShape"></rect><rect width="116.394" height="8.168" x="432.682" y="242.907" fill="#ffffff" class="colorfff svgShape"></rect><rect width="116.394" height="8.168" x="276.407" y="264.688" fill="#ffcc00" class="colorfc0 svgShape"></rect><rect width="144.168" height="8.168" x="276.407" y="286.47" fill="#f2f0f0" class="colora5c9eb svgShape"></rect><rect width="52.883" height="8.168" x="431.223" y="286.47" fill="#ffffff" class="colorfff svgShape"></rect><rect width="52.883" height="8.168" x="495.804" y="286.47" fill="#ffcc00" class="colorfc0 svgShape"></rect><rect width="205.943" height="8.168" x="356.759" y="308.251" fill="#f2f0f0" class="colora5c9eb svgShape"></rect><rect width="191.139" height="8.168" x="371.563" y="330.032" fill="#ffffff" class="colorfff svgShape"></rect><rect width="116.394" height="8.168" x="276.407" y="351.814" fill="#f2f0f0" class="colora5c9eb svgShape"></rect><rect width="80.684" height="8.168" x="276.407" y="373.595" fill="#ffffff" class="colorfff svgShape"></rect><rect width="48.942" height="8.168" x="368.663" y="373.595" fill="#f2f0f0" class="colora5c9eb svgShape"></rect><rect width="48.942" height="8.168" x="439.204" y="373.595" fill="#ffcc00" class="colorfc0 svgShape"></rect><rect width="104.491" height="8.168" x="276.407" y="395.376" fill="#ffcc00" class="colorfc0 svgShape"></rect><rect width="104.49" height="8.168" x="473.676" y="395.376" fill="#f2f0f0" class="colora5c9eb svgShape"></rect><rect width="72.748" height="8.168" x="392.469" y="395.376" fill="#ffffff" class="colorfff svgShape"></rect><rect width="116.394" height="8.168" x="276.407" y="417.157" fill="#f2f0f0" class="colora5c9eb svgShape"></rect><rect width="41.006" height="8.168" x="404.373" y="417.157" fill="#f2f0f0" class="colora5c9eb svgShape"></rect><rect width="41.006" height="8.168" x="462.2" y="417.157" fill="#ffffff" class="colorfff svgShape"></rect><path fill="#d3d3d3" d="M229.778,178.15285h16.4583l-.0008-25.3628H229.778a55.72824,55.72824,0,0,0-7.0261-16.9636l11.6368-11.637-17.934-17.9343-11.6375,11.6372a55.71808,55.71808,0,0,0-16.9635-7.0265V94.40865H162.4908V110.866a55.72371,55.72371,0,0,0-16.9635,7.0261l-11.6368-11.6369-17.9332,17.9347,11.636,11.6362a55.71342,55.71342,0,0,0-7.0268,16.964H104.1097l.0007,25.3628h16.4561a55.71233,55.71233,0,0,0,7.026,16.9641l-11.6367,11.6367,17.9347,17.9342,11.6361-11.6367a55.726,55.726,0,0,0,16.9642,7.0265V236.535h25.3629v-16.4572a55.71913,55.71913,0,0,0,16.9642-7.0268l11.6376,11.6373,17.934-17.9346-11.6376-11.6371A55.70778,55.70778,0,0,0,229.778,178.15285Zm-82.1388-12.681a27.53305,27.53305,0,1,1,27.5334,27.5328A27.5332,27.5332,0,0,1,147.6392,165.47185Z" class="color7463cd svgShape"></path><path fill="#e2e0e1" d="M770.783,185.19095h8.6834l-.0004-13.3815h-8.683a29.40007,29.40007,0,0,0-3.707-8.9499l6.1396-6.1398-9.462-9.4621-6.14,6.1398a29.39355,29.39355,0,0,0-8.95-3.7072v-8.6829H735.2822v8.683a29.39793,29.39793,0,0,0-8.95,3.7069l-6.1396-6.1396L710.731,156.72l6.1392,6.1393a29.3926,29.3926,0,0,0-3.7074,8.9502h-8.6826l.0004,13.3815h8.6822a29.39234,29.39234,0,0,0,3.707,8.9503l-6.1396,6.1395,9.4624,9.4621,6.1392-6.1395a29.40081,29.40081,0,0,0,8.9504,3.7072v8.6829h13.3814v-8.6829a29.396,29.396,0,0,0,8.9504-3.7073l6.14,6.1399,9.462-9.4624-6.14-6.1397A29.3912,29.3912,0,0,0,770.783,185.19095Zm-43.3366-6.6905a14.5265,14.5265,0,1,1,14.5267,14.5264A14.5266,14.5266,0,0,1,727.4464,178.50045Z" class="colore2e0e1 svgShape"></path><path fill="#4d72c4" d="M781.7013,245.75765h4.7653l-.0002-7.3437h-4.7651a16.13815,16.13815,0,0,0-2.0344-4.9116l3.3694-3.3694-5.1927-5.1928-3.3696,3.3695a16.13086,16.13086,0,0,0-4.9116-2.0345v-4.7651h-7.3437v4.7651a16.13315,16.13315,0,0,0-4.9116,2.0344l-3.3694-3.3694-5.1924,5.1929,3.3691,3.3691a16.132,16.132,0,0,0-2.0345,4.9118h-4.765l.0002,7.3437h4.7648a16.13157,16.13157,0,0,0,2.0343,4.9118l-3.3694,3.3693,5.1929,5.1927,3.3692-3.3693a16.132,16.132,0,0,0,4.9118,2.0345v4.7651h7.3437v-4.7651a16.13256,16.13256,0,0,0,4.9119-2.0345l3.3695,3.3695,5.1927-5.1929-3.3696-3.3694A16.13371,16.13371,0,0,0,781.7013,245.75765Zm-23.7827-3.6717a7.972,7.972,0,1,1,7.9721,7.9719A7.972,7.972,0,0,1,757.9186,242.086Z" class="color4d72c4 svgShape"></path><path fill="#817474" d="M646.4135,228.04605h44.3894a8.6871,8.6871,0,0,1,8.6871,8.6871v41.0033a8.6871,8.6871,0,0,1-8.6871,8.6871H646.4137a8.6873,8.6873,0,0,1-8.6873-8.6873v-41.0031a8.6871,8.6871,0,0,1,8.6871-8.6871Z" class="coloree74cb svgShape"></path><polygon fill="#ffffff" points="657.987 268.911 646.311 257.235 657.987 245.559 659.712 247.284 649.761 257.235 659.712 267.186 657.987 268.911" class="colorfff svgShape"></polygon><polygon fill="#ffffff" points="679.228 268.911 677.503 267.186 687.455 257.235 677.504 247.284 679.23 245.559 690.906 257.235 679.228 268.911" class="colorfff svgShape"></polygon><rect width="30.014" height="2.44" x="653.6" y="256.015" fill="#ffffff" transform="rotate(-67.68 668.608 257.235)" class="colorfff svgShape"></rect><rect width="344.764" height="6.678" x="482.19" y="453.235" fill="#898989" class="colorb29bee svgShape"></rect><path fill="#f2f0f0" d="M523.805,357.85085h63.2064a8.9711,8.9711,0,0,1,8.1291,5.1773l39.5249,85.1025H560.7099L520.8988,362.414A3.207,3.207,0,0,1,523.805,357.85085Z" class="colora5c9eb svgShape"></path><path fill="#d3d3d3" d="M580.6242 399.31575c-3.204-7.3971-9.5996-11.7482-14.285-9.7185-4.6847 2.0296-5.8849 9.6715-2.6801 17.0685 3.204 7.397 9.5996 11.7482 14.2843 9.7185C582.6288 414.35465 583.829 406.71275 580.6242 399.31575zM560.7099 448.13065a5.09064 5.09064 0 005.0907 5.0906H708.9855a5.09064 5.09064 0 005.0907-5.0906z" class="colorcde7fe svgShape"></path><path fill="#c7c7c7" d="M637.2107,448.13065H560.71a5.09055,5.09055,0,0,0,5.0906,5.0906h77.7839A6.43816,6.43816,0,0,1,637.2107,448.13065Z" class="color2f59a3 svgShape"></path><path fill="#0e538c" d="M718.8565,333.56255c1.3849-3.552,4.6308-5.9849,7.766-8.1541,7.0054-4.8468,15.1863-9.5558,23.5506-7.941,8.9204,1.7221,14.9123,10.0426,19.032,18.14s7.6461,17.0517,14.9471,22.4586c4.6728,3.4606,10.4692,5.1055,15.2596,8.4013,3.8217,2.6293,6.8711,6.217,9.7513,9.8534,6.1737,7.7947,11.9421,16.3598,13.7099,26.1449a70.94482,70.94482,0,0,1,.7941,11.8422c.079,7.1295-.0672,14.926-4.6387,20.3975-2.8992,3.4699-7.1644,5.4494-11.3108,7.2531a8.00229,8.00229,0,0,1-3.5594.9224,8.10473,8.10473,0,0,1-4.1466-1.9723c-4.8948-3.621-9.9145-7.3763-13.0719-12.5823-2.481-4.0906-3.6491-8.8154-5.0511-13.3896a124.93063,124.93063,0,0,0-22.098-41.6493c-3.0945-3.8407-6.4941-7.5604-10.77-10.0187-3.5201-2.0236-7.5054-3.0617-11.036-5.0548-3.9033-2.2036-5.7159-5.772-9.0435-8.518C723.8625,345.505,715.5843,341.955,718.8565,333.56255Z" class="color481e74 svgShape"></path><path fill="#ee9089" d="M660.7073,437.50735s13.8369,3.4592,21.4473,3.4592c5.4926,0,30.9209-5.8848,44.6508-9.1609v16.8281c-16.4057.9702-43.2671,1.7879-43.2671,1.7879l-10.6084.9226-3.6894-2.7674-21.9087.6919C649.8684,440.04415,660.7073,437.50735,660.7073,437.50735Z" class="coloree9089 svgShape"></path><path fill="#ee9089" d="M740.5314,388.861l-19.7838,44.5635,2.9167,13.2373,4.9359,3.3653,21.9872-29.6154S747.3083,392.70555,740.5314,388.861Z" class="coloree9089 svgShape"></path><path fill="#ffcc00" d="M740.5374,388.85075s3.4599,20.5301,4.3803,36.67c.92,16.1399,8.5298,12.2199,11.9898,16.3698a6.78363,6.78363,0,0,1,.8799,1.4803c1.9199,4.2898,2.4101,13.3698,2.54,17.7399.04,1.5101.04,2.46.04,2.46h53.96s-8.7598-8.0701-6.2197-30.4399c.23-2.0201.4497-4.01.6499-5.9502,2.0498-19.52,2.6601-34.7798-1.1099-43.1699-4.1601-9.22-30.23-15.0201-30.23-15.0201l-17.0503,8.5601-5.9799,3.4099Z" class="colorfc0 svgShape"></path><path fill="#f9b40f" d="M756.3977,387.53075c4.3897,2.1899,14.25-6.8902,22.0801-13.1499,7.8296-6.2701,23.7998,6.0998,23.7998,6.0998s-24.1201,4.7-32.1001,35.8601c-4.0298,15.7-8.7202,23.3301-12.3901,27.0301,1.9199,4.2898,2.4101,13.3698,2.54,17.7399,1.29-2.2299,4.4902-7,12.04-15.4899,10.3003-11.5801,29.3399-26.0401,36.3902-18.4402,2.0498-19.52,2.6601-34.7798-1.1099-43.1699-4.1601-9.22-30.23-15.0201-30.23-15.0201l-17.0503,8.5601-5.9799,3.4099C753.8977,383.22065,753.8274,386.24065,756.3977,387.53075Z" class="colorf9b40f svgShape"></path><path fill="#ffaca3" d="M657.0049,567.76805c-7.2026,3.8399-9.852,8.7612-15.8789,12.3253-6.0134,3.5558-14.2092,2.3544-14.4485-3.7627,2.1981-1.0753,4.4846-2.9048,7.6051-6.3736,6.0339-6.7078,12.0326-16.3841,20.0518-21.3253,8.0196-4.9407,13.7098-14.8756,13.7098-14.8756l13.1134,8.6652-16.1088,18.7464S664.2079,563.92845,657.0049,567.76805Z" class="colorffaca3 svgShape"></path><path fill="#1e2047" d="M620.144,578.07005a21.53411,21.53411,0,0,0,6.5335-1.7394c.2393,6.1171,8.4351,7.3185,14.4485,3.7627,6.0269-3.5641,8.6763-8.4854,15.8789-12.3253,7.203-3.8396,8.0439-6.6003,8.0439-6.6003,3.0867,2.5835,4.2162,9.5123.917,14.8343-3.2997,5.322-6.4544,15.4888-6.4544,15.4888l-3.8533-.9152,1.8612-12.5094c-13.3066,4.6104-10.6251,13.5732-23.6752,13.989a32.56021,32.56021,0,0,1-21.3014-6.9096S614.9575,578.87325,620.144,578.07005Z" class="color1e2047 svgShape"></path><path fill="#ee9089" d="M768.0363,594.36185c-1.7209,8.5359-3.4873,9.5011-4.3509,16.0461-.864,6.5451-7.8781,14.5605-11.5691,8.5779-.0367-.0596-.0747-.1151-.1118-.1743,1.0834-3.2839,1.6967-7.3134.6977-10.6404-1.8122-6.037-.4324-15.0288-2.5259-23.6277-2.0929-8.5986-8.2735-24.3763-8.2735-24.3763l16.5692-2.65,5.487,22.8349A15.83585,15.83585,0,0,1,768.0363,594.36185Z" class="coloree9089 svgShape"></path><path fill="#1e2047" d="M749.034,624.55975a16.417,16.417,0,0,0,2.9705-5.7482c.0371.0592.0751.1147.1118.1743,3.691,5.9826,10.7051-2.0328,11.5691-8.5779.8636-6.545,2.63-7.5102,4.3509-16.0461a15.83585,15.83585,0,0,0-4.0773-14.0098c9.0426,5.5357,9.4907,10.3181,9.5369,17.3197.0463,7.002,3.9057,14.6356,3.9057,14.6356l-4.2717,1.4167-3.4015-9.1133c-2.5692,4.8347-.586,10.8148-.8797,16.7916-.2937,5.9766-19.5445,12.5503-19.8845,11.5251S747.0387,626.549,749.034,624.55975Z" class="color1e2047 svgShape"></path><path fill="#0e538c" d="M812.7162,493.323s.9224,14.0676-19.833,16.3737-46.8149,5.0736-46.8149,5.0736,13.8369,32.2861,16.1431,56.5008l-16.1431,3.2286s-11.3002-29.2882-19.3717-49.5824-5.7654-33.6698,1.8449-35.5148S812.7162,493.323,812.7162,493.323Z" class="color481e74 svgShape"></path><path fill="#ffaca3" d="M725.3472,340.45c-3.076,8.8692-.0826,18.7822,4.6776,26.8734,1.7761,3.0189,4.2874,6.189,7.784,6.3948,3.409.2006,6.3878-2.5424,9.7993-2.6935,3.1045-.1375,5.9653,1.9695,7.5926,4.6169s2.2485,5.7742,2.7975,8.8328c1.2317.4521,2.801-.2359,4.0057-.7554,3.2359-1.3952,6.4161-3.2848,8.3538-6.2281,0,0-12.559-8.9844-17.5863-18.4804a4.3032,4.3032,0,0,0,3.7911-2.0728,8.68547,8.68547,0,0,0,1.1008-4.1888c.1281-2.3343-.2022-4.876-1.8112-6.5721s-4.8153-1.9438-6.0997.0097c-1.0044,1.5275-.6348,3.8923-2.1331,4.9397-1.3092.9153-3.1542.1211-4.2967-.9954s-2.0222-2.5684-3.4495-3.2857c-1.9333-.9715-4.351-.3319-6.3395-1.1844C730.6336,344.41745,728.5006,340.34105,725.3472,340.45Z" class="colorffaca3 svgShape"></path><path fill="#ffaca3" d="M758.3957 375.93125l-.3975 8.5431s10.9639.9666 19.417-15.4868c0 0-18.0413-2.746-24.6438-9.9771s-3.8854 4.392-3.8854 4.392zM807.6426 384.01115s-8.5327-4.1511-19.3717 7.3797-30.6719 40.5883-30.6719 40.5883-45.8925 11.3002-53.5028 11.3002-21.4472-3.4592-21.4472-3.4592-10.839 2.5367-13.3757 11.7614l21.9084-.6919 3.6899 2.7674 10.6083-.9225s53.0416-1.6143 55.5784-2.998 40.3577-29.2881 45.8925-41.0495S812.4856 388.854 807.6426 384.01115z" class="colorffaca3 svgShape"></path><path fill="#0e538c" d="M715.8577,468.647c4.1509-6.9185,44.5088-5.0735,44.5088-5.0735h53.9638s10.8389,23.2922.4615,37.1291c-10.378,13.837-44.5088,6.9185-59.96-.4611a91.72668,91.72668,0,0,0-21.7788-7.5037,6.27672,6.27672,0,0,0-6.0522,2.175c-7.6636,9.344-33.4429,40.1814-51.9004,55.1417l-12.9146-9.4554S711.7063,475.56535,715.8577,468.647Z" class="color5a2b95 svgShape"></path><path fill="#0e538c" d="M752.7714,359.01045s8.3826,6.6002,11.5711,11.4004c10.5602,15.8984,21.984,7.4162,29.7078,8.7035,11.8367,1.9728,16.1304,9.7479,16.2464,22.513s7.543-6.8468,7.543-6.8468l-13.3453-20.7722Z" class="color481e74 svgShape"></path></svg></g></svg>