<?xml version="1.0" encoding="utf-8"?>
<!-- Generator: Adobe Illustrator 25.3.1, SVG Export Plug-In . SVG Version: 6.00 Build 0)  -->
<svg version="1.1" id="SvgjsSvg1001" xmlns:svgjs="http://svgjs.com/svgjs"
	 xmlns="http://www.w3.org/2000/svg" xmlns:xlink="http://www.w3.org/1999/xlink" x="0px" y="0px" viewBox="0 0 360 360"
	 style="enable-background:new 0 0 360 360;" xml:space="preserve">
<style type="text/css">
	.st0{fill:#FFFFFF;fill-opacity:0;}
	.st1{fill:#E5E5E5;}
	.st2{fill:#FFCB66;}
	.st3{fill:#FFBF66;}
	.st4{fill:none;stroke:#FFBF66;stroke-width:0.2308;stroke-linecap:round;stroke-miterlimit:10;}
	.st5{fill:none;stroke:#FFB866;stroke-width:0.2308;stroke-linecap:round;stroke-miterlimit:10;}
	.st6{fill:#E0E0E0;}
	.st7{fill:#FFFCE9;stroke:#D7D3D3;stroke-width:7.692308e-02;stroke-miterlimit:10;}
	.st8{fill:#CCE9FF;}
	.st9{fill:#BBC9D5;}
	.st10{opacity:0.28;fill:#FFFCE9;stroke:#D7D3D3;stroke-width:7.692308e-02;stroke-miterlimit:10;enable-background:new    ;}
	.st11{fill:none;stroke:#FFFCE9;stroke-width:0.4615;stroke-linecap:round;stroke-miterlimit:10;}
	.st12{fill:none;}
	.st13{fill:#FFE6C2;}
	.st14{fill:none;stroke:#DC975D;stroke-width:0.4615;stroke-linecap:round;stroke-miterlimit:10;}
	.st15{fill:#DBD7D7;}
	.st16{fill:#939393;}
	.st17{fill:#A2A2A2;}
	.st18{fill:#F2F0F0;}
	.st19{fill:#9A9A9A;}
	.st20{fill:#FFFFFF;stroke:#FFFFFF;stroke-width:0.2308;stroke-miterlimit:10;}
	.st21{fill:#95959E;}
	.st22{fill:#9E9E9E;}
	.st23{fill:#F4CC90;}
	.st24{fill:#243B76;}
	.st25{fill:#FFF2F0;}
	.st26{fill:#0B4870;}
	.st27{fill:none;stroke:#FFBF66;stroke-width:0.4615;stroke-linecap:round;stroke-miterlimit:10;}
	.st28{fill:none;stroke:#FFFFFF;stroke-width:0.2308;stroke-linecap:round;stroke-miterlimit:10;}
	.st29{opacity:0.6;fill:#0B4870;enable-background:new    ;}
	.st30{fill:#FFB931;}
	.st31{opacity:0.29;fill:#FFFFFF;enable-background:new    ;}
	.st32{fill:#BADBD5;}
	.st33{opacity:0.91;fill:#4492F2;enable-background:new    ;}
	.st34{fill:#1F7793;}
	.st35{fill:#FFFFFF;stroke:#FFFFFF;stroke-width:0.1538;stroke-miterlimit:10;}
	.st36{fill:#0E0E0E;stroke:#FFFFFF;stroke-width:0.1538;stroke-miterlimit:10;}
	.st37{fill:#FFD966;}
	.st38{fill:#4492F2;}
	.st39{fill:#0E538C;}
	.st40{fill:none;stroke:#1B1177;stroke-width:0.2308;stroke-linecap:round;stroke-miterlimit:10;}
	.st41{fill:#2A94F4;}
</style>
<g id="SvgjsG1008" transform="matrix(1,0,0,1,0,0)">
	<g>
		<rect y="60" class="st0" width="360" height="240"/>
		<path class="st1" d="M307.7,128.5l-4.6-0.8l-5.9-1l-6.9-1.2l-7.7-1.4l-8.2-1.4l-8.4-1.5l-8.4-1.5l-8-1.4l-7.4-1.3l-6.5-1.1
			l-5.3-0.9l-3.8-0.7c-0.8-0.1-1.6-0.2-2.4-0.1c-0.5,0.1-0.9,0.2-1.4,0.4l0,0c0,0-0.1,0-0.2,0.1c-0.5,0-1,0.5-1,1v50.1
			c0,0.5,0.3,0.9,0.8,1l85.8,21.5v-59.6L307.7,128.5z"/>
		<path class="st2" d="M94.8,209.4c-0.9,0.1-1.8,0.2-2.8,0.1c-3.7-0.2-6.5-1.2-10.2-0.4c-3.7,0.8-7.1,2.4-10.8,3.1
			c-7.6,1.4-15.2-1.2-22.5-3.7c-1.9-0.7-2.5-2.2-0.7-3.5c2-1.5,5.6-2.1,8-2.7c2.2-0.5,4.4-0.8,6.6-1c13.9-1.5,28.2-1.5,41.8,1.7
			c1.8,0.4,7.5,3.5,2.7,4.3L96.8,209C96.2,209.2,95.5,209.3,94.8,209.4z"/>
		<path class="st3" d="M94.8,197.1c-0.9-0.6-1.8-1.1-2.8-1.5c-3.9-1.5-7.3-1.9-10.8-4.5c-3.4-2.6-6.2-5.9-9.7-8.4
			c-7.1-5.1-16.3-6.1-25-6.9c-2.3-0.2-3.6,1.1-2.4,3.3c1.4,2.5,4.7,4.9,7,6.6c2,1.5,4.2,2.9,6.3,4.2c13.7,8.3,28.4,15.1,44,18.4
			c2.1,0.4,9.4,0,4.9-3.2l-9.6-6.7C96.1,198,95.4,197.6,94.8,197.1z M107.6,190.3c-0.6-1-1.2-1.9-1.9-2.7c-2.9-3.3-5.9-5.3-7.8-9.4
			c-1.9-4.1-2.9-8.5-4.9-12.6c-4.2-8.2-12.2-13.6-20-18.6c-2-1.3-3.9-0.7-3.8,1.9c0.1,3,2,6.9,3.3,9.5c1.1,2.4,2.5,4.7,3.9,7
			c8.7,14.3,19.1,27.8,32.1,38.5c1.8,1.4,8.8,4.5,6.1-0.6c-1.9-3.6-3.8-7.2-5.7-10.8C108.4,191.8,108,191,107.6,190.3z"/>
		<path class="st2" d="M98.2,189.4c-0.7-0.8-1.5-1.6-2.4-2.2c-2.2-1.6-4.7-2.9-6.9-4.7c-2-1.6-3-3.8-4.7-5.5
			c-3.9-4.1-10.4-6.7-15.8-7.9c-1.1-0.2-2.6-0.2-3,0.8c-0.2,0.5-0.1,1.2,0.1,1.7c1.8,5.4,5.9,9.6,9.9,13.7c3.5,3.5,7.1,7.1,11.3,9.9
			c4.9,3.2,10.7,5.6,16,7.8c2.1,0.9,8.2,1.6,5-2.2l-7.9-9.4C99.3,190.7,98.7,190.1,98.2,189.4z"/>
		<path class="st2" d="M27.7,60"/>
		<path class="st2" d="M27.7,60"/>
		<path class="st2" d="M198.6,167.6c-0.3-1.1-0.6-2.3-0.7-3.5c-0.4-4.7,0.2-8.4-1.6-13c-1.7-4.5-4.5-8.5-6.1-13.1
			c-3.3-9.3-1.5-19.4,0.3-29.1c0.5-2.6,2.3-3.5,4.3-1.5c2.3,2.3,3.8,6.6,5,9.6c1,2.6,1.8,5.4,2.6,8.1c4.7,17.3,7.5,35.2,6.2,53.1
			c-0.2,2.4-2.9,10.1-4.9,4.3l-4.2-12.4C199.1,169.3,198.8,168.5,198.6,167.6z"/>
		<path class="st3" d="M214,165.2c0.5-1.2,1-2.5,1.3-3.8c1.1-5.3,0.9-9.6,3.6-14.5c2.6-4.8,6.3-9,8.7-13.9c5-10,4.5-21.8,3.8-33
			c-0.2-3-2.1-4.3-4.7-2.4c-2.9,2.3-5.3,6.9-7,10.1c-1.5,2.9-2.8,5.8-4.1,8.8c-7.8,18.9-13.5,38.8-14.5,59.2
			c-0.1,2.8,1.9,11.9,5,5.5l6.5-13.4C213.2,167,213.6,166.1,214,165.2z M225.2,180c1.1-0.9,2.1-1.8,3-2.9c3.6-4.4,5.5-8.5,10.4-11.7
			c4.8-3.2,10.2-5.3,14.9-8.7c9.5-6.9,14.7-18.1,19.5-28.9c1.3-2.8,0.1-5.1-3.2-4.4c-3.8,0.7-8.3,3.9-11.4,6
			c-2.8,1.9-5.5,4.1-8.1,6.3c-16.4,13.8-31.4,29.6-42.2,48.2c-1.5,2.5-4,12,1.9,7.6l12.6-9.3C223.5,181.3,224.4,180.7,225.2,180z"/>
		<path class="st2" d="M224.4,167.9c0.9-1.1,1.7-2.3,2.3-3.5c1.6-3.1,2.8-6.5,4.5-9.6c1.7-2.8,4.2-4.5,6.1-7
			c4.4-5.7,6.4-14.4,6.8-21.5c0.1-1.5-0.2-3.3-1.6-3.7c-0.7-0.2-1.5,0.1-2.2,0.5c-6.5,3.3-11,9.4-15.3,15.2
			c-3.8,5.2-7.6,10.4-10.2,16.2c-3.1,6.8-4.9,14.6-6.6,21.7c-0.7,2.9-0.4,10.7,3.8,5.9c3.4-3.9,6.9-7.9,10.3-11.8
			C223,169.6,223.7,168.8,224.4,167.9z"/>
		<path class="st4" d="M228.6,97c-3.5,9.1-7.2,18.2-11,27.2c-3.9,9.4-8,18.8-10.9,28.6s-4.4,20.1-3.3,30.2"/>
		<path class="st4" d="M231.1,101.4c-3.3,13.9-9.3,26.9-14.7,40.1c-5.4,13.2-10.2,26.9-10.8,41.1 M271.6,123.2
			c-1.4,0.8-2.6,2-3.8,3.1c-14.9,14.2-29.9,28.4-42.9,44.4c-6.2,7.6-11.9,15.7-19.5,21.9"/>
		<path class="st5" d="M242.3,122.3c-13.8,18.7-24.7,39.3-32.4,61.2"/>
		<path class="st6" d="M209.8,107c-0.2,0.1-0.8,0.4-0.9,0.7c0,0.1,0.2,0.4,0.3,0.5c0.2,0.3,0.4,0.6,0.6,0.9c0.2,0.5,0.2,0.7,0.2,1.2
			c0,0.4,0,0.9,0,1.3V157c0,0.5,0.3,0.9,0.8,1l0,0l1.4,0.4l3.5,0.9l5.2,1.4l6.6,1.7l7.7,2l8.4,2.2l8.8,2.3l8.8,2.3l8.4,2.2l7.8,2
			l6.8,1.8l5.4,1.4l2.1,0.5c0.8,0.2,1.7,0.3,2,1.2c0,0,0,0.1,0,0.1c0,0,0,0,0.1,0.1c0.2,0.1,0.5,0.1,0.7,0.1
			c0.2-0.1,0.5-0.2,0.7-0.3c0.5-0.3,1.1-0.6,1.1-1.3v-56.2c0-0.5-0.4-0.9-0.8-1l-1-0.2l-2.8-0.5l-4.4-0.8l-5.7-1l-6.7-1.2l-7.4-1.4
			l-7.9-1.4l-8.1-1.5l-8.1-1.5l-7.7-1.4l-7.1-1.3l-6.2-1.1l-5.1-0.9l-3.7-0.7c-0.7-0.1-1.6-0.2-2.3-0.1
			C210.7,106.6,210.2,106.7,209.8,107L209.8,107z"/>
		<path class="st7" d="M208.7,108.1v49.8c0,0.5,0.3,0.9,0.8,1l84.4,21.8c0.5,0.1,1.1-0.2,1.2-0.7c0-0.1,0-0.2,0-0.3v-56.2
			c0-0.5-0.4-0.9-0.8-1l-84.4-15.4c-0.6-0.1-1.1,0.3-1.2,0.8C208.7,107.9,208.7,108,208.7,108.1z"/>
		<path class="st8" d="M211.4,110.5v45.9c0,0.4,0.3,0.8,0.7,0.9l77.8,20.1c0.5,0.1,1-0.2,1.1-0.7c0-0.1,0-0.2,0-0.2v-51.8
			c0-0.5-0.3-0.8-0.8-0.9l-77.8-14.2c-0.5-0.1-1,0.2-1.1,0.8C211.4,110.4,211.4,110.4,211.4,110.5z"/>
		<ellipse class="st9" cx="258.1" cy="141.3" rx="12.6" ry="15.7"/>
		<path class="st10" d="M257.9,141.1c-0.4-0.7,0.4-1.5,0.9-1.9c0.7-0.5,1.2-1,1.7-1.7c1.1-1.5,1.7-3.4,2.1-5.3
			c0.3-1.6,0.6-3.5-0.1-5c-0.6-1.4-3.1-1.6-4.5-1.6c-1.7,0-3.4,0.5-4.9,1.3c-0.8,0.4-1.5,0.9-2.1,1.5c-0.2,0.2-0.8,0.6-0.8,0.9
			c0,0.4,0.5,0.9,0.8,1.2c0.9,1.3,1.8,2.6,2.7,3.9c0.6,0.8,1.2,1.7,1.8,2.5c0.2,0.3,0.4,0.7,0.6,1c0.4,0.6,0.8,1.2,1.3,1.8l0.9,1.2"
			/>
		<path class="st6" d="M270.8,141.3c0-4.5-1.5-9.1-4.7-12.2c-1.2-1.2-2.8-2.4-4.5-2.9c-1-0.3-2-0.4-3-0.5c-0.1,0-0.3,0-0.3,0
			c-0.2,0.2,0,1.1,0,1.3c0.1,0.7,0,1.5-0.1,2.2L258,134c0,0.8-0.1,1.5,0,2.3c0.1,0.6,0.2,1.2,0.2,1.8c0,0.9-0.3,1.8-0.1,2.7
			c0.1,0.5,0.4,1,0.6,1.5c0.2,0.5,0.3,1.1,0.4,1.6c0.1,0.5,0.4,0.8,0.6,1.3c0.7,1.3,0.9,2.8,1.6,4.1c0.7,1.3,1.4,2.7,1.8,4.2
			c0.1,0.5,0.2,0.9,0.4,1.4c0.4,0.7,0.7,0.2,1.2-0.2c1.1-0.9,2.1-1.9,2.9-3c1.8-2.5,2.8-5.6,3-8.6
			C270.7,142.4,270.8,141.9,270.8,141.3z"/>
		<line class="st11" x1="258.1" y1="141.3" x2="258.1" y2="125.6"/>
		<line class="st11" x1="263.9" y1="155.3" x2="258.1" y2="141.3"/>
		<line class="st11" x1="248.2" y1="131.7" x2="258.1" y2="141.3"/>
		<line class="st11" x1="250" y1="129.4" x2="258.1" y2="141.3"/>
		<line class="st11" x1="273.2" y1="134.8" x2="287.6" y2="137.4"/>
		<line class="st11" x1="273.2" y1="137.9" x2="287.3" y2="140.7"/>
		<line class="st11" x1="273.2" y1="141" x2="287.1" y2="143.9"/>
		<line class="st11" x1="272.3" y1="147.4" x2="286.6" y2="150"/>
		<line class="st11" x1="272.3" y1="150.5" x2="286.3" y2="153.2"/>
		<line class="st11" x1="272.3" y1="153.6" x2="286.1" y2="156.4"/>
		<ellipse class="st9" cx="226.3" cy="133.3" rx="12" ry="15"/>
		<path class="st10" d="M226.2,133.3c-0.4-0.6,0.4-1.5,0.9-1.8c0.6-0.5,1.2-1,1.7-1.6c1.1-1.5,1.6-3.3,2-5.1
			c0.3-1.6,0.6-3.4-0.1-4.9c-0.6-1.4-3.1-1.6-4.5-1.6c-1.7,0-3.3,0.4-4.8,1.3c-0.7,0.4-1.4,0.9-2.1,1.5c-0.2,0.2-0.8,0.5-0.7,0.9
			c0,0.4,0.5,0.9,0.7,1.2c0.9,1.3,1.7,2.5,2.6,3.8c0.6,0.8,1.2,1.6,1.7,2.5c0.2,0.3,0.4,0.6,0.6,1c0.4,0.6,0.8,1.2,1.3,1.7l0.9,1.1"
			/>
		<path class="st6" d="M238.3,133.3c0-4.3-1.5-8.7-4.5-11.8c-1.2-1.2-2.7-2.3-4.4-2.8c-0.9-0.3-1.9-0.4-2.8-0.5c-0.1,0-0.2,0-0.3,0
			c-0.2,0.2,0,1,0,1.3c0.1,0.7,0,1.4-0.1,2.2l-0.2,4.5c0,0.7-0.1,1.5,0,2.2c0.1,0.6,0.2,1.2,0.2,1.7c0,0.9-0.3,1.7-0.1,2.6
			c0.1,0.5,0.4,1,0.5,1.5c0.2,0.5,0.3,1,0.4,1.5c0.1,0.5,0.3,0.8,0.6,1.3c0.7,1.3,0.9,2.7,1.6,3.9c0.7,1.3,1.4,2.6,1.7,4
			c0.1,0.4,0.2,0.9,0.4,1.3c0.4,0.6,0.7,0.2,1.2-0.1c1.1-0.8,2-1.8,2.8-2.9c1.7-2.4,2.7-5.3,2.9-8.3
			C238.3,134.4,238.3,133.8,238.3,133.3z"/>
		<line class="st11" x1="226.3" y1="133.3" x2="226.3" y2="118.3"/>
		<line class="st11" x1="231.8" y1="146.6" x2="226.3" y2="133.3"/>
		<line class="st11" x1="216.8" y1="124.1" x2="226.3" y2="133.3"/>
		<line class="st11" x1="218.5" y1="121.9" x2="226.3" y2="133.3"/>
		<path class="st1" d="M161,186.9c-0.3-0.2,0-2.8,0-3.2v-49.2c0-0.5,0.2-1.5,0-2c-0.1-0.4-0.7-0.6-0.6-1.1c0-0.2,0.1-0.4,0.3-0.6
			c0.4-0.6,1-1.1,1.6-1.4c-0.1,0-0.2,0-0.2,0V91.7c-14.1,4.5-28.3,8.7-42.4,13c-6.6,2-13.3,4.1-19.9,6.2c-2,0.6-21.2,5.7-21.1,6.6
			l0,0.9c0.1,4.1,0.1,8.1,0.2,12.2c0.1,5.4,0.1,10.8,0.2,16.3l0.2,18.4l0.2,18.6l0.2,16.9c0.1,4.4,0.1,8.9,0.2,13.3
			c0,1.6,0,3.1,0.1,4.7c0,0.7-0.3,3.1,0.2,3.6c0.1,0.1,0.3,0.2,0.5,0.3c9.2,3.9,18.8,6.7,28.4,9.4c9.5,2.7,19,5.6,28.5,8.5l17.2,5.2
			l17.1,5.2l16.1,4.9l14.1,4.3l11.2,3.4l7.4,2.3l2.7,0.8c0.2,0,0.3,0,0.5-0.1l76.6-44.7c-1.1,0.7-7.1-1.7-8.3-2l-66.5-16l-36.8-8.9
			C179.9,193.2,168.2,192.3,161,186.9z"/>
		<path class="st1" d="M168.5,189.2l135.9,31.3l10.8-6.7l-135.7-31.3l-0.4,0.2l-2.7-95l-2.8,0.7l-8.3,2.8l2.8,98.2L168.5,189.2z"/>
		<path class="st8" d="M85,243.8c-0.2,0.1-0.3,0.3-0.2,0.5c0,0.1,0.1,0.2,0.3,0.2l96.4,27.7c0.1,0,0.2,0,0.3,0l83.7-50.7
			c0.1-0.1,0.2-0.2,0.2-0.4l0-0.5l0,0l0-0.3c0-0.2-0.1-0.3-0.3-0.4l-2.8-0.8l-78.2-19.6L85,243.8z"/>
		<line class="st12" x1="103.2" y1="243.6" x2="177.2" y2="263.8"/>
		<line class="st12" x1="109.1" y1="241.3" x2="183" y2="261.4"/>
		<line class="st12" x1="117.7" y1="234.8" x2="191.7" y2="255"/>
		<line class="st12" x1="121.9" y1="232.8" x2="195.8" y2="253"/>
		<line class="st12" x1="125.5" y1="230.5" x2="199.4" y2="250.6"/>
		<line class="st12" x1="128.2" y1="228" x2="202.1" y2="248.2"/>
		<line class="st12" x1="133.6" y1="225.2" x2="207.5" y2="245.4"/>
		<line class="st12" x1="137.8" y1="223.2" x2="211.7" y2="243.4"/>
		<line class="st12" x1="141.4" y1="220.8" x2="215.3" y2="241"/>
		<line class="st12" x1="144" y1="218.4" x2="218" y2="238.5"/>
		<path class="st13" d="M84.8,242.2c-0.2,0.1-0.3,0.3-0.2,0.5c0,0.1,0.1,0.2,0.3,0.2l96.4,27.7c0.1,0,0.2,0,0.3,0l83.7-50.7
			c0.1-0.1,0.2-0.2,0.2-0.4l0-0.5l0,0l0-0.3c0-0.2-0.1-0.3-0.3-0.4l-2.8-0.8L184.3,198L84.8,242.2z"/>
		<line class="st12" x1="103.1" y1="242" x2="177" y2="262.2"/>
		<line class="st12" x1="108.9" y1="239.6" x2="182.9" y2="259.8"/>
		<line class="st12" x1="117.6" y1="233.2" x2="191.5" y2="253.4"/>
		<line class="st12" x1="121.7" y1="231.2" x2="195.7" y2="251.4"/>
		<line class="st12" x1="125.4" y1="228.9" x2="199.3" y2="249"/>
		<line class="st12" x1="128" y1="226.4" x2="202" y2="246.5"/>
		<line class="st12" x1="133.5" y1="223.6" x2="207.4" y2="243.7"/>
		<line class="st12" x1="137.6" y1="221.6" x2="211.6" y2="241.8"/>
		<line class="st12" x1="141.3" y1="219.2" x2="215.2" y2="239.4"/>
		<line class="st12" x1="143.9" y1="216.8" x2="217.9" y2="236.9"/>
		<path class="st8" d="M84.2,240.2c-0.2,0.1-0.3,0.3-0.2,0.5c0,0.1,0.1,0.2,0.3,0.2l96.4,27.7c0.1,0,0.2,0,0.3,0l83.7-50.7
			c0.1-0.1,0.2-0.2,0.2-0.4l0-0.5l0,0l0-0.3c0-0.2-0.1-0.3-0.3-0.4l-2.8-0.8L183.6,196L84.2,240.2z"/>
		<line class="st14" x1="102.4" y1="240" x2="176.4" y2="260.2"/>
		<line class="st14" x1="108.3" y1="237.6" x2="182.2" y2="257.8"/>
		<line class="st14" x1="116.9" y1="231.2" x2="190.9" y2="251.3"/>
		<line class="st14" x1="121.1" y1="229.2" x2="195" y2="249.4"/>
		<line class="st14" x1="124.7" y1="226.8" x2="198.7" y2="247"/>
		<line class="st14" x1="127.4" y1="224.4" x2="201.3" y2="244.5"/>
		<line class="st14" x1="132.8" y1="221.6" x2="206.8" y2="241.7"/>
		<line class="st14" x1="137" y1="219.6" x2="210.9" y2="239.8"/>
		<line class="st14" x1="140.6" y1="217.2" x2="214.6" y2="237.4"/>
		<line class="st14" x1="143.3" y1="214.8" x2="217.2" y2="234.9"/>
		<path class="st14" d="M27.7,60"/>
		<path class="st15" d="M86.7,212c-0.2,0.1-0.3,0.3-0.2,0.5c0,0.1,0.1,0.2,0.3,0.2l94.4,27.3c0.1,0,0.2,0,0.3,0l82-50
			c0.1-0.1,0.2-0.2,0.2-0.4l0-0.5l0,0l0-0.2c0-0.2-0.1-0.3-0.3-0.4l-2.8-0.8l-76.5-19.3L86.7,212z"/>
		<path class="st15" d="M27.7,60"/>
		<path class="st15" d="M27.7,60"/>
		<path class="st16" d="M130.7,219.6L130.7,219.6l8.1,1.9l13.9-6.9l-7.6-2L130.7,219.6z"/>
		<polygon class="st16" points="130.8,201.5 120.6,206.1 126.2,207.6 136.4,203 		"/>
		<polygon class="st16" points="137.6,203.3 127.4,208 135.2,210 145.2,205.3 		"/>
		<polygon class="st16" points="146.3,205.6 136.3,210.3 144,212.3 153.9,207.6 		"/>
		<polygon class="st17" points="140.3,197.1 130.8,201.5 136.4,203 145.9,198.6 		"/>
		<polygon class="st17" points="147.2,198.9 137.6,203.3 145.2,205.3 154.6,200.9 		"/>
		<polygon class="st17" points="155.8,201.2 146.3,205.6 153.9,207.6 163.1,203.1 		"/>
		<polygon class="st16" points="154.7,194.6 149.1,193.1 140.3,197.1 145.9,198.6 		"/>
		<polygon class="st16" points="156,194.9 147.2,198.9 154.6,200.9 163.2,196.8 		"/>
		<polygon class="st16" points="164.5,197.1 155.8,201.2 163.1,203.1 171.6,199 		"/>
		<polygon class="st17" points="157.8,189.1 149.1,193.1 154.7,194.6 163.5,190.6 		"/>
		<polygon class="st17" points="164.7,190.9 156,194.9 163.2,196.8 171.8,192.8 		"/>
		<polygon class="st17" points="164.5,197.1 171.6,199 180.1,195 173.1,193.1 		"/>
		<polygon class="st16" points="166.1,185.3 157.8,189.1 163.5,190.6 171.8,186.8 		"/>
		<polygon class="st16" points="179.9,188.9 173,187.1 164.7,190.9 171.8,192.8 		"/>
		<polygon class="st16" points="181.3,189.3 173.1,193.1 180.1,195 188.2,191.1 		"/>
		<polygon class="st17" points="180.5,182.8 174.8,181.3 166.1,185.3 171.8,186.8 		"/>
		<polygon class="st17" points="181.7,183.1 173,187.1 179.9,188.9 188.5,184.9 		"/>
		<polygon class="st17" points="181.3,189.3 188.2,191.1 196.6,187 189.9,185.3 		"/>
		<polygon class="st17" points="197.6,187.3 189.1,191.4 181.1,195.2 172.7,199.3 164.2,203.4 155,207.9 145.1,212.6 152.7,214.6 
			162.4,209.8 171.4,205.3 179.8,201.2 188.1,197.1 195.9,193.2 204.2,189 		"/>
		<polygon class="st16" points="189.1,178.8 183.4,177.3 174.8,181.3 180.5,182.8 		"/>
		<polygon class="st16" points="188.5,184.9 196.9,180.9 190.3,179.2 181.7,183.1 		"/>
		<polygon class="st16" points="198.4,181.3 189.9,185.3 196.6,187 205,183 		"/>
		<path class="st17" d="M190.3,174.3c-0.1,0-0.1,0-0.2,0l-6.6,3l5.6,1.5l7.1-3.2L190.3,174.3z"/>
		<polygon class="st17" points="204.3,177.4 197.4,175.9 190.3,179.2 196.9,180.9 		"/>
		<polygon class="st17" points="213,179.2 206.1,177.7 198.4,181.3 205,183 		"/>
		<polygon class="st18" points="214.6,179.1 205.9,183.3 197.6,187.3 204.2,189 212.4,185 221.5,180.5 		"/>
		<path class="st19" d="M136.4,197.1l32.1-15c0.1,0,0.1-0.1,0.1-0.2c0,0,0-0.1-0.1-0.1l-4.7-1.4c0,0-0.1,0-0.1,0l-32.8,14.4
			c-0.1,0.1-0.2,0.2-0.1,0.3c0,0.1,0.1,0.1,0.1,0.1L136.4,197.1C136.3,197.1,136.4,197.1,136.4,197.1z"/>
		<path class="st17" d="M136.4,196.6l32.1-15c0.1,0,0.1-0.1,0.1-0.2c0,0,0-0.1-0.1-0.1l-4.7-1.4c0,0-0.1,0-0.1,0l-32.8,14.4
			c-0.1,0.1-0.2,0.2-0.1,0.3c0,0.1,0.1,0.1,0.1,0.1L136.4,196.6C136.3,196.6,136.4,196.6,136.4,196.6z"/>
		<path class="st16" d="M230.5,202.6L230.5,202.6c0-0.1-0.1-0.2-0.2-0.2l-0.8-0.2l-25.3-6.4c0,0-0.1,0-0.1,0l-29.2,15.5
			c-0.1,0-0.1,0.1,0,0.2c0,0,0,0,0.1,0.1l28.1,8.1c0,0,0.1,0,0.1,0l27.3-16.6c0,0,0.1-0.1,0.1-0.1L230.5,202.6z"/>
		<path class="st20" d="M182.7,96.3L81.9,130.5c-0.2,0.1-0.3,0.2-0.3,0.4l-0.5,78.5c0,0.2,0.2,0.4,0.4,0.4c0.1,0,0.1,0,0.2,0
			l3.6-1.5l97.3-43.5c0.1-0.1,0.2-0.2,0.2-0.4l0.5-67.9c0-0.2-0.2-0.4-0.4-0.4C182.8,96.2,182.7,96.2,182.7,96.3z"/>
		<path class="st21" d="M180.7,95.3c-0.1,0-0.2,0-0.3,0.1c-0.1,0-0.1,0-0.2,0.1c-0.2,0.1-0.3,0.1-0.5,0.2l-2.3,0.8l-3.5,1.2
			l-4.5,1.5l-5.3,1.8l-6.1,2.1l-6.6,2.3l-7.1,2.4l-7.3,2.5l-7.5,2.5l-7.5,2.5l-7.3,2.5l-7,2.4l-6.5,2.2l-5.9,2l-5.2,1.8l-4.3,1.5
			l-3.2,1.1l-2.1,0.7l-0.7,0.2c-0.2,0.1-0.3,0.2-0.3,0.4l0,1.8l0,4.8l0,7.3l-0.1,9l-0.1,10.1l-0.1,10.5l-0.1,10.2l-0.1,9.3l-0.1,7.7
			l0,5.4l0,1.6c0,0.3-0.1,0.7,0,1c0.1,0.5,0.8,0.8,1.2,1l1.5,0.9c0.4,0.2,0.9,0.5,1.2,0.3c0.2-0.1,0.3-0.3,0.4-0.6
			c0.5-1.1,0.8-2.4,1.6-3.4c0.4-0.4,0.8-0.6,1.3-0.8l2.3-1l6-2.7l7.7-3.4l9-4l9.8-4.4l10.2-4.6l10.3-4.6l9.9-4.4l9.1-4.1l7.9-3.5
			l6.2-2.8l4.2-1.9l1.7-0.8l0,0c0.1-0.1,0.2-0.2,0.2-0.4c0-0.3,0-0.6,0-0.9l0-3.8l0-6.3l0.1-8.1l0.1-9.1l0.1-9.6l0.1-9.3l0.1-8.3
			l0-3.6c0-1.4-0.2-2.9,0.6-4.1c0.2-0.3,0.4-0.5,0.7-0.7c0.5-0.4,1-0.8,1.5-1.2c0.2-0.2,0.4-0.4,0.5-0.6c0.1-0.2,0.1-0.5-0.1-0.7
			c-0.1-0.1-0.2-0.2-0.3-0.3l-0.6-0.4l-1.4-0.8C181.6,95.5,181.2,95.2,180.7,95.3z M177.1,161.5c0,0.1-0.1,0.3-0.2,0.3l-87.5,38.4
			l-3.2,1.3c-0.2,0.1-0.4,0-0.5-0.2c0,0,0-0.1,0-0.1l0.1-68.6c0-0.2,0.1-0.3,0.2-0.3l90.7-30.4c0.2-0.1,0.4,0,0.5,0.2
			c0,0,0,0.1,0,0.1L177.1,161.5z"/>
		<path class="st22" d="M184.4,97.2c-0.1-0.1-0.2-0.2-0.3-0.3l-0.6-0.4l-1.4-0.8c-0.5-0.3-0.9-0.5-1.3-0.5c-0.1,0-0.2,0-0.3,0.1
			c-0.1,0-0.1,0-0.2,0.1c-0.2,0.1-0.3,0.1-0.5,0.2l-2.3,0.8l-3.5,1.2l-4.5,1.5l-5.3,1.8l-6.1,2.1l-6.6,2.3l-7.1,2.4l-7.3,2.5
			l-7.5,2.5l-7.5,2.5l-7.3,2.5l-7,2.4l-6.5,2.2l-5.9,2l-5.2,1.8l-4.3,1.5l-3.2,1.1l-2.1,0.7l-0.7,0.2c-0.1,0-0.2,0.1-0.2,0.2
			l6.2,2.8c0-0.1,0.1-0.1,0.2-0.2l90.7-30.4c0.2-0.1,0.4,0,0.5,0.2c0,0,0,0.1,0,0.1l-0.1,59.2c0,0.1-0.1,0.3-0.2,0.3l-87.5,38.4
			l-0.6,0.2l-0.1,4.4l5.9-2.6l7.7-3.4l9-4l9.8-4.4l10.2-4.6l10.3-4.6l9.9-4.4l9.1-4.1l7.9-3.5l6.2-2.8l4.2-1.9l1.7-0.8l0,0
			c0.1-0.1,0.2-0.2,0.2-0.4c0-0.3,0-0.6,0-0.9c0-1.3,0-2.6,0-3.8c0-2.1,0-4.2,0-6.3l0.1-8.1l0.1-9.1l0.1-9.6c0-3.1,0-6.2,0.1-9.3
			c0-2.8,0-5.6,0.1-8.3c0-1.2,0-2.4,0-3.6c0-1.4-0.2-2.9,0.6-4.1c0.2-0.3,0.4-0.5,0.7-0.7c0.5-0.4,1-0.8,1.5-1.2
			c0.2-0.2,0.4-0.4,0.5-0.6S184.6,97.4,184.4,97.2z"/>
		<path class="st8" d="M184.1,97.2L83.2,131.4c-0.2,0.1-0.3,0.2-0.3,0.4l-0.5,78.5c0,0.2,0.2,0.4,0.4,0.4c0.1,0,0.1,0,0.2,0l3.6-1.5
			l97.3-43.5c0.1-0.1,0.2-0.2,0.2-0.4l0.5-67.9c0-0.2-0.2-0.4-0.4-0.4C184.1,97.1,184.1,97.1,184.1,97.2z M180.4,163.4
			c0,0.1-0.1,0.3-0.2,0.3l-87.5,38.4l-3.2,1.3c-0.2,0.1-0.4,0-0.5-0.2c0,0,0-0.1,0-0.1l0.1-68.6c0-0.2,0.1-0.3,0.2-0.3l90.7-30.4
			c0.2-0.1,0.4,0,0.5,0.2c0,0,0,0.1,0,0.1L180.4,163.4z M27.7,60"/>
		<path class="st8" d="M181.5,102.4l-92.3,31.4c-0.1,0.1-0.2,0.2-0.3,0.3l-0.1,15.2l-0.4,56.8c0,0.2,0.2,0.4,0.4,0.4
			c0,0,0.1,0,0.1,0l3.3-1.3l89.1-39.8c0.1-0.1,0.2-0.2,0.2-0.3l0.3-47.6l0.1-14.6c0-0.2-0.2-0.4-0.4-0.4
			C181.6,102.4,181.5,102.4,181.5,102.4z"/>
		<path class="st8" d="M172.1,112.2l-71.6,23.2c-0.1,0-0.2,0.1-0.2,0.3l-0.1,11.2l-0.3,41.9c0,0.2,0.1,0.3,0.3,0.3c0,0,0.1,0,0.1,0
			l2.5-1l69.1-29.4c0.1,0,0.2-0.1,0.2-0.2l0.3-35.1l0.1-10.8C172.5,112.3,172.4,112.2,172.1,112.2
			C172.2,112.2,172.1,112.2,172.1,112.2z"/>
		<path class="st8" d="M164.2,118c0,0-0.1,0-0.1,0c-0.2,0-0.5,0.2-0.7,0.2l-4.4,1.5l-7.2,2.4l-9,3l-9.7,3.3l-9.4,3.2l-8,2.7
			l-5.6,1.9l-2.1,0.7c-0.1,0-0.2,0.1-0.2,0.2l-0.1,9.1l0,3.8l-0.1,9l-0.1,10.5l-0.1,8.3l0,1.9c0,0.2,0,0.4,0,0.5c0,0.8,1,1,1.6,1.4
			c0,0,0.1,0,0.1,0c0,0,0.1,0,0.1,0c0.2-0.1,0.3-0.2,0.5-0.4c0.1-0.2,0.2-0.4,0.3-0.5c0.4-0.8,0.9-1.4,1.7-1.7l1.2-0.5l3.1-1.4
			l8.3-3.7l10-4.4l10.3-4.6l9.3-4.1l6.9-3l3-1.4l0,0c0.1,0,0.1-0.1,0.1-0.2l0.2-28.7c0-1.1,0-2.2,0.2-3.2c0.3-1.5,1.1-2.8,1.5-4.3
			c0-0.1,0-0.1,0-0.2c0-0.1-0.1-0.1-0.2-0.2C165.5,118.7,164.8,118.1,164.2,118z"/>
		<path class="st9" d="M109.6,147.3l-0.2,34.3c0,0.1,0.1,0.2,0.2,0.2c0,0,0.1,0,0.1,0l2-0.8l54.1-24c0.1,0,0.1-0.1,0.1-0.2l0.2-28.7
			L109.6,147.3z"/>
		<path class="st23" d="M131,145.3c-0.1,0-0.2,0-0.2,0c-0.1,0-0.2,0.1-0.3,0.1l-1,0.4l-4.1,1.5l-5,1.8l-4.3,1.6l-1.8,0.7v1.7v4.2
			v13.5c0,0.1,0,0.3,0,0.4c0,0.2,0.2,0.4,0.4,0.5c0.4,0.2,0.6-0.3,0.7-0.5c0.3-0.4,0.8-0.5,1.2-0.7l1.1-0.5l2.7-1.1l5.8-2.5l4.2-1.8
			c0.1,0,0.8-0.3,0.8-0.3v-6.4v-6.3v-4c0-0.6,0.2-1.1,0.6-1.6c0,0,0.1-0.1,0.1-0.2c0,0,0,0,0-0.1C131.3,145.5,131.2,145.4,131,145.3
			z"/>
		<polygon class="st8" points="131.6,145.6 114.8,151.7 114.8,171.7 131.6,164.5 		"/>
		<path class="st8" d="M27.7,60"/>
		<path class="st24" d="M212.6,106.1c-0.1,0-0.3,0-0.5,0.1c-0.2,0.1-0.4,0.1-0.6,0.2l-2.6,0.9l-3.9,1.3c-23.4,7.8-46.7,15.8-70,23.6
			l-16,5.4l-0.8,0.3c-0.2,0.1-0.3,0.2-0.3,0.4l-0.1,15.4l0,1.4l0,3.9l0,5.8l0,7.2l-0.1,7.9l-0.1,8.1l-0.1,7.7l0,6.7l0,5.2l0,3
			c0,0.1,0,0.3,0,0.4c0,0.4,0.1,0.5,0.4,0.7c0.6,0.4,1.3,0.8,1.9,1.2c0,0,0.1,0.1,0.2,0c0,0,0.1,0,0.1-0.1c0.7-0.9,0.8-2.4,1.9-2.9
			c0.3-0.1,0.6-0.3,0.9-0.4l2.8-1.2l4-1.8l5-2.2l5.9-2.6l6.6-2.9l7.1-3.1l7.4-3.3l7.5-3.3l7.5-3.3l7.2-3.2l6.8-3l6.2-2.8l5.4-2.4
			l4.5-2l3.3-1.5l2-0.9l0.5-0.2c0.1-0.1,0.2-0.2,0.2-0.3l0.3-48.3l0-1.9l0-6c0-1-0.2-2,0.2-2.9c0.2-0.5,0.6-0.9,0.9-1.3
			c0.2-0.2,0.7-0.6,0.8-0.9c0.1-0.3-0.2-0.5-0.4-0.7c-0.5-0.4-1.1-0.7-1.6-1C212.9,106.2,212.7,106.1,212.6,106.1z"/>
		<path class="st25" d="M214.6,107.6l-94.3,31.9c-0.2,0.1-0.3,0.2-0.3,0.4l-0.1,15.4l-0.4,57.6c0,0.2,0.2,0.4,0.4,0.4
			c0,0,0.1,0,0.1,0l3.3-1.4l91-40.4c0.1-0.1,0.2-0.2,0.2-0.3l0.3-48.3l0.1-14.8c0-0.2-0.2-0.4-0.4-0.4
			C214.7,107.5,214.7,107.5,214.6,107.6z"/>
		<path class="st26" d="M166,128.9c0-0.4-0.3-0.7-0.7-0.7c-0.1,0-0.1,0-0.2,0l-37,12.5c-0.1,0-0.2,0.2-0.2,0.3l-0.1,13.7l-0.4,51.5
			c0,0.2,0.1,0.3,0.3,0.3c0,0,0.1,0,0.1,0l3-1.2l34.3-15.2c0.2-0.1,0.4-0.3,0.4-0.6l0.4-52.2L166,128.9z"/>
		<line class="st27" x1="135" y1="176.2" x2="159.7" y2="165.9"/>
		<line class="st27" x1="135" y1="180.8" x2="159.7" y2="170.5"/>
		<line class="st27" x1="135" y1="185.4" x2="159.7" y2="175.1"/>
		<line class="st27" x1="135" y1="190.5" x2="159.7" y2="180.2"/>
		<line class="st27" x1="135" y1="195" x2="159.7" y2="184.7"/>
		<path class="st26" d="M169.1,187.4c0,0.4,0.3,0.7,0.7,0.7c0.1,0,0.2,0,0.3-0.1l41.8-18.5c0.1-0.1,0.2-0.2,0.2-0.3l0.3-43.1
			l0.1-13.2c0-0.2-0.1-0.3-0.3-0.3c0,0-0.1,0-0.1,0l-42,14.2c-0.3,0.1-0.5,0.3-0.5,0.6l-0.1,9.3L169.1,187.4z"/>
		<line class="st28" x1="209.5" y1="116" x2="209.5" y2="168.4"/>
		<line class="st28" x1="171.9" y1="128.4" x2="209.5" y2="116"/>
		<path class="st29" d="M209.5,168.2c0,0.1-0.1,0.2-0.2,0.3l-36.5,16.2c-0.3,0.1-0.6,0-0.8-0.3c0-0.1-0.1-0.2-0.1-0.2l0-7l0.1-15.4
			l0.1-15.3l0-4.3c0-1-0.2-3.4,1.6-1.9c1.7,1.4,2.6,3.4,4.3,4.8c1.4,1.1,3.2,1.5,5,1.6c1.9,0,3.3-1.3,5.1-1.8
			c1.2-0.3,2.6-0.4,3.8,0.1c0.7,0.3,1.3,0.7,1.9,1c1.2,0.6,2.6,0.8,4,0.9c0.5,0,0.9,0,1.4-0.1c0.7-0.2,1.4-0.6,2-1.1
			c2.2-1.5,4.6-2.9,7.3-3.3c1.3-0.2,1,0.7,0.9,1.7c0,1.1,0,2.1,0,3.2l0,6.4l-0.1,10.9C209.5,165.6,209.5,166.9,209.5,168.2z"/>
		<path class="st26" d="M209.5,168.5c0,0.1-0.1,0.2-0.2,0.3l-36.5,16.6c-0.3,0.1-0.6,0-0.8-0.3c0-0.1-0.1-0.2,0-0.2l0-7.2l0.1-15.8
			l0-4.6c0-0.8-0.4-3.4,0.9-2.4c1.7,1.2,2.7,3.3,4.2,4.8c2.1,2.1,5.1,3,8,2.9c0.7,0,1.5-0.1,2.2-0.3c0.9-0.3,1.7-0.8,2.5-1.3
			c2.2-1.3,4.7-2.6,7.2-2.2c1.8,0.3,3.4,1.4,5.1,2.1c1.7,0.6,4,0.6,5-1c0.3-0.4,0.4-0.9,0.8-1.3c1.2-1.3,1.4,0.6,1.4,1.4
			c0,1.5,0,3.1,0,4.6C209.5,165.9,209.5,167.2,209.5,168.5z"/>
		<line class="st28" x1="178.4" y1="126.3" x2="178.4" y2="182.8"/>
		<line class="st28" x1="172" y1="128.1" x2="172" y2="185.5"/>
		<line class="st28" x1="184.4" y1="179.9" x2="184.4" y2="124.3"/>
		<line class="st28" x1="190.2" y1="177.4" x2="190.2" y2="122.4"/>
		<line class="st28" x1="196" y1="174.7" x2="196" y2="120.5"/>
		<line class="st28" x1="201.8" y1="172.1" x2="201.8" y2="118.6"/>
		<line class="st28" x1="206.5" y1="170" x2="206.5" y2="117.1"/>
		<line class="st28" x1="172" y1="185.6" x2="209.6" y2="168.6"/>
		<line class="st28" x1="209.6" y1="115.9" x2="209.6" y2="168.3"/>
		<line class="st28" x1="172.2" y1="128.3" x2="209.6" y2="115.9"/>
		<line class="st28" x1="178.6" y1="126.1" x2="178.6" y2="182.6"/>
		<line class="st28" x1="172.3" y1="127.9" x2="172.3" y2="185.4"/>
		<line class="st28" x1="184.6" y1="179.8" x2="184.6" y2="124.1"/>
		<line class="st28" x1="190.4" y1="177.2" x2="190.4" y2="122.3"/>
		<line class="st28" x1="196.1" y1="174.6" x2="196.1" y2="120.3"/>
		<line class="st28" x1="201.9" y1="172" x2="201.9" y2="118.4"/>
		<line class="st28" x1="206.5" y1="169.8" x2="206.5" y2="116.9"/>
		<line class="st28" x1="172.3" y1="185.5" x2="209.7" y2="168.4"/>
		<path class="st9" d="M269.5,213.3c0,0-0.1,0.1-0.1,0.1c-0.4,0.4-0.8,0.6-1.2,0.9c-0.9,0.6-1.8,1.4-2.3,2.4
			c-0.2,0.3-0.3,0.7-0.2,1.1c0,0.1,0.1,0.1,0.1,0.2c0,0.3-1.7-0.1-1.9-0.2c-2.8-0.5-5.7-1.4-8-3c-0.2-0.1-0.4-0.3-0.6-0.5
			c-1.6-1.3-2.4-3.5-1.2-5.5c0.5-0.8,1.2-1.4,2.1-1.6c0.5-0.2,1-0.2,1.5-0.3c0.9-0.1,1.6-0.4,2.4-0.6c0.5-0.1,1.1-0.2,1.6-0.3
			c0.5-0.1,1.1-0.2,1.6-0.2c0.5,0.1,1.1,0.4,1.5,0.6c0.5,0.3,1.1,0.5,1.6,0.8c1.3,0.7,2.6,1.6,3.2,2.9c0.2,0.5,0.3,1.1,0.4,1.7
			C270.2,212.5,269.9,212.9,269.5,213.3z"/>
		<path class="st30" d="M261.1,212.5c0,0.4-0.1,0.7-0.4,1c-0.5,0.8-1.6,1.2-1.7,2.1c0,0.2,0,0.6-0.2,0.7c-0.2,0.1-0.8-0.4-1-0.5
			c-0.7-0.3-1.3-0.7-1.9-1.1c-0.2-0.1-0.4-0.3-0.6-0.5c-1.6-1.3-2.4-3.5-1.2-5.5c0.5-0.7,1.5-1.8,2.4-1.4c1.1,0.5,2.2,1.2,3.1,2
			c0.6,0.5,1.1,1.1,1.3,1.9C261.1,211.7,261.1,212.1,261.1,212.5z"/>
		<path class="st9" d="M272.7,205.3c0,0-0.1,0.1-0.1,0.1c-0.4,0.4-0.8,0.6-1.2,0.9c-0.9,0.6-1.8,1.4-2.3,2.4
			c-0.2,0.3-0.3,0.7-0.2,1.1c0,0.1,0.1,0.1,0.1,0.2c0,0.3-1.7-0.1-1.9-0.2c-2.8-0.5-5.7-1.4-8-3c-0.2-0.1-0.4-0.3-0.6-0.5
			c-1.6-1.3-2.4-3.5-1.2-5.5c0.5-0.8,1.2-1.4,2.1-1.6c0.5-0.2,1-0.2,1.5-0.3c0.9-0.1,1.6-0.4,2.4-0.6c0.5-0.1,1.1-0.2,1.6-0.3
			c0.5-0.1,1.1-0.2,1.6-0.2c0.5,0.1,1.1,0.4,1.5,0.6c0.5,0.3,1.1,0.5,1.6,0.8c1.3,0.7,2.6,1.6,3.2,2.9c0.2,0.5,0.3,1.1,0.4,1.7
			C273.4,204.5,273.1,204.9,272.7,205.3z"/>
		<path class="st30" d="M264.3,204.5c0,0.4-0.1,0.7-0.4,1c-0.5,0.8-1.6,1.2-1.7,2.1c0,0.2,0,0.6-0.2,0.7c-0.2,0.1-0.8-0.4-1-0.5
			c-0.7-0.3-1.3-0.7-1.9-1.1c-0.2-0.1-0.4-0.3-0.6-0.5c-1.6-1.3-2.4-3.5-1.2-5.5c0.5-0.7,1.5-1.8,2.4-1.4c1.1,0.5,2.2,1.2,3.1,2
			c0.6,0.5,1.1,1.1,1.3,1.9C264.3,203.7,264.3,204.1,264.3,204.5z"/>
		<path class="st9" d="M92.6,222.4"/>
		<path class="st30" d="M113.5,230.3c0,0.4-0.2,0.8-0.4,1.1c-0.5,0.9-1.7,1.4-1.8,2.4c0,0.2,0,0.7-0.2,0.8"/>
		<path class="st31" d="M267.6,192.1c-0.5-1.6-1.1-3.3-1.8-4.9c-1.1-2.7-2.5-5.3-4.2-7.4c-0.1-0.2-0.3-0.3-0.5-0.4
			c-1-1-2.2-1.9-3.4-2.5c-1.1-0.6-1.1-0.6-1.5-1.9c-0.2-0.5-0.1-1.1-0.5-1.5c-0.2-0.2-0.4-0.3-0.6-0.1c-0.1,0.1-0.5,0.6-0.4,0.8
			c-0.1-0.5-0.4-1.1-0.8-1.2c-0.6-1.3-1.2-2.5-1.7-3.8c0-0.1-0.1-0.2-0.1-0.2c0.2,0,0.5,0,0.7,0c2.2-0.1,4.5-1,6-2.7
			c0.4-0.4,0.8-0.9,1-1.5c-0.5,0.2-1.2,0.3-1.6-0.1c-0.3-0.3-0.4-0.7-0.4-1.1c-0.1-1.6,0.6-3,1.1-4.5c1.9-5.6-2.6-12.4-8.9-11
			c-2.2,0.5-5,1.6-6.5,3.3c-0.5,0.5-0.8,1.1-0.9,1.8c-0.2,0.1-0.4,0.4-0.5,0.5c-0.2,0.4-0.3,0.7-0.5,1.1c-0.1,0.3-0.2,0.6-0.3,0.8h0
			c-0.2,0-0.4,0-0.5,0.1c0,0,0,0.1-0.1,0.1c-0.1,0.3,0.2,0.3,0.4,0.3h0c-0.1,0.6-0.3,1.2-0.4,1.8c-0.2,0.1-0.4,0.2-0.4,0.4
			c0,0.1,0.1,0.2,0.1,0.3c0,0,0.1,0.1,0.1,0.1c0,0,0,0,0,0.1c0,0.2-0.1,0.5-0.1,0.7c-0.2,0.2-0.3,0.4-0.4,0.6
			c-0.1,0.1-0.1,0.2-0.2,0.2c-0.2,0.4,0.2,0.6,0.5,0.7c0,0,0,0,0,0v0l0,0c0,2.3,0.6,4.7,3.1,5.6c1.1,0.4,1.8,1,2.2,2.1
			c0.3,1,0.3,2.1,0.2,3.1c0,0.3,0,0.6,0,1c-0.1-0.1-0.3-0.2-0.5-0.2c-0.6,0.1-0.8,0.8-0.8,1.2c-0.1,0.7,0,1.6-0.5,2.2
			c-0.5,0.6-1.2,0.4-1.7,0.8c-0.4,0.2-0.7,0.6-1,1c-0.4-0.2-0.9-0.3-1.4-0.3c-3.1,0.1-4.7,2.7-6.2,5.1c-0.8,1.4-1.2,2.9-1.9,4.4
			c-0.5,1.1-1,2.2-1.5,3.2c-0.3,0.6-0.6,1.2-1,1.8c-0.2,0.4-0.4,0.8-0.4,1.2c0,0.8,0.7,1.3,1.4,1.7c-1.3,4.3-2.8,8.9-6.2,11.7
			c-3.3,2.8-7.4,4.6-11.4,6.1c-2,0.7-4.1,1.3-6.2,1.9c-2.1,0.6-4.1,0.4-6.2,0.8c-0.1,0-0.2,0.1-0.3,0.1c-0.1,0.1-0.2,0.2-0.2,0.3
			c0.5,0.2,1,0.4,1.5,0.6c0.1,0.1,0.5,0.1,0.3,0.3c-0.1,0.1-0.3,0.1-0.4,0.1l-0.8,0.2c-0.6,0.2-1.3,0.4-1.9,0.6
			c-0.1,0-0.3,0.1-0.4,0.2c-0.2,0.3,1.1,0.3,1.3,0.2c0.6,0,1.1-0.1,1.7-0.2c-0.1,0-0.3,0.2-0.4,0.2c-0.2,0.1-0.4,0.2-0.6,0.3
			c-0.6,0.3-1.4,0.4-1.9,0.8c0,0-0.1,0-0.1,0.1c0,0.1,0.1,0.2,0.2,0.2c1.1,0.3,2.3,0,3.4-0.3c-0.2,0.1-0.5,0.2-0.7,0.3
			c-0.4,0.2-0.8,0.5-1.3,0.7c-0.4,0.2-1,0.3-1.3,0.6c-0.1,0.1-0.1,0.2-0.1,0.3c0.1,0.2,0.4,0.1,0.6,0.1c0.3,0,0.6,0,0.9,0
			c0.6,0,1.2-0.1,1.7-0.2c-0.2,0.1-1.7,0.8-1.5,1.1c0,0,0.1,0.1,0.1,0.1c0.2,0.1,0.4,0,0.5,0c1.4-0.2,2.8-0.7,4.1-1.2
			c5.2-2.1,10.8-3.1,16.3-4.6c1.3-0.4,2.6-0.7,4-1.2c1.6-0.5,3.4-1,5-1.8c1.7-0.5,2.8-2.5,3.7-3.9c1.6-2.5,3-5,4.5-7.5
			c0,0.4,0.1,0.7,0.1,1.1c0.1,1.1,0.2,2.2,0.3,3.3c0,0.6,0.1,1.5,0.6,1.8c-0.6,1.2-1.1,2.6-1.6,3.6c-0.5,1-0.6,1.7-1.6,2.3
			c-2.3,1.5-4.6,2.8-7.1,3.9l-0.7,0.1c-4.7,1-9.3,2-13.8,3.4c-2.3,0.8-5.5,1.6-7.7,3.2c-1.5,0.9-2.8,2.2-3.5,3.9
			c-1.8,4.2,1.4,7.5,5.1,8.9c3.7,1.4,7.7,2,11.7,2.4c0.3,0.1,0.6,0.2,0.9,0.2c1.2,0.1,2.4,0.2,3.6,0.3c1.6,0.1,3.3,0.2,4.9,0.3
			c0.7,0,1.3,0.1,2,0.1c7.1,0.3,14.3,0.1,21.2-1.7c2.2-0.6,4.4-1.4,6.2-2.7c2.7-2,3.8-4.9,4.3-8.1c0.7-4.7,0.3-9-1.3-13.3
			c0.4-0.6,0.9-1.1,1.3-1.7c1-1.4,2.2-2.8,3-4.4c1.1-1.4,0.8-3.6,0.7-5.3c-0.2-3.3-0.5-6.5-0.8-9.7c0.3-0.2,0.5-0.3,0.8-0.5
			c0.3-0.2,0.6-0.4,0.7-0.8C267.8,192.6,267.7,192.3,267.6,192.1z"/>
		<path class="st32" d="M144.5,157.1c5-2.1,10.3-1,13.2,2.2l0.1,0l0.5-23.8l-21.4,7.3l-0.6,25.3l0.4-0.2
			C136.6,163.6,139.6,159.2,144.5,157.1z"/>
		<path class="st33" d="M143.7,156c-2.2,1.4-4.1,3.3-5.3,5.5c-0.5,0.9-0.9,1.9-1.3,2.9c-0.3,0.8-1,2.3-0.6,3.2
			c0,0.1,0.1,0.2,0.2,0.3c0.1,0.1,0.3-0.1,0.4-0.1c0.8-0.2,1.7-0.7,2.5-1l11.2-4.5l3.5-1.4l1.7-0.7c0.4-0.2,1.1-0.3,1.5-0.6
			c1.4-1.2-2-3.7-2.8-4.1C151.1,153.3,147.1,153.9,143.7,156z"/>
		<ellipse class="st33" cx="148.3" cy="148.1" rx="4.8" ry="5"/>
		<path class="st34" d="M267,136.2c-2.5-0.4-4.8,1.3-4.8,3.4v7.6c0,1.6,1,2.2,2.2,2.9c1.2,0.6,0.2,2.2-0.5,3
			c-0.2,0.3-0.6,0.5-0.9,0.5c0.7,0,1.5-0.3,2.2-0.4c0.7-0.1,1.4-0.3,2-0.6c2.9-1.1,5.6-0.4,8.4,0.3c0.7,0.2,1.4,0.3,2.1,0.3
			c2,0,3.6-1.7,3.6-3.6v-8c0-1.8-1.3-3.3-3.1-3.6L267,136.2z"/>
		<path class="st8" d="M266.1,136.7c-2.4-0.4-4.7,1.2-4.7,3.3v7.4c0,1.2,0.7,2.2,1.7,2.8c0.2,0.1,0.8,0.2,0.9,0.4
			c0.1,0.2-0.1,0.7-0.2,0.9c-0.2,0.7-0.5,1.4-0.9,2.1c0.4,0,0.8-0.2,1.2-0.3c1.3-0.6,2.5-1.2,3.8-1.7c0.5-0.2,1,0.1,1.5,0.2l1.8,0.4
			l4.4,1c1.9,0.4,3.8-0.8,4.2-2.7c0.1-0.3,0.1-0.5,0.1-0.8v-7.8c0-1.7-1.3-3.2-3-3.5L266.1,136.7z"/>
		<circle class="st8" cx="270.8" cy="144.3" r="4.9"/>
		<path class="st34" d="M269.4,149.8l0.1-0.6c0-0.2-0.1-0.4-0.4-0.5c-0.5-0.1-1-0.3-1.5-0.6c-0.2-0.1-0.3-0.4-0.1-0.6l0.1-0.1
			c0.1-0.2,0.4-0.3,0.7-0.1c0,0,0,0,0,0c0.5,0.3,1.1,0.5,1.7,0.6c1.1,0.2,1.9-0.3,2-1.1c0.1-0.8-0.4-1.3-1.4-1.9
			c-1.4-0.8-2.3-1.6-2.1-2.8c0.2-1,1-1.7,2.2-1.9c0.2,0,0.4-0.2,0.4-0.4l0.1-0.6c0-0.2,0.3-0.4,0.5-0.4l0,0c0.2,0,0.4,0.2,0.4,0.5
			l-0.1,0.5c0,0.2,0.1,0.4,0.3,0.5c0.4,0.1,0.8,0.2,1.1,0.4c0.2,0.1,0.3,0.4,0.2,0.6c0,0,0,0,0,0l-0.1,0.1c-0.1,0.2-0.4,0.3-0.7,0.1
			c-0.4-0.2-0.9-0.4-1.4-0.5c-1.2-0.2-1.7,0.4-1.8,0.9c-0.1,0.7,0.4,1.2,1.6,1.9c1.5,0.8,2.1,1.6,1.9,2.9c-0.2,1-1,1.8-2.4,2
			c-0.2,0-0.4,0.2-0.4,0.4l-0.1,0.7c0,0.2-0.3,0.4-0.5,0.4h0C269.5,150.3,269.4,150.1,269.4,149.8
			C269.4,149.8,269.4,149.8,269.4,149.8z"/>
		<path class="st3" d="M263.1,183.7c-0.8,0-1.7,0.2-2.3,0.2c-1.7,0.2-3.5,0.7-5.1,1.3c-0.1,0-0.2,0.1-0.3,0.2
			c-0.1,0.1-0.1,0.2-0.1,0.3c0.1,1,0.3,1.9,0.5,2.8c1.5,5.6,4.8,12.2,3.4,18.1c-1,4.2-3.3,8.1-5.8,11.6c-1.2,1.8-2.6,3.5-3.9,5.1
			c-1.4,1.7-3.1,2.7-4.5,4.3c-0.1,0.1-0.1,0.2-0.2,0.3c0,0.1,0,0.2,0,0.3c0.5-0.1,1.1-0.2,1.6-0.4c0.1,0,0.5-0.2,0.4,0
			c0,0.1-0.2,0.3-0.3,0.4l-0.5,0.6c-0.4,0.5-0.8,1-1.1,1.6c-0.1,0.1-0.2,0.3-0.2,0.4c0,0.3,1.1-0.5,1.2-0.6c0.4-0.3,0.8-0.7,1.2-1.1
			c-0.1,0.1-0.1,0.3-0.2,0.4c-0.1,0.2-0.2,0.4-0.3,0.6c-0.3,0.6-0.9,1.1-1.1,1.8c0,0,0,0.1,0,0.1c0,0.1,0.2,0.1,0.2,0.1
			c1.1-0.4,1.9-1.3,2.6-2.2c-0.1,0.2-0.3,0.4-0.4,0.7c-0.2,0.4-0.4,0.9-0.6,1.3c-0.2,0.4-0.7,0.8-0.7,1.2c0,0.1,0,0.2,0.1,0.3
			c0.2,0.1,0.4-0.2,0.6-0.3c0.2-0.2,0.5-0.3,0.7-0.5c0.5-0.4,0.9-0.8,1.3-1.2c-0.1,0.2-0.9,1.7-0.6,1.8c0,0,0.1,0,0.1,0
			c0.2-0.1,0.3-0.2,0.5-0.3c1-1,1.8-2.2,2.6-3.4c3-4.8,7-8.8,10.5-13.2c0.9-1.1,1.7-2.2,2.5-3.3c1-1.4,2.2-2.8,3-4.4
			c1.1-1.4,0.8-3.6,0.7-5.3c-0.2-4-0.6-8-1.1-12c-0.3-2.1-1.3-6.5-3.5-7.4C263.8,183.8,263.5,183.8,263.1,183.7z"/>
		<path class="st3" d="M230.1,218c6.2-1.3,12.5-2.6,18.8-2.8c0.6,0,1.3,0,1.8,0.4c0.3,0.2,0.6,0.6,0.7,1c0.7,2.2-1.2,4.4-3,5.8
			c-10,8.1-23.2,12.7-35.8,10.6c-1.8-0.3-3.6-0.8-5-1.9c-0.9-0.7-2-1.9-1.6-3.2c1.3-4,6.7-5.4,10.3-6.5
			C220.8,220,225.4,219,230.1,218z"/>
		<path class="st35" d="M255.1,205.6c0.6,1.4-0.1,3.1-1.6,3.6l-4.2,1.7c-1.5,0.6-3.2-0.1-3.8-1.5l-6.8-15.6l9.5-3.9L255.1,205.6z"/>
		<path class="st35" d="M249,191.1l-10.2,3.7c-0.6,0.2-1.2,0-1.4-0.5l-0.5-1.4c-0.2-0.5,0.1-1,0.7-1.3l10.2-3.7
			c0.6-0.2,1.2,0,1.4,0.5l0.5,1.4C249.9,190.4,249.6,190.9,249,191.1z M256.5,210.2l-9,3.3c-0.5,0.2-1.1-0.2-1.4-0.9l-0.8-2
			c-0.3-0.7-0.1-1.4,0.4-1.6l9-3.3c0.5-0.2,1.1,0.2,1.4,0.9l0.8,2C257.2,209.3,257,210,256.5,210.2z"/>
		<path class="st35" d="M257.5,210.7l-10.2,3.8c-0.6,0.2-1.3-0.2-1.6-0.9l-0.8-2c-0.3-0.7,0-1.4,0.5-1.7l10.2-3.8
			c0.6-0.2,1.3,0.2,1.6,0.9l0.8,2C258.3,209.8,258.1,210.5,257.5,210.7z"/>
		<path class="st36" d="M260.4,165.6c0.4-0.4,0.8-0.9,1-1.5c-0.5,0.2-1.2,0.3-1.6-0.1c-0.3-0.3-0.4-0.7-0.4-1.1
			c-0.1-1.6,0.6-3,1.1-4.5c1.9-5.6-2.6-12.4-8.9-11c-2.2,0.5-5,1.6-6.5,3.3c-0.9,1-1,1.9-1.1,3.2c-0.1,1.7-0.1,3.4,0.2,5.1
			c0.4,2,1.2,4,2.4,5.6c1.8,2.3,4.8,3.8,7.7,3.7C256.6,168.3,258.9,167.3,260.4,165.6z"/>
		<path class="st37" d="M253.9,182.4c0.7-0.2,1.4-0.6,2-1.1c0.6-0.6,0.9-1,0.9-1.8c0-1.3-0.1-2.5-0.3-3.8c-0.4-2.6-1.8-4.7-2.7-7.1
			c-0.6-1.6-0.9-3.2-1.3-4.9c-0.4-1.5-0.9-2.5-0.4-3.9c0.3-0.7,0.1-1.6-0.6-1.9c-0.8-0.4-1.7,0.2-2.2,0.8c-0.2,0.3-0.5,0.5-0.9,0.5
			c-0.2,0-0.4-0.1-0.6-0.2c-1.8-1-2.2-3.6-2.9-5.3c-0.1-0.2-0.3-1-0.5-1.1c-0.3-0.1-0.5,0.4-0.6,0.5c-0.2,0.4-0.3,0.7-0.5,1.1
			c-0.5,1.3-0.7,2.7-0.9,4c-0.5,2.8-0.5,6.7,2.8,7.9c1.1,0.4,1.8,1,2.2,2.1c0.3,1,0.3,2.1,0.2,3.1c-0.1,2.2-0.2,4.4-0.2,6.6
			c0,0.6,0,1.3,0.2,1.8c0.4,0.9,1.3,1.5,2.2,1.8C251.1,182.4,252.6,182.7,253.9,182.4z"/>
		<path class="st38" d="M267.5,186.7c0.7,1.7,1.3,3.4,1.8,4.9c0.1,0.3,0.2,0.5,0.1,0.8c-0.1,0.3-0.4,0.6-0.7,0.8
			c-2.3,1.5-4.8,2.6-7.5,3.1c-0.2,0-0.5,0.1-0.7,0c-0.2-0.1-0.3-0.2-0.4-0.4c-2.9-3.9-3.4-9-3.5-13.8c0-0.7,0-1.4,0.2-2.1
			c0.5-1.4,2.6-2,3.9-1.8c0.9,0.1,1.9,0.4,2.4,1.1C265,181.4,266.4,184,267.5,186.7z"/>
		<path class="st3" d="M252.1,163.4l-0.2-0.6c-0.1-0.3-0.2-0.6-0.2-0.9c-0.1,0.1-0.2,0.3-0.3,0.4c-0.5,1-1.1,2-1.9,2.8
			c-0.4,0.4-0.8,0.8-1.3,1.1c-0.4,0.3-0.9,0.7-1.4,0.9c0.4,0.5,0.8,0.9,0.8,1.5c0,0.2,0.1,0.4,0.2,0.4c0.1,0,0.3-0.1,0.4-0.2
			c0.3-0.3,0.6-0.6,1-0.9l1.4-1.1c0.3-0.3,0.7-0.5,1-0.7c0.2-0.1,0.4-0.1,0.6-0.1c0.2,0,0.4,0.1,0.5,0c0.4-0.1,0.1-0.6,0-0.8
			L252.1,163.4z"/>
		<path class="st36" d="M242.4,155.3c0,0,0,0.1-0.1,0.1c-0.1,0.3,0.2,0.3,0.4,0.3c0.2,0,0.4,0.1,0.6,0.1c0.2,0.1,0.4,0.2,0.5,0.2
			c0.3,0,0.3-0.1,0.2-0.3c-0.2-0.2-0.4-0.4-0.7-0.4c-0.2-0.1-0.3-0.1-0.5-0.1C242.8,155.2,242.5,155.2,242.4,155.3z"/>
		
			<ellipse transform="matrix(7.689311e-02 -0.997 0.997 7.689311e-02 67.6583 391.9627)" class="st3" cx="245.5" cy="159.4" rx="1.4" ry="1.5"/>
		<path class="st3" d="M242.4,159c-0.2,0.4-0.5,0.7-0.8,1c-0.2,0.4,0.2,0.6,0.6,0.8"/>
		<path class="st37" d="M232.7,240.7c2.2,0.1,4.3,0,6.4-0.2c7.7-0.6,27.9-5.8,20.9-17.6c-0.4-0.7-1-1.4-1.5-2.1
			c-3.4-4-9.2-5.4-14.4-4.9c-5.7,0.5-10.5,3.2-15.9,4.7c-6.6,1.8-19.9,0.1-23.2,7.9c-1.8,4.2,1.4,7.5,5.1,8.9c3.8,1.4,7.9,2,12,2.4
			C225.6,240.3,229.1,240.6,232.7,240.7z"/>
		<path class="st39" d="M233.2,240.7c7.1,0.3,14.3,0.1,21.2-1.7c2.2-0.6,4.4-1.4,6.2-2.7c2.7-2,3.8-4.9,4.3-8.1
			c0.8-5.5,0.2-10.4-2.1-15.4c-1.2-2.7-2.3-6.3-5.8-6.6c-2.1-0.2-4.3,0.1-6.4-0.1c-2.1-0.2-4.9-1.4-7-0.7c-2.3,0.8-3.3,4.4-4.2,6.4
			c-0.5,1-0.6,1.7-1.6,2.3c-5,3.3-10.6,5.7-16.4,7.1c-0.7,3-0.9,6.1-0.8,9.2c0,2.8,0.3,5.5,0.6,8.3c0,0.4,0.1,0.8,0.3,1.1
			c0.3,0.3,0.7,0.4,1.2,0.4C226.2,240.3,229.7,240.6,233.2,240.7z"/>
		<path class="st39" d="M233.2,240.7c7.1,0.3,14.3,0.1,21.2-1.7c2.2-0.6,4.4-1.4,6.2-2.7c2.7-2,3.8-4.9,4.3-8.1
			c0.8-5.5,0.2-10.4-2.1-15.4c-1.2-2.7-2.3-6.3-5.8-6.6c-2.1-0.2-4.1,0-6.2-0.1c-2-0.1-2.3,1.2-3,3c-2.2,6-6.7,11.4-12.9,13.1
			c-3.2,0.9-6.6,0.7-9.9,1.3c-1.5,0.3-3.4,0.6-4,2c-0.7,1.4-0.4,3.4-0.4,5c0,2.8,0.3,5.5,0.6,8.3c0,0.4,0.1,0.8,0.3,1.1
			c0.3,0.3,0.7,0.4,1.2,0.4C226.2,240.3,229.7,240.6,233.2,240.7z"/>
		<path class="st3" d="M242.5,161.6l0.7,0c0.1,0,0.2,0,0.2,0.1c0.1,0.1,0.1,0.4-0.1,0.4c-0.2,0.1-0.5,0.1-0.7,0.1
			c-0.2,0-0.3-0.1-0.4-0.2c-0.1-0.1-0.1-0.3,0-0.4c0.1,0,0.1,0,0.2,0C242.4,161.6,242.4,161.6,242.5,161.6z"/>
		<path class="st36" d="M242.1,157.9c0,0.1,0,0.2,0.1,0.3c0.2,0.2,0.5,0.2,0.7,0.1c0.3-0.3,0.2-0.8-0.2-0.8
			C242.4,157.5,242.1,157.7,242.1,157.9z"/>
		<path class="st40" d="M250.7,158.4c-0.5,0.3-0.8,1.4-0.2,1.8c0.1,0.1,0.3,0.1,0.4,0.1c0.1,0,0.3-0.1,0.3-0.2
			c0.3-0.4-0.5-1.1-0.9-0.9c-0.1,0.1-0.2,0.2-0.2,0.3c0,0,0,0,0,0"/>
		<path class="st38" d="M240.1,202.9c-0.2-1.8-0.5-3.5-0.8-5.3c-0.2-1.4-0.5-2.7-0.9-4c-0.4-1.3-0.9-2.6-1-3.9
			c-0.3-2.5,0.5-5,1.7-7.1c1-1.6,2.2-3.1,3.5-4.5c0.4-0.5,0.9-1.2,1.4-1.5c0.6-0.4,1.3-0.2,1.7-0.8c0.5-0.6,0.4-1.5,0.5-2.2
			c0-0.5,0.2-1.2,0.8-1.2c0.6-0.1,0.9,0.9,1.2,1.3c0.1-0.5,0.5-0.9,0.9-1.1c0.2-0.1,0.4-0.2,0.7-0.2c0.4,0,0.8,0.1,1.1,0.4
			c0.3,0.3,0.4,0.7,0.4,1.1c0.1-0.2,0.1-0.4,0.2-0.5c0.2-0.4,0.5-0.7,1-0.7c0.3,0,0.6,0.1,0.8,0.4c0.1,0.1,0.2,0.2,0.2,0.3
			c0.1,0.3,0.2,0.5,0.3,0.8c0-0.2,0.2-0.5,0.2-0.6c0.1-0.2,0.2-0.5,0.3-0.6c0.2-0.3,0.6-0.5,0.9-0.4c0.6,0.1,0.8,0.7,1,1.3
			c0-0.2,0.3-0.7,0.4-0.8c0.3-0.2,0.4-0.2,0.6,0.1c0.4,0.4,0.3,1,0.5,1.5c0.4,1.3,0.4,1.3,1.5,1.9c1.9,1.1,3.8,2.4,4.8,4.4
			c1.1,2.3,0.5,5.6,0.4,8.1c-0.4,6.4-1.5,12.8-2.7,19.2c-0.3,1.7-1.3,1.7-2.8,1.6l-10-0.9c-1.7-0.1-3.3-0.3-5-0.4
			c-0.8-0.1-2.4,0.2-3.1-0.3c-0.5-0.4-0.5-1.3-0.6-1.8C240.4,205.1,240.3,204,240.1,202.9z"/>
		<path class="st41" d="M240.1,202.9c-0.2-1.8-0.5-3.5-0.8-5.3c-0.2-1.4-0.5-2.7-0.9-4c-0.4-1.3-0.9-2.6-1-3.9
			c-0.3-2.5,0.5-5,1.7-7.1c1-1.6,2.2-3.1,3.5-4.5c0.4-0.5,0.9-1.2,1.4-1.5c0.6-0.4,1.3-0.2,1.7-0.8c0.5-0.6,0.4-1.5,0.5-2.2
			c0-0.5,0.2-1.2,0.8-1.2c0.6-0.1,0.9,0.9,1.2,1.3c0.1-0.5,0.5-0.9,0.9-1.1c0.2-0.1,0.4-0.2,0.7-0.2c0.4,0,0.8,0.1,1.1,0.4
			c0.3,0.3,0.4,0.7,0.4,1.1c0.1-0.2,0.1-0.4,0.2-0.5c0.2-0.4,0.5-0.7,1-0.7c0.3,0,0.6,0.1,0.8,0.4c0.1,0.1,0.2,0.2,0.2,0.3
			c0.1,0.3,0.2,0.5,0.3,0.8c0-0.2,0.2-0.5,0.2-0.6c0.1-0.2,0.2-0.5,0.3-0.6c1.2-1.5,1.5,0.6,1.5,1.4c-0.1,1.4-0.5,2.7-1,3.9
			c-1.1,2.7-2.8,5.2-3.8,7.9c-2,5.4-1.2,11.4-1.2,17.2c0,1.4-0.2,3.1-1.1,4.2c-1.2,1.4-2.8,0.9-4.5,0.8c-0.8-0.1-2.4,0.2-3.1-0.3
			c-0.5-0.4-0.5-1.3-0.6-1.8C240.4,205.1,240.3,204,240.1,202.9z"/>
		<path class="st37" d="M242.3,190.1c-0.6-0.3-1.1-0.8-1.7-1.2c-1.6-0.9-3.4-1.6-5.2-2.1c-0.1,0-0.2-0.1-0.3,0
			c-0.1,0.1-0.2,0.1-0.2,0.2c-0.5,0.8-0.9,1.7-1.2,2.6c-2.1,5.4-3.2,12.7-7.8,16.7c-3.3,2.8-7.4,4.6-11.4,6.1
			c-2,0.7-4.1,1.3-6.2,1.9c-2.1,0.6-4.1,0.4-6.2,0.8c-0.1,0-0.2,0.1-0.3,0.1c-0.1,0.1-0.2,0.2-0.2,0.3c0.5,0.2,1,0.4,1.5,0.6
			c0.1,0.1,0.5,0.1,0.3,0.3c-0.1,0.1-0.3,0.1-0.4,0.1l-0.8,0.2c-0.6,0.2-1.3,0.4-1.9,0.6c-0.1,0-0.3,0.1-0.4,0.2
			c-0.2,0.3,1.1,0.3,1.3,0.2c0.6,0,1.1-0.1,1.7-0.2c-0.1,0-0.3,0.2-0.4,0.2c-0.2,0.1-0.4,0.2-0.6,0.3c-0.6,0.3-1.4,0.4-1.9,0.8
			c0,0-0.1,0-0.1,0.1c0,0.1,0.1,0.2,0.2,0.2c1.1,0.3,2.3,0,3.4-0.3c-0.2,0.1-0.5,0.2-0.7,0.3c-0.4,0.2-0.8,0.5-1.3,0.7
			c-0.4,0.2-1,0.3-1.3,0.6c-0.1,0.1-0.1,0.2-0.1,0.3c0.1,0.2,0.4,0.1,0.6,0.1c0.3,0,0.6,0,0.9,0c0.6,0,1.2-0.1,1.7-0.2
			c-0.2,0.1-1.7,0.8-1.5,1.1c0,0,0.1,0.1,0.1,0.1c0.2,0.1,0.4,0,0.5,0c1.4-0.2,2.8-0.7,4.1-1.2c5.2-2.1,10.8-3.1,16.3-4.6
			c1.3-0.4,2.6-0.7,4-1.2c1.6-0.5,3.4-1,5-1.8c1.7-0.5,2.8-2.5,3.7-3.9c2.9-4.5,5.4-9.1,7.9-13.7c0.7-1.3,1.4-2.7,1.7-4.1
			C244.3,191,243.3,190.6,242.3,190.1z"/>
		<path class="st38" d="M232,190.1c-0.3,0.6-0.6,1.2-1,1.8c-0.2,0.4-0.4,0.8-0.4,1.2c0,0.8,0.8,1.4,1.5,1.7c2,1.1,4.1,2,6.3,2.9
			c1,0.4,2.2,1.1,3.3,1.2c1,0.1,1.2-1,1.6-1.9c1.9-3.9,3.5-8.3,3.1-12.7c-0.2-2.5-1.5-7.1-4.8-7c-3.1,0.1-4.7,2.7-6.2,5.1
			c-0.8,1.4-1.2,2.9-1.9,4.4C233.1,187.9,232.6,189,232,190.1z"/>
		<path class="st38" d="M27.7,60"/>
	</g>
</g>
<line class="st12" x1="276.3" y1="216.4" x2="276.3" y2="216.4"/>
</svg>
